<svg xmlns="http://www.w3.org/2000/svg" xmlns:xlink="http://www.w3.org/1999/xlink" id="Layer_1" x="0px" y="0px" viewBox="0 0 2036 710.6" style="enable-background:new 0 0 2036 710.6;" xml:space="preserve"><style type="text/css">	.st0{display:none;}	.st1{display:inline;fill:#0055AF;}	.st2{enable-background:new    ;}	.st3{fill:url(#SVGID_1_);}	.st4{fill:url(#SVGID_00000106855447760118159060000008920685385360087204_);}	.st5{fill:url(#SVGID_00000080208809291840344420000015957063199724529298_);}	.st6{fill:url(#SVGID_00000109744931360733272660000013705094819155912587_);}</style><g id="Logo" class="st0">	<path class="st1" d="M926,745.5c0,0-279-91.5-564,0c0,0,33-54,246-66S930.5,738,926,745.5z"></path>	<polygon class="st1" points="635,311.1 635,678.4 692.1,679 692.1,436.5 717.5,436.5 717.5,382.5  "></polygon>	<polygon class="st1" points="717.5,680.6 717.5,436.5 758,469.5 758,685  "></polygon>	<path class="st1" d="M614,405c0,0-88.5-1.5-84,109.5c0,0,30.1-57.1,84-49.1V405z"></path>	<path class="st1" d="M614,477.4c0,0-71.2-1-84.2,64v56c0,0-0.7-59,84.2-66V477.4z"></path>	<path class="st1" d="M614,548.4c0,0-71.2-1-84.2,64v56c0,0-0.7-59,84.2-66V548.4z"></path>	<path class="st1" d="M614,685v-65.6c0,0-81.2-1-84.2,72L614,685z"></path></g><image style="display:none;overflow:visible;enable-background:new    ;" width="370" height="289" transform="matrix(2.2437 0 0 2.2437 198.9575 311.0964)"></image><g id="Logo_2_">	<g class="st2">		<path d="M860.4,287.8c15.1,11.8,25,27.8,29.9,48h-38.4c-4-9.9-10.2-17.7-18.6-23.4c-8.4-5.7-18.5-8.6-30.3-8.6   c-9.7,0-18.4,2.4-26.2,7.3c-7.8,4.8-13.9,11.8-18.2,20.8c-4.3,9-6.5,19.6-6.5,31.7c0,11.9,2.2,22.4,6.5,31.4   c4.3,9,10.4,15.9,18.2,20.8c7.8,4.8,16.5,7.3,26.2,7.3c11.8,0,21.9-2.9,30.3-8.6c8.4-5.7,14.6-13.5,18.6-23.4h38.4   c-4.8,20.3-14.8,36.3-29.9,48c-15.1,11.8-34,17.7-56.9,17.7c-17.5,0-32.9-3.9-46.4-11.8c-13.4-7.8-23.8-18.8-31.1-33   c-7.4-14.2-11-30.3-11-48.3c0-18.2,3.7-34.4,11-48.6c7.4-14.2,17.7-25.2,31-33.1c13.3-7.9,28.8-11.8,46.5-11.8   C826.4,270.1,845.3,276,860.4,287.8z"></path>		<path d="M1022.1,318.5c11.2,5.9,20,14.4,26.4,25.6c6.4,11.2,9.6,24.3,9.6,39.3c0,15.1-3.2,28.1-9.6,39.2   c-6.4,11.1-15.2,19.6-26.4,25.6c-11.2,6-23.8,9-37.8,9s-26.6-3-37.8-9c-11.2-6-20-14.5-26.4-25.6c-6.4-11.1-9.6-24.2-9.6-39.2   c0-15.1,3.2-28.2,9.6-39.3c6.4-11.2,15.2-19.7,26.4-25.6c11.2-5.9,23.8-8.8,37.8-8.8S1010.9,312.6,1022.1,318.5z M958.3,352.1   c-7.1,7.2-10.6,17.6-10.6,31.3s3.5,24.1,10.6,31.3c7.1,7.2,15.8,10.8,26,10.8s18.9-3.6,26-10.8c7.1-7.2,10.6-17.6,10.6-31.3   s-3.6-24.1-10.6-31.3c-7.1-7.2-15.8-10.8-26-10.8C974.1,341.3,965.4,344.9,958.3,352.1z"></path>		<path d="M1209.4,325.7c9.9,10.9,14.8,26.2,14.8,46v83.6h-36.3v-79.5c0-11.4-2.9-20.3-8.8-26.6s-13.9-9.5-24.2-9.5   c-10.4,0-18.7,3.4-24.9,10.1c-6.2,6.8-9.3,16.5-9.3,29.1v76.4h-36.6V311.4h36.6v28.8c3.8-9.7,10.1-17.3,18.8-22.7   c8.7-5.5,18.8-8.2,30.3-8.2C1186.3,309.4,1199.6,314.8,1209.4,325.7z"></path>		<path d="M1348.1,322.9c10.6,8.8,17.1,20.6,19.7,35.3h-34.3c-1.4-6.9-4.5-12.5-9.3-16.6c-4.8-4.2-11.2-6.2-19-6.2   c-6.2,0-11.1,1.5-14.5,4.4c-3.5,2.9-5.2,6.9-5.2,11.9c0,4,1.4,7.2,4.2,9.6c2.8,2.4,6.2,4.3,10.4,5.7c4.2,1.4,10.1,3,17.9,4.9   c10.9,2.4,19.8,5,26.6,7.7c6.8,2.7,12.7,6.9,17.7,12.7c4.9,5.8,7.4,13.6,7.4,23.5c0,12.3-4.8,22.2-14.4,29.9   c-9.6,7.6-22.6,11.4-38.8,11.4c-18.7,0-33.7-4.2-44.9-12.6c-11.3-8.4-18.1-20.4-20.5-36h35.1c0.9,7.1,4,12.7,9.3,16.8   c5.4,4.1,12.4,6.1,21,6.1c6.2,0,11-1.5,14.3-4.5c3.3-3,4.9-7,4.9-11.8c0-4.2-1.4-7.5-4.3-10.1c-2.9-2.6-6.4-4.6-10.6-6   c-4.2-1.4-10.3-3-18-4.9c-10.7-2.4-19.4-4.9-26.1-7.4c-6.7-2.5-12.4-6.5-17.1-12.1c-4.8-5.5-7.1-13.2-7.1-22.9   c0-12.5,4.8-22.6,14.3-30.4c9.5-7.8,22.7-11.7,39.5-11.7C1323.5,309.6,1337.6,314,1348.1,322.9z"></path>		<path d="M1473.8,423.9v31.4h-19.2c-16.1,0-28.4-3.9-37-11.7s-12.9-20.8-12.9-39v-62.3h-20v-30.9h20v-35.6h36.6v35.6h32.2v30.9   h-32.2v62.9c0,6.9,1.4,11.8,4.2,14.5c2.8,2.8,7.4,4.2,14,4.2H1473.8z"></path>		<path d="M1558,317.3c8.8-5.3,18.7-7.9,29.6-7.9v39.2h-10.7c-26.8,0-40.3,12.5-40.3,37.4v69.3H1500V311.4h36.6v27.5   C1542,329.8,1549.1,322.6,1558,317.3z"></path>		<path d="M1745.5,311.4v143.9h-36.6v-29.1c-3.8,9.7-10.1,17.3-18.8,22.7c-8.7,5.5-18.8,8.2-30.3,8.2c-16.6,0-29.9-5.5-39.7-16.4   c-9.9-10.9-14.8-26.1-14.8-45.7v-83.6h36.4v79.5c0,11.4,2.9,20.3,8.8,26.6s13.8,9.5,23.9,9.5c10.6,0,19-3.4,25.2-10.1   c6.2-6.8,9.3-16.4,9.3-29.1v-76.4H1745.5z"></path>		<path d="M1889.7,324.7c12.4,10,20.1,23.7,23.2,41h-38.7c-1.6-7.6-5.1-13.6-10.6-18s-12.6-6.6-21-6.6c-9.7,0-17.8,3.6-24.3,10.8   s-9.7,17.7-9.7,31.6c0,13.9,3.2,24.4,9.7,31.6c6.5,7.2,14.6,10.8,24.3,10.8c8.5,0,15.5-2.2,21-6.6c5.5-4.4,9.1-10.4,10.6-18h38.7   c-3.1,17.3-10.9,31-23.2,41c-12.4,10-27.8,15.1-46.4,15.1c-14,0-26.5-3-37.4-9s-19.4-14.5-25.5-25.6s-9.1-24.2-9.1-39.2   c0-15.1,3-28.2,9.1-39.3c6.1-11.2,14.5-19.7,25.5-25.6c10.9-5.9,23.4-8.8,37.4-8.8C1861.9,309.6,1877.4,314.6,1889.7,324.7z"></path>		<path d="M2015.8,423.9v31.4h-19.2c-16.1,0-28.4-3.9-37-11.7s-12.9-20.8-12.9-39v-62.3h-20v-30.9h20v-35.6h36.6v35.6h32.2v30.9   h-32.2v62.9c0,6.9,1.4,11.8,4.2,14.5c2.8,2.8,7.4,4.2,14,4.2H2015.8z"></path>	</g>	<g class="st2">		<path d="M1348.9,505.4V538h36.2v9.5h-36.2v33.2h40.3v10h-52.6v-95.2h52.6v10L1348.9,505.4L1348.9,505.4z"></path>		<path d="M1448.4,522.1c5.1,4.4,8.2,10.2,9.3,17.6h-11.8c-0.5-4.4-2.4-8-5.5-10.9c-3.1-2.8-7.3-4.3-12.5-4.3   c-4.4,0-7.9,1.1-10.3,3.2c-2.5,2.1-3.7,5-3.7,8.6c0,2.7,0.8,4.9,2.5,6.6c1.7,1.7,3.7,2.9,6.2,3.8c2.5,0.9,5.9,1.8,10.2,2.8   c5.5,1.3,9.9,2.5,13.3,3.8s6.3,3.4,8.6,6.3c2.4,2.9,3.6,6.8,3.6,11.6c0,6-2.3,10.9-6.8,14.7c-4.5,3.8-10.6,5.7-18.2,5.7   c-8.8,0-16-2.1-21.6-6.3c-5.6-4.2-8.9-10.1-9.9-17.7h11.9c0.4,4.5,2.4,8.2,5.9,10.9c3.5,2.8,8,4.2,13.7,4.2c4.2,0,7.5-1.1,9.9-3.2   c2.4-2.2,3.6-5,3.6-8.5c0-2.9-0.9-5.2-2.6-6.9s-3.8-3-6.3-3.9s-6-1.8-10.4-2.8c-5.5-1.3-9.9-2.5-13.2-3.8c-3.3-1.3-6.1-3.3-8.4-6   c-2.3-2.7-3.4-6.5-3.4-11.1c0-6.2,2.3-11.2,6.9-15.1c4.6-3.8,10.9-5.7,18.8-5.7C1436.6,515.5,1443.3,517.7,1448.4,522.1z"></path>		<path d="M1510.2,579.8v10.8h-9.2c-7.6,0-13.2-1.8-17-5.4c-3.7-3.6-5.6-9.6-5.6-18.1v-40h-11.1v-10.7h11.1v-18.5h12.5v18.5h19.2   v10.7h-19.2v40.3c0,4.8,0.9,8,2.6,9.8c1.8,1.8,4.8,2.6,9.1,2.6H1510.2z"></path>		<path d="M1525.3,489.3c1.5-1.4,3.6-2.1,6.1-2.1s4.5,0.7,6.1,2.1c1.5,1.4,2.3,3.2,2.3,5.5s-0.8,4.1-2.3,5.5s-3.6,2.1-6.1,2.1   s-4.5-0.7-6.1-2.1c-1.5-1.4-2.3-3.2-2.3-5.5C1523,492.5,1523.8,490.6,1525.3,489.3z M1537.5,516.5v74.2h-12.3v-74.2H1537.5z"></path>		<path d="M1669.3,523.6c5.3,5.5,7.9,13.5,7.9,24v43.1h-12.3v-42c0-7.3-1.8-12.9-5.3-16.8c-3.6-3.9-8.4-5.8-14.7-5.8   c-6.5,0-11.7,2.1-15.6,6.4c-3.9,4.3-5.9,10.6-5.9,18.8v39.3h-12.3v-42c0-7.3-1.8-12.9-5.4-16.8c-3.6-3.9-8.5-5.8-14.6-5.8   c-6.6,0-11.8,2.1-15.7,6.4c-3.9,4.3-5.9,10.6-5.9,18.8v39.3h-12.3v-74.2h12.3v16.9c1.8-5.9,5-10.3,9.7-13.4c4.6-3.1,10-4.7,16-4.7   c6.3,0,11.8,1.6,16.4,4.8c4.6,3.2,7.9,7.9,9.9,14.1c2.1-6,5.5-10.7,10.4-14s10.4-4.9,16.5-4.9C1657.1,515.3,1664,518,1669.3,523.6   z"></path>		<path d="M1744.9,520.9c5,3.6,8.5,8.4,10.5,14.5v-18.9h12.3v74.2h-12.3v-18.9c-2,6-5.5,10.9-10.5,14.5s-11.1,5.4-18.3,5.4   c-6.6,0-12.4-1.5-17.6-4.6c-5.1-3.1-9.2-7.5-12.1-13.2s-4.4-12.5-4.4-20.2s1.5-14.5,4.4-20.3s7-10.2,12.1-13.2   c5.1-3.1,11-4.6,17.6-4.6C1733.8,515.5,1739.9,517.3,1744.9,520.9z M1712,533.7c-4.5,4.8-6.8,11.5-6.8,19.9   c0,8.5,2.3,15.1,6.8,19.9c4.5,4.8,10.6,7.2,18.2,7.2c4.9,0,9.2-1.1,13-3.4c3.8-2.2,6.8-5.4,9-9.5s3.2-8.8,3.2-14.3   s-1.1-10.2-3.2-14.3c-2.2-4.1-5.2-7.3-9-9.5s-8.2-3.3-13-3.3C1722.6,526.5,1716.5,528.9,1712,533.7z"></path>		<path d="M1822.7,579.8v10.8h-9.2c-7.6,0-13.2-1.8-17-5.4c-3.7-3.6-5.6-9.6-5.6-18.1v-40h-11v-10.7h11.1v-18.5h12.4v18.5h19.2v10.7   h-19.2v40.3c0,4.8,0.9,8,2.6,9.8c1.8,1.8,4.8,2.6,9.1,2.6H1822.7z"></path>		<path d="M1905.4,556.2h-59.3c0.3,8.5,2.7,14.8,7.2,19s10.1,6.3,16.7,6.3c5.9,0,10.9-1.5,14.9-4.5s6.5-7,7.4-12.1h13.1   c-0.9,5.1-2.9,9.7-6,13.8s-7.1,7.2-12.1,9.5s-10.5,3.4-16.8,3.4c-7.1,0-13.4-1.5-18.9-4.6s-9.8-7.5-12.9-13.2s-4.7-12.5-4.7-20.2   s1.6-14.5,4.7-20.3s7.4-10.2,12.9-13.2c5.5-3.1,11.8-4.6,18.9-4.6c7.2,0,13.5,1.5,18.8,4.6c5.4,3.1,9.5,7.2,12.3,12.3   s4.3,10.8,4.3,17C1905.9,552.1,1905.7,554.3,1905.4,556.2z M1890.8,536.5c-2.1-3.7-4.9-6.4-8.5-8.2s-7.5-2.7-11.8-2.7   c-6.8,0-12.4,2.1-17,6.3s-7.1,10.3-7.4,18.4h47.4C1893.7,544.8,1892.8,540.2,1890.8,536.5z"></path>		<path d="M1965.4,522.1c5.1,4.4,8.2,10.2,9.3,17.6h-11.8c-0.5-4.4-2.4-8-5.5-10.9s-7.3-4.3-12.5-4.3c-4.4,0-7.9,1.1-10.3,3.2   c-2.5,2.1-3.7,5-3.7,8.6c0,2.7,0.8,4.9,2.5,6.6c1.7,1.7,3.7,2.9,6.2,3.8c2.5,0.9,5.9,1.8,10.2,2.8c5.5,1.3,9.9,2.5,13.3,3.8   s6.3,3.4,8.6,6.3c2.4,2.9,3.6,6.8,3.6,11.6c0,6-2.3,10.9-6.8,14.7c-4.5,3.8-10.6,5.7-18.2,5.7c-8.8,0-16-2.1-21.6-6.3   c-5.6-4.2-8.9-10.1-9.9-17.7h11.9c0.4,4.5,2.4,8.2,5.9,10.9c3.5,2.8,8,4.2,13.7,4.2c4.2,0,7.5-1.1,9.9-3.2c2.4-2.2,3.6-5,3.6-8.5   c0-2.9-0.9-5.2-2.6-6.9s-3.8-3-6.3-3.9s-6-1.8-10.4-2.8c-5.5-1.3-9.9-2.5-13.2-3.8c-3.3-1.3-6.1-3.3-8.4-6s-3.4-6.5-3.4-11.1   c0-6.2,2.3-11.2,6.9-15.1c4.6-3.8,10.9-5.7,18.8-5.7C1953.6,515.5,1960.3,517.7,1965.4,522.1z"></path>	</g>	<g id="Logo_1_">					<linearGradient id="SVGID_1_" gradientUnits="userSpaceOnUse" x1="190.9001" y1="-368.4272" x2="797.5475" y2="-403.5613" gradientTransform="matrix(1 0 0 1 0 746.875)">			<stop offset="0" style="stop-color:#0055AF"></stop>			<stop offset="1" style="stop-color:#0086E3"></stop>		</linearGradient>		<path class="st3" d="M896.5,689.9c0,0-435.7-142.9-880.7,0c0,0,38.4-62.8,262.6-92C288.2,491.5,409.3,493,409.3,493v93.3   c11.1-0.5,22-1,32.8-1.2V11.5l128.8,111.6v84.3h-39.7V586c13.6,0.6,26.8,1.5,39.7,2.5V207.4l63.2,51.5v336.5   C812.1,620.5,901.6,681.4,896.5,689.9z"></path>					<linearGradient id="SVGID_00000019671152092705683070000007334546907318358966_" gradientUnits="userSpaceOnUse" x1="183.6321" y1="-493.9214" x2="790.2795" y2="-529.0554" gradientTransform="matrix(1 0 0 1 0 746.875)">			<stop offset="0" style="stop-color:#0055AF"></stop>			<stop offset="1" style="stop-color:#0086E3"></stop>		</linearGradient>		<path style="fill:url(#SVGID_00000019671152092705683070000007334546907318358966_);" d="M409.3,158.2c0,0-138.2-2.3-131.2,171   c0,0,47-89.2,131.2-76.7V158.2z"></path>					<linearGradient id="SVGID_00000120545696235044917130000018112372178065312179_" gradientUnits="userSpaceOnUse" x1="190.6294" y1="-373.1012" x2="797.2769" y2="-408.2353" gradientTransform="matrix(1 0 0 1 0 746.875)">			<stop offset="0" style="stop-color:#0055AF"></stop>			<stop offset="1" style="stop-color:#0086E3"></stop>		</linearGradient>		<path style="fill:url(#SVGID_00000120545696235044917130000018112372178065312179_);" d="M409.3,271.3c0,0-111.2-1.6-131.4,99.9   v87.4c0,0-1.2-92.1,131.4-103.1V271.3L409.3,271.3z"></path>					<linearGradient id="SVGID_00000059288268634862142720000009794440988942610855_" gradientUnits="userSpaceOnUse" x1="197.025" y1="-262.6717" x2="803.6723" y2="-297.8055" gradientTransform="matrix(1 0 0 1 0 746.875)">			<stop offset="0" style="stop-color:#0055AF"></stop>			<stop offset="1" style="stop-color:#0086E3"></stop>		</linearGradient>		<path style="fill:url(#SVGID_00000059288268634862142720000009794440988942610855_);" d="M409.3,382.1c0,0-111.2-1.6-131.4,99.9   v87.4c0,0-1.2-92.1,131.4-103.1V382.1L409.3,382.1z"></path>	</g></g></svg>