<svg xmlns="http://www.w3.org/2000/svg" width="41" height="39" viewBox="0 0 41 39" fill="none"><path d="M14.6971 7.43957C13.8741 8.87722 13.201 10.8416 12.7368 13.172C12.672 13.4974 12.8832 13.8136 13.2088 13.8784C13.2482 13.8862 13.2876 13.8899 13.3267 13.8899C13.6073 13.8899 13.8582 13.6922 13.9151 13.4066C14.4125 10.9086 15.1485 8.88129 16.0437 7.54374C16.1404 7.39922 16.1698 7.21967 16.1241 7.0517C16.0785 6.88403 15.9624 6.74421 15.8054 6.66851C15.6415 6.58968 15.4779 6.50335 15.3196 6.41201C14.3377 5.84615 13.9348 5.32595 13.77 4.98875C13.5964 4.63403 13.5967 4.30089 13.7706 3.99903C14.1826 3.28427 15.2533 3.33307 16.6349 4.12885C17.2221 4.4673 17.7467 4.87489 18.152 5.30718C18.3169 5.48298 18.5706 5.54335 18.7971 5.46046C22.7606 4.00685 30.256 4.00685 34.2202 5.46046C34.4464 5.54335 34.7004 5.48329 34.8652 5.30718C35.2706 4.87489 35.7952 4.4673 36.3823 4.12885C37.3642 3.5633 38.0167 3.47634 38.3902 3.50199C38.7843 3.52983 39.0724 3.69686 39.2467 3.99903C39.6583 4.71379 39.0793 5.61561 37.6977 6.4117C37.5388 6.50335 37.3752 6.59 37.2116 6.66851C37.0548 6.74421 36.9388 6.88403 36.8928 7.0517C36.8471 7.21967 36.8765 7.39922 36.9732 7.54374C37.6814 8.60164 38.2804 10.0603 38.7534 11.8789C38.8369 12.1998 39.1644 12.3919 39.4857 12.309C39.8066 12.2255 39.9993 11.8977 39.9158 11.5767C39.486 9.9245 38.9504 8.53627 38.3205 7.43926C40.6928 6.06261 40.8933 4.45072 40.2871 3.39939C39.9123 2.74875 39.2686 2.35962 38.4744 2.30394C37.687 2.2492 36.7818 2.51258 35.7827 3.08846C35.2202 3.41252 34.7032 3.79446 34.2684 4.20548C30.0746 2.816 22.9423 2.816 18.7489 4.20548C18.3138 3.79446 17.797 3.41252 17.2343 3.08846C14.8401 1.70868 13.3377 2.3443 12.7299 3.39939C12.3548 4.05002 12.3411 4.802 12.6911 5.51708C13.0355 6.22026 13.7102 6.86683 14.6971 7.43957Z" fill="#0163BE"></path><path d="M40.4433 14.0543C40.3873 13.7275 40.0773 13.5079 39.7501 13.5632C39.4232 13.6192 39.2033 13.9295 39.2593 14.2564C40.4874 21.4534 39.5699 29.8069 37.1707 33.274C37.0722 33.416 37.0399 33.5934 37.0819 33.761C37.1238 33.9287 37.2358 34.0701 37.389 34.1495C37.4954 34.2043 37.5992 34.2609 37.6978 34.3175C39.0794 35.1139 39.6584 36.0157 39.2468 36.7305C39.0725 37.0327 38.7845 37.1997 38.3903 37.2275C38.0162 37.2538 37.3643 37.1662 36.3824 36.6004C35.8162 36.2741 35.3061 35.8819 34.9069 35.4661C34.7449 35.2975 34.5 35.2381 34.2788 35.3138C33.8834 35.4492 33.4458 35.575 32.9785 35.6873C32.6557 35.7649 32.457 36.0889 32.5346 36.4114C32.6119 36.7339 32.9359 36.9323 33.2584 36.8553C33.6282 36.7665 33.9813 36.6698 34.3132 36.5663C34.7389 36.9613 35.2407 37.3289 35.7828 37.6411C36.6955 38.1672 37.5301 38.4331 38.2674 38.4328C38.3371 38.4328 38.4063 38.4306 38.4745 38.4256C39.2687 38.3699 39.9124 37.9808 40.2875 37.3301C40.8768 36.3076 40.7035 34.7551 38.5111 33.4044C39.9349 30.9865 40.5387 27.5728 40.7942 25.0463C41.1599 21.429 41.0354 17.5252 40.4433 14.0543Z" fill="#0163BE"></path><path d="M34.3404 17.9906V14.4746C34.3404 12.9494 33.0995 11.7085 31.5739 11.7085H21.4431C19.9179 11.7085 18.677 12.9494 18.677 14.4746V17.9906C18.677 19.5158 19.9179 20.7567 21.4431 20.7567H31.5743C33.0995 20.7567 34.3404 19.5158 34.3404 17.9906ZM33.1392 17.9906C33.1392 18.8536 32.437 19.5555 31.5739 19.5555H21.4431C20.5801 19.5555 19.8782 18.8536 19.8782 17.9906V14.4746C19.8782 13.6119 20.5801 12.9097 21.4431 12.9097H31.5743C32.437 12.9097 33.1392 13.6119 33.1392 14.4746V17.9906Z" fill="#0163BE"></path><path d="M28.4058 33.1252H27.4242C27.1734 30.2693 25.1508 27.8444 22.3777 27.0956C22.1929 25.1574 21.3245 23.366 19.9025 22.0106C18.3951 20.5733 16.4263 19.7822 14.3459 19.7744L9.45109 6.32719C10.6401 5.11006 11.2053 3.36586 10.9353 1.67766C10.8703 1.27226 10.6297 0.920042 10.2753 0.711714C9.92061 0.503073 9.4955 0.463973 9.10888 0.604735L1.63566 3.32489C1.24903 3.46565 0.948424 3.76876 0.81079 4.15663C0.673156 4.54389 0.715385 4.96836 0.926215 5.32089C1.80457 6.78732 3.35827 7.76015 5.05117 7.92844L9.85179 21.1191C8.90274 21.7494 8.08038 22.5846 7.44882 23.5887C7.27209 23.8696 7.35655 24.2403 7.63744 24.417C7.91803 24.5934 8.2887 24.509 8.46544 24.2284C10.819 20.4866 15.934 19.8867 19.0739 22.8799C20.3802 24.1255 21.1381 25.8024 21.2085 27.6023C21.2191 27.8801 21.419 28.114 21.6918 28.1682C24.3325 28.6918 26.2493 31.0294 26.2496 33.7261C26.2496 34.0577 26.5183 34.3267 26.8502 34.3267H28.4058C29.3395 34.3267 30.099 35.0862 30.099 36.0196V37.2317H1.20117V36.0196C1.20117 35.0862 1.96066 34.3267 2.89407 34.3267H4.03362C4.36519 34.3267 4.6342 34.0577 4.6342 33.7261C4.6342 32.1511 5.69461 30.7607 7.21297 30.345C7.52984 30.2583 7.71815 29.933 7.63557 29.6152C7.46008 28.9392 7.38845 28.2389 7.42255 27.5335C7.44319 27.1068 7.5045 26.6805 7.60429 26.2666C7.68218 25.9444 7.48354 25.6201 7.16136 25.5422C6.83885 25.4646 6.51447 25.6626 6.43659 25.9851C6.31928 26.4721 6.24734 26.9736 6.22294 27.4753C6.19197 28.1144 6.23514 28.75 6.3515 29.3722C4.79217 30.0131 3.68766 31.4539 3.47182 33.1255H2.89438C1.29845 33.1252 0 34.4236 0 36.0196V37.567C0 38.0444 0.388504 38.4325 0.865844 38.4325H30.4344C30.9117 38.4325 31.3002 38.0444 31.3002 37.567V36.0196C31.3002 34.4236 30.0017 33.1252 28.4058 33.1252ZM1.95691 4.70373C1.92093 4.64367 1.93251 4.58674 1.94252 4.55828C1.95284 4.5295 1.97974 4.47757 2.04637 4.45349L9.51959 1.73333C9.62125 1.69611 9.73199 1.76117 9.74919 1.86753C10.0664 3.8504 8.93465 5.80105 7.02184 6.49704C6.52761 6.6769 6.01305 6.76167 5.49348 6.7526C4.05114 6.72351 2.69607 5.93837 1.95691 4.70373ZM6.32054 7.9031C6.69809 7.85055 7.07002 7.75796 7.43287 7.62595C7.79604 7.49395 8.14043 7.32566 8.46294 7.12359L13.1006 19.8654C12.338 19.9805 11.6026 20.2038 10.9134 20.5242L6.32054 7.9031Z" fill="#0163BE"></path><path d="M19.0874 31.477C19.3361 31.3091 19.627 31.2202 19.9289 31.2202C20.7594 31.2202 21.435 31.8959 21.435 32.7264C21.435 33.0579 21.704 33.327 22.0356 33.327C22.3675 33.327 22.6362 33.0579 22.6362 32.7264C22.6362 31.2334 21.4219 30.019 19.9289 30.019C19.3865 30.019 18.8628 30.1789 18.4149 30.4817C18.1403 30.6675 18.068 31.0407 18.2535 31.3156C18.4393 31.5903 18.8125 31.6625 19.0874 31.477Z" fill="#0163BE"></path><path d="M8.28783 32.7513C8.08732 33.0156 8.13925 33.3922 8.40388 33.5924C8.51211 33.6747 8.63942 33.7144 8.7658 33.7144C8.94754 33.7144 9.12709 33.6325 9.24502 33.4764C9.50402 33.1348 9.89784 32.939 10.3261 32.939C10.657 32.939 10.9758 33.0594 11.2235 33.2784C11.4719 33.4983 11.8513 33.4748 12.0709 33.2264C12.2908 32.9781 12.2676 32.5986 12.019 32.3787C11.5516 31.9655 10.9504 31.7378 10.3261 31.7378C9.51872 31.7378 8.77581 32.1072 8.28783 32.7513Z" fill="#0163BE"></path><path d="M12.2391 26.6544C12.4674 26.6544 12.6855 26.5234 12.7862 26.3022C12.8541 26.1524 12.9507 26.0191 13.073 25.9065C13.5723 25.4464 14.3527 25.4786 14.8129 25.9778C15.0375 26.2215 15.4175 26.2371 15.6615 26.0126C15.9055 25.7876 15.9211 25.4079 15.6962 25.1639C14.7875 24.1776 13.2457 24.1145 12.2591 25.0231C12.0179 25.2456 11.8271 25.5086 11.6926 25.8055C11.5553 26.1076 11.6892 26.4636 11.991 26.6006C12.0717 26.6372 12.1559 26.6544 12.2391 26.6544Z" fill="#0163BE"></path></svg>