<svg xmlns="http://www.w3.org/2000/svg" xmlns:xlink="http://www.w3.org/1999/xlink" id="Layer_1" data-name="Layer 1" viewBox="0 0 2080.63 742.31"><defs><style>      .cls-1 {        fill: url(#linear-gradient-2);      }      .cls-2 {        fill: url(#linear-gradient-3);      }      .cls-3 {        fill: url(#linear-gradient);      }      .cls-4 {        fill: url(#linear-gradient-4);      }    </style><linearGradient id="linear-gradient" x1="207.58" y1="387.89" x2="814.23" y2="352.76" gradientUnits="userSpaceOnUse"><stop offset="0" stop-color="#0055af"></stop><stop offset="1" stop-color="#0086e3"></stop></linearGradient><linearGradient id="linear-gradient-2" x1="200.31" y1="262.39" x2="806.96" y2="227.26" xlink:href="#linear-gradient"></linearGradient><linearGradient id="linear-gradient-3" x1="207.31" y1="383.22" x2="813.96" y2="348.08" xlink:href="#linear-gradient"></linearGradient><linearGradient id="linear-gradient-4" x1="213.71" y1="493.72" x2="820.36" y2="458.58" xlink:href="#linear-gradient"></linearGradient></defs><g id="Logo"><g><path d="M730.62,309.51c8.05-14.11,19.04-25.1,32.98-32.98,13.94-7.88,29.56-11.82,46.88-11.82,20.26,0,38,5.19,53.24,15.58,15.23,10.39,25.88,24.76,31.94,43.11h-41.81c-4.16-8.66-10-15.15-17.53-19.48-7.53-4.33-16.23-6.49-26.1-6.49-10.56,0-19.96,2.47-28.18,7.4-8.23,4.93-14.63,11.91-19.22,20.91-4.59,9-6.88,19.57-6.88,31.68s2.29,22.46,6.88,31.55c4.59,9.09,10.99,16.1,19.22,21.04,8.22,4.93,17.62,7.4,28.18,7.4,9.87,0,18.57-2.21,26.1-6.62s13.38-10.95,17.53-19.61h41.81c-6.06,18.53-16.67,32.94-31.81,43.24-15.15,10.3-32.94,15.45-53.37,15.45-17.32,0-32.94-3.94-46.88-11.82-13.94-7.88-24.93-18.83-32.98-32.85-8.05-14.02-12.08-29.95-12.08-47.79s4.03-33.8,12.08-47.92Z"></path><path d="M953.32,441.44c-11.08-6.14-19.78-14.84-26.1-26.1-6.32-11.25-9.48-24.24-9.48-38.96s3.25-27.7,9.74-38.96c6.49-11.25,15.36-19.95,26.62-26.1,11.25-6.14,23.8-9.22,37.66-9.22s26.4,3.08,37.66,9.22c11.25,6.15,20.13,14.85,26.62,26.1,6.49,11.26,9.74,24.24,9.74,38.96s-3.34,27.7-10,38.96c-6.67,11.26-15.67,19.96-27.01,26.1-11.34,6.15-24.02,9.22-38.05,9.22s-26.32-3.07-37.4-9.22Zm55.97-27.27c5.8-3.2,10.43-8.01,13.89-14.41,3.46-6.4,5.19-14.2,5.19-23.37,0-13.68-3.6-24.19-10.78-31.56-7.19-7.36-15.97-11.04-26.36-11.04s-19.09,3.68-26.1,11.04c-7.01,7.36-10.52,17.88-10.52,31.56s3.42,24.2,10.26,31.55c6.84,7.36,15.45,11.04,25.84,11.04,6.58,0,12.77-1.6,18.57-4.8Z"></path><path d="M1213.81,318.6c10.56,10.82,15.84,25.93,15.84,45.32v84.41h-36.36v-79.47c0-11.43-2.86-20.21-8.57-26.36-5.71-6.14-13.5-9.22-23.37-9.22s-17.96,3.08-23.76,9.22c-5.8,6.15-8.7,14.93-8.7,26.36v79.47h-36.36v-143.88h36.36v17.92c4.85-6.23,11.04-11.12,18.57-14.67,7.53-3.55,15.8-5.32,24.8-5.32,17.14,0,30.99,5.41,41.55,16.23Z"></path><path d="M1287.56,444.3c-9.35-4.24-16.75-10-22.21-17.27-5.45-7.27-8.44-15.32-8.96-24.15h36.62c.69,5.54,3.42,10.13,8.18,13.76,4.76,3.64,10.69,5.45,17.79,5.45s12.34-1.38,16.23-4.16c3.9-2.77,5.84-6.32,5.84-10.65,0-4.67-2.38-8.18-7.14-10.52-4.76-2.34-12.34-4.89-22.72-7.66-10.74-2.6-19.52-5.28-26.36-8.05-6.84-2.77-12.73-7.01-17.66-12.73-4.93-5.71-7.4-13.42-7.4-23.11,0-7.96,2.29-15.23,6.88-21.82,4.58-6.58,11.17-11.77,19.74-15.58,8.57-3.81,18.66-5.71,30.26-5.71,17.14,0,30.82,4.29,41.03,12.86,10.21,8.57,15.84,20.13,16.88,34.67h-34.8c-.52-5.71-2.9-10.26-7.14-13.63-4.24-3.38-9.91-5.06-17.01-5.06-6.58,0-11.65,1.21-15.19,3.64-3.55,2.43-5.32,5.8-5.32,10.13,0,4.85,2.42,8.53,7.27,11.04,4.84,2.51,12.38,5.06,22.59,7.66,10.39,2.6,18.96,5.28,25.71,8.05,6.75,2.77,12.6,7.06,17.53,12.86,4.93,5.8,7.49,13.46,7.66,22.98,0,8.31-2.3,15.76-6.88,22.33-4.59,6.58-11.17,11.73-19.74,15.45-8.57,3.72-18.57,5.58-30,5.58s-22.33-2.12-31.68-6.36Z"></path><path d="M1448.07,334.31v69.6c0,4.85,1.17,8.36,3.51,10.52,2.34,2.17,6.27,3.25,11.82,3.25h16.88v30.65h-22.85c-30.65,0-45.97-14.89-45.97-44.67v-69.34h-17.14v-29.87h17.14v-35.58h36.62v35.58h32.2v29.87h-32.2Z"></path><path d="M1561.16,308.86c7.53-4.33,16.14-6.49,25.84-6.49v38.18h-9.61c-11.43,0-20.04,2.69-25.84,8.05-5.8,5.37-8.7,14.72-8.7,28.05v71.68h-36.36v-143.88h36.36v22.34c4.67-7.62,10.78-13.59,18.31-17.92Z"></path><path d="M1747.25,304.44v143.88h-36.62v-18.18c-4.67,6.23-10.78,11.13-18.31,14.67-7.53,3.55-15.71,5.32-24.54,5.32-11.26,0-21.21-2.38-29.87-7.14-8.66-4.76-15.45-11.77-20.39-21.04-4.93-9.26-7.4-20.3-7.4-33.11v-84.41h36.36v79.21c0,11.43,2.86,20.22,8.57,26.36,5.71,6.15,13.5,9.22,23.37,9.22s17.92-3.07,23.63-9.22c5.71-6.14,8.57-14.93,8.57-26.36v-79.21h36.62Z"></path><path d="M1782.82,337.3c6.06-11.17,14.46-19.82,25.19-25.97,10.73-6.14,23.02-9.22,36.88-9.22,17.83,0,32.59,4.46,44.28,13.38,11.69,8.92,19.52,21.43,23.5,37.53h-39.22c-2.08-6.23-5.58-11.12-10.52-14.67-4.93-3.55-11.04-5.32-18.31-5.32-10.39,0-18.61,3.77-24.67,11.3-6.06,7.53-9.09,18.22-9.09,32.07s3.03,24.28,9.09,31.81c6.06,7.53,14.28,11.3,24.67,11.3,14.71,0,24.32-6.58,28.83-19.74h39.22c-3.99,15.58-11.86,27.96-23.63,37.14-11.78,9.18-26.49,13.76-44.15,13.76-13.85,0-26.15-3.07-36.88-9.22-10.74-6.14-19.13-14.8-25.19-25.97-6.06-11.17-9.09-24.19-9.09-39.09s3.03-27.92,9.09-39.09Z"></path><path d="M1981.76,334.31v69.6c0,4.85,1.17,8.36,3.51,10.52,2.34,2.17,6.27,3.25,11.82,3.25h16.88v30.65h-22.85c-30.65,0-45.97-14.89-45.97-44.67v-69.34h-17.14v-29.87h17.14v-35.58h36.62v35.58h32.2v29.87h-32.2Z"></path></g><g><path d="M1390.54,499.48v31.48h34.31v10.13h-34.31v32.42h38.37v10.13h-50.66v-94.3h50.66v10.13h-38.37Z"></path><path d="M1458.49,581.96c-4.5-1.94-8.06-4.64-10.67-8.11-2.61-3.47-4.05-7.45-4.32-11.96h12.7c.36,3.69,2.09,6.71,5.2,9.05,3.11,2.34,7.18,3.51,12.23,3.51,4.68,0,8.38-1.03,11.08-3.11,2.7-2.07,4.05-4.68,4.05-7.84s-1.44-5.65-4.32-7.23c-2.88-1.57-7.34-3.13-13.38-4.66-5.49-1.44-9.98-2.91-13.44-4.39-3.47-1.49-6.44-3.69-8.92-6.62-2.48-2.93-3.71-6.78-3.71-11.55,0-3.78,1.12-7.25,3.38-10.4,2.25-3.15,5.45-5.65,9.59-7.5,4.14-1.84,8.87-2.77,14.19-2.77,8.19,0,14.81,2.07,19.86,6.21,5.04,4.14,7.74,9.82,8.11,17.02h-12.29c-.27-3.87-1.82-6.98-4.66-9.32-2.84-2.34-6.64-3.51-11.42-3.51-4.41,0-7.93,.95-10.54,2.84-2.61,1.89-3.92,4.37-3.92,7.43,0,2.43,.79,4.44,2.36,6.01,1.58,1.58,3.56,2.84,5.94,3.78,2.39,.95,5.7,2,9.93,3.17,5.31,1.44,9.64,2.86,12.97,4.25,3.33,1.4,6.19,3.49,8.58,6.28,2.39,2.79,3.62,6.44,3.72,10.94,0,4.05-1.13,7.7-3.38,10.94-2.25,3.24-5.43,5.79-9.52,7.63-4.1,1.84-8.8,2.77-14.12,2.77-5.67,0-10.76-.97-15.27-2.9Z"></path><path d="M1533.06,519.74v43.64c0,3.6,.76,6.15,2.3,7.63,1.53,1.49,4.19,2.23,7.97,2.23h9.05v10.4h-11.08c-6.84,0-11.98-1.58-15.4-4.73-3.42-3.15-5.13-8.33-5.13-15.54v-43.64h-9.59v-10.13h9.59v-18.64h12.29v18.64h19.32v10.13h-19.32Z"></path><path d="M1567.65,495.16c-1.62-1.62-2.43-3.6-2.43-5.94s.81-4.32,2.43-5.94,3.6-2.43,5.94-2.43,4.17,.81,5.74,2.43c1.58,1.62,2.36,3.6,2.36,5.94s-.79,4.32-2.36,5.94c-1.58,1.62-3.49,2.43-5.74,2.43s-4.32-.81-5.94-2.43Zm11.89,14.46v74.03h-12.29v-74.03h12.29Z"></path><path d="M1704.9,511.84c4.5,2.39,8.06,5.97,10.67,10.74,2.61,4.77,3.92,10.58,3.92,17.43v43.64h-12.16v-41.88c0-7.38-1.82-13.04-5.47-16.96s-8.58-5.88-14.79-5.88-11.48,2.05-15.27,6.15c-3.78,4.1-5.67,10.02-5.67,17.77v40.8h-12.16v-41.88c0-7.38-1.82-13.04-5.47-16.96s-8.58-5.88-14.79-5.88-11.48,2.05-15.27,6.15c-3.78,4.1-5.67,10.02-5.67,17.77v40.8h-12.29v-74.03h12.29v10.67c2.43-3.87,5.7-6.84,9.79-8.92,4.1-2.07,8.62-3.11,13.58-3.11,6.21,0,11.71,1.4,16.48,4.19,4.77,2.79,8.33,6.89,10.67,12.29,2.07-5.22,5.49-9.28,10.27-12.16,4.77-2.88,10.09-4.32,15.94-4.32s10.9,1.19,15.4,3.58Z"></path><path d="M1739.62,526.43c3.06-5.72,7.27-10.15,12.63-13.31,5.36-3.15,11.33-4.73,17.9-4.73s12.11,1.4,16.89,4.19c4.77,2.79,8.33,6.3,10.67,10.54v-13.51h12.43v74.03h-12.43v-13.78c-2.43,4.32-6.06,7.9-10.88,10.74-4.82,2.84-10.43,4.26-16.82,4.26s-12.52-1.62-17.83-4.86c-5.32-3.24-9.5-7.79-12.56-13.64-3.06-5.85-4.59-12.52-4.59-20s1.53-14.21,4.59-19.93Zm54.71,5.47c-2.25-4.14-5.29-7.32-9.12-9.52-3.83-2.21-8.04-3.31-12.63-3.31s-8.78,1.08-12.56,3.24c-3.78,2.16-6.8,5.32-9.05,9.46-2.25,4.14-3.38,9.01-3.38,14.59s1.12,10.61,3.38,14.79c2.25,4.19,5.27,7.39,9.05,9.59,3.78,2.21,7.97,3.31,12.56,3.31s8.8-1.1,12.63-3.31c3.83-2.21,6.87-5.4,9.12-9.59,2.25-4.19,3.38-9.07,3.38-14.66s-1.13-10.45-3.38-14.59Z"></path><path d="M1845.94,519.74v43.64c0,3.6,.76,6.15,2.3,7.63,1.53,1.49,4.19,2.23,7.97,2.23h9.05v10.4h-11.08c-6.84,0-11.98-1.58-15.4-4.73-3.42-3.15-5.13-8.33-5.13-15.54v-43.64h-9.59v-10.13h9.59v-18.64h12.29v18.64h19.32v10.13h-19.32Z"></path><path d="M1947.27,551.22h-59.17c.45,7.29,2.95,12.99,7.5,17.09,4.55,4.1,10.06,6.15,16.55,6.15,5.31,0,9.75-1.24,13.31-3.71,3.56-2.48,6.06-5.79,7.5-9.93h13.24c-1.98,7.12-5.94,12.9-11.89,17.36s-13.33,6.69-22.16,6.69c-7.03,0-13.31-1.57-18.85-4.73-5.54-3.15-9.88-7.63-13.04-13.44-3.15-5.81-4.73-12.54-4.73-20.2s1.53-14.37,4.59-20.13c3.06-5.76,7.36-10.2,12.9-13.31,5.54-3.11,11.91-4.66,19.12-4.66s13.24,1.53,18.64,4.59c5.4,3.06,9.57,7.27,12.5,12.63,2.93,5.36,4.39,11.42,4.39,18.17,0,2.34-.14,4.82-.41,7.43Zm-15.4-22.09c-2.07-3.38-4.89-5.94-8.44-7.7-3.56-1.76-7.5-2.63-11.82-2.63-6.21,0-11.51,1.98-15.87,5.94-4.37,3.96-6.87,9.46-7.5,16.48h46.74c0-4.68-1.04-8.71-3.11-12.09Z"></path><path d="M1974.82,581.96c-4.5-1.94-8.06-4.64-10.67-8.11-2.61-3.47-4.05-7.45-4.32-11.96h12.7c.36,3.69,2.09,6.71,5.2,9.05,3.11,2.34,7.18,3.51,12.23,3.51,4.68,0,8.38-1.03,11.08-3.11,2.7-2.07,4.05-4.68,4.05-7.84s-1.44-5.65-4.32-7.23c-2.88-1.57-7.34-3.13-13.38-4.66-5.49-1.44-9.98-2.91-13.44-4.39-3.47-1.49-6.44-3.69-8.92-6.62-2.48-2.93-3.71-6.78-3.71-11.55,0-3.78,1.12-7.25,3.38-10.4,2.25-3.15,5.45-5.65,9.59-7.5,4.14-1.84,8.87-2.77,14.19-2.77,8.19,0,14.81,2.07,19.86,6.21,5.04,4.14,7.74,9.82,8.11,17.02h-12.29c-.27-3.87-1.82-6.98-4.66-9.32-2.84-2.34-6.64-3.51-11.42-3.51-4.41,0-7.93,.95-10.54,2.84-2.61,1.89-3.92,4.37-3.92,7.43,0,2.43,.79,4.44,2.36,6.01,1.58,1.58,3.56,2.84,5.94,3.78,2.39,.95,5.7,2,9.93,3.17,5.31,1.44,9.64,2.86,12.97,4.25,3.33,1.4,6.19,3.49,8.58,6.28,2.39,2.79,3.62,6.44,3.72,10.94,0,4.05-1.13,7.7-3.38,10.94-2.25,3.24-5.43,5.79-9.52,7.63-4.1,1.84-8.8,2.77-14.12,2.77-5.67,0-10.76-.97-15.27-2.9Z"></path></g><g id="Logo-2" data-name="Logo"><path class="cls-3" d="M913.2,699.38s-435.67-142.89-880.69,0c0,0,38.35-62.79,262.57-92.04,9.76-106.36,130.92-104.86,130.92-104.86v93.34c11.12-.55,22.05-.95,32.79-1.22V20.98l128.83,111.56v84.33h-39.66v378.59c13.59,.62,26.81,1.45,39.66,2.48V216.87l63.24,51.53v336.51c177.9,25.06,267.45,85.93,262.33,94.48Z"></path><path class="cls-1" d="M426.01,167.68s-138.19-2.34-131.17,170.99c0,0,46.99-89.16,131.17-76.67v-94.31Z"></path><path class="cls-2" d="M426.01,280.74s-111.23-1.56-131.43,99.94v87.45s-1.16-92.13,131.43-103.06v-84.33Z"></path><path class="cls-4" d="M426.01,391.61s-111.23-1.56-131.43,99.94v87.45s-1.16-92.13,131.43-103.06v-84.33Z"></path></g></g></svg>