<svg xmlns="http://www.w3.org/2000/svg" width="198" height="167" viewBox="0 0 198 167" fill="none"><path d="M13.3903 114.604L30.2524 122.019C39.2649 125.982 49.6785 120.902 52.1052 111.358L53.943 104.131C56.2022 95.2461 67.312 92.2579 73.7211 98.8112V98.8112C78.6334 103.834 86.826 103.449 91.2458 97.987L93.1038 95.691C98.2101 89.3808 107.811 89.3207 112.996 95.5663V95.5663C118.808 102.568 129.853 101.484 134.194 93.4854L144.433 74.6198C146.957 69.9697 150.773 66.15 155.42 63.6221L189.024 45.3423" stroke="white" stroke-opacity="0.6" stroke-width="0.5" stroke-dasharray="5 5"></path><path d="M2.61622 111.279C6.36296 114.513 10.97 119.27 13.1942 123.365L13.1714 114.986L18.4261 108.46C13.9758 110.211 7.56196 111.097 2.61622 111.279Z" fill="white" fill-opacity="0.6"></path><path d="M194.696 42.7935C189.755 43.0775 183.137 42.8663 178.691 41.4727L184.536 47.4758L185.3 55.8201C187.279 51.4656 191.27 46.3655 194.696 42.7935Z" fill="white" fill-opacity="0.6"></path></svg>