<svg xmlns="http://www.w3.org/2000/svg" width="44" height="36" viewBox="0 0 44 36" fill="none"><path d="M4.50637 19.9887H8.00064V26.151C8.00064 26.4382 8.23347 26.671 8.52064 26.671C8.80781 26.671 9.04064 26.4382 9.04064 26.151V19.9887H10.5869V23.5817C10.5869 23.8689 10.8198 24.1017 11.1069 24.1017C11.3941 24.1017 11.6269 23.8689 11.6269 23.5817V19.9887H12.5346C13.0325 19.9887 13.5094 19.7766 13.8428 19.4068C14.1759 19.0369 14.3376 18.5409 14.2861 18.0458L13.3652 9.18524C13.2715 8.28515 12.5186 7.60645 11.6137 7.60645H5.42755C4.52262 7.60645 3.76953 8.28515 3.67585 9.18537L2.75493 18.0459C2.70363 18.5412 2.86538 19.0373 3.19875 19.407C3.53212 19.7767 4.0087 19.9887 4.50637 19.9887ZM3.78934 18.1532L4.71026 9.29294C4.74861 8.92439 5.05684 8.6465 5.42755 8.6465H11.6137C11.9842 8.6465 12.2924 8.92439 12.3308 9.29281L13.2517 18.1534C13.273 18.359 13.2085 18.5568 13.0701 18.7104C12.9318 18.8642 12.7416 18.9487 12.5346 18.9487H4.50637C4.29969 18.9487 4.1095 18.8642 3.97113 18.7107C3.8325 18.5569 3.76802 18.359 3.78934 18.1532Z" fill="#0163BE"></path><path d="M8.81007 27.641C8.78162 27.6202 8.7504 27.6046 8.71917 27.5915C8.68795 27.5786 8.65417 27.5682 8.62295 27.5629C8.5554 27.55 8.48507 27.55 8.41755 27.5629C8.38632 27.5681 8.35255 27.5786 8.32132 27.5915C8.29009 27.6046 8.25887 27.6202 8.23297 27.641C8.20427 27.6592 8.17585 27.68 8.15248 27.706C8.12887 27.7294 8.10804 27.7554 8.08748 27.784C8.0692 27.8125 8.05344 27.8411 8.04049 27.8723C8.02755 27.9061 8.01715 27.9373 8.01205 27.9711C8.00417 28.005 8.00165 28.0388 8.00165 28.0725C8.00165 28.1063 8.0042 28.1402 8.01205 28.1739C8.01712 28.2077 8.02755 28.2389 8.04049 28.2702C8.05344 28.3013 8.0692 28.3325 8.08748 28.3611C8.10804 28.3898 8.12887 28.4158 8.15248 28.4391C8.17582 28.4652 8.20427 28.486 8.23297 28.5041C8.25887 28.5223 8.29009 28.5406 8.32132 28.5535C8.35255 28.5665 8.38632 28.5743 8.41755 28.5821C8.45132 28.59 8.48509 28.5925 8.52165 28.5925C8.55542 28.5925 8.5892 28.5899 8.62295 28.5821C8.65417 28.5743 8.68795 28.5665 8.71917 28.5535C8.7504 28.5406 8.78162 28.5223 8.81007 28.5041C8.83877 28.486 8.86467 28.4652 8.88802 28.4391C8.91162 28.4158 8.935 28.3898 8.95302 28.3611C8.97129 28.3325 8.98705 28.3013 9 28.2702C9.01295 28.2389 9.02335 28.2077 9.03122 28.1739C9.03629 28.1402 9.04162 28.1063 9.04162 28.0725C9.04162 27.9348 8.98424 27.8021 8.88802 27.706C8.86467 27.68 8.83877 27.6592 8.81007 27.641Z" fill="#0163BE"></path><path d="M27.9721 23.9617C28.0008 23.98 28.0292 23.9956 28.0605 24.0085C28.0917 24.0215 28.1255 24.0319 28.1592 24.0398C28.193 24.045 28.227 24.0475 28.2608 24.0475C28.3984 24.0475 28.5312 23.9929 28.6274 23.8967C28.7234 23.8006 28.7808 23.6654 28.7808 23.5275C28.7808 23.3923 28.7234 23.2571 28.6274 23.1609C28.5078 23.0413 28.3283 22.9841 28.1592 23.0179C28.1255 23.0258 28.0917 23.0361 28.0605 23.0491C28.0292 23.0621 28.0008 23.0777 27.9721 23.0959C27.9434 23.1141 27.9175 23.1375 27.8916 23.1609C27.868 23.1843 27.8475 23.2104 27.8266 23.2389C27.8083 23.2675 27.7929 23.2987 27.7796 23.33C27.7667 23.3611 27.7563 23.395 27.7512 23.4261C27.7433 23.46 27.7408 23.4937 27.7408 23.5275C27.7408 23.6654 27.7954 23.8006 27.8916 23.8967C27.9175 23.9202 27.9434 23.9409 27.9721 23.9617Z" fill="#0163BE"></path><path d="M42.8147 34.3413H38.5095V32.2881H39.0556C40.268 32.2881 41.2545 31.3017 41.2545 30.0893V25.5134C41.2545 24.6734 40.9028 23.8622 40.2899 23.2877C39.8561 22.8811 39.3282 22.6203 38.7596 22.5165V18.9454C38.7596 17.01 37.1851 15.4355 35.2498 15.4355H21.2705C19.3352 15.4355 17.7608 17.01 17.7608 18.9454V22.5172C17.1929 22.6211 16.6641 22.8813 16.2305 23.2877C15.6176 23.8622 15.2659 24.6734 15.2659 25.5134V30.0893C15.2659 31.3017 16.2523 32.2881 17.4647 32.2881H18.0109V34.3413H12.3125V32.5554C12.3125 32.2683 12.0796 32.0354 11.7925 32.0354H9.04061V29.8644C9.04061 29.5772 8.80778 29.3444 8.52061 29.3444C8.23344 29.3444 8.00061 29.5772 8.00061 29.8644V32.0354H4.62571C4.33854 32.0354 4.10571 32.2683 4.10571 32.5554V34.3413H1.18528C0.898113 34.3413 0.665283 34.5741 0.665283 34.8613C0.665283 35.1485 0.898113 35.3813 1.18528 35.3813H42.8147C43.1019 35.3813 43.3347 35.1485 43.3347 34.8613C43.3347 34.5741 43.1019 34.3413 42.8147 34.3413ZM37.4695 34.3413H35.7838V32.2881H37.4695V34.3413ZM34.7438 32.2881V34.3413H21.7766V32.2881H34.7438ZM21.2705 16.4755H27.7403V21.8044C27.7403 22.0916 27.9731 22.3244 28.2603 22.3244C28.5475 22.3244 28.7803 22.0916 28.7803 21.8044V16.4755H35.2498C36.6115 16.4755 37.7196 17.5835 37.7196 18.9454V22.5026C36.2603 22.7396 35.1546 24.0472 35.1546 25.6V26.8557H28.7796C28.7796 26.8533 28.7803 26.8511 28.7803 26.8486V25.3986C28.7803 25.1114 28.5475 24.8786 28.2603 24.8786C27.9731 24.8786 27.7403 25.1114 27.7403 25.3986V26.8486C27.7403 26.8511 27.741 26.8533 27.741 26.8557H21.366V25.6C21.366 24.0471 20.2603 22.7396 18.8008 22.5026V18.9454C18.8008 17.5835 19.9088 16.4755 21.2705 16.4755ZM16.3059 30.0893V25.5134C16.3059 24.9517 16.5316 24.4308 16.9417 24.0465C17.3182 23.6936 17.8014 23.5034 18.3148 23.5034C18.36 23.5034 18.4052 23.5048 18.4506 23.5077C19.5023 23.5758 20.326 24.4948 20.326 25.6001V27.3758C20.326 27.6629 20.5588 27.8958 20.846 27.8958H35.6746C35.9618 27.8958 36.1946 27.6629 36.1946 27.3758V25.6001C36.1946 24.4948 37.0183 23.5758 38.0697 23.5077C38.6321 23.4728 39.1689 23.6625 39.5787 24.0465C39.9887 24.4308 40.2145 24.9517 40.2145 25.5134V30.0893C40.2145 30.7282 39.6947 31.2481 39.0556 31.2481H17.4647C16.8256 31.2481 16.3059 30.7282 16.3059 30.0893ZM19.0509 32.2881H20.7366V34.3413H19.0509V32.2881ZM5.14571 33.0754H11.2725V34.3413H5.14571V33.0754Z" fill="#0163BE"></path><path d="M26.3634 11.4851C29.3592 11.4851 31.7967 9.04772 31.7967 6.05187C31.7967 3.05602 29.3592 0.618652 26.3634 0.618652C23.3675 0.618652 20.9303 3.05602 20.9303 6.05187C20.9303 9.04772 23.3675 11.4851 26.3634 11.4851ZM26.3634 1.65865C28.7859 1.65865 30.7567 3.62948 30.7567 6.05187C30.7567 8.47427 28.7859 10.4451 26.3634 10.4451C23.9411 10.4451 21.9703 8.47427 21.9703 6.05187C21.9703 3.62948 23.9411 1.65865 26.3634 1.65865Z" fill="#0163BE"></path><path d="M26.3634 6.5718H28.5891C28.8763 6.5718 29.1091 6.33897 29.1091 6.0518C29.1091 5.76463 28.8763 5.5318 28.5891 5.5318H26.8834V3.17186C26.8834 2.88469 26.6505 2.65186 26.3634 2.65186C26.0762 2.65186 25.8434 2.88469 25.8434 3.17186V6.0518C25.8434 6.33897 26.0762 6.5718 26.3634 6.5718Z" fill="#0163BE"></path></svg>