<svg xmlns="http://www.w3.org/2000/svg" width="35" height="35" viewBox="0 0 35 35" fill="none"><path d="M18.6917 15.1073V21.0674" stroke="#0163BE" stroke-miterlimit="10" stroke-linecap="round" stroke-linejoin="round"></path><path d="M18.6917 3.17935V8.31689" stroke="#0163BE" stroke-miterlimit="10" stroke-linecap="round" stroke-linejoin="round"></path><mask id="mask0_1_1176" style="mask-type:luminance" maskUnits="userSpaceOnUse" x="0" y="0" width="35" height="35"><path d="M0 3.8147e-06H35V35H0V3.8147e-06Z" fill="white"></path></mask><g mask="url(#mask0_1_1176)"><path d="M0.512695 10.4136V3.17965" stroke="#0163BE" stroke-miterlimit="10" stroke-linecap="round" stroke-linejoin="round"></path><path d="M8.55914 28.0327C4.0304 27.8809 0.512695 26.7526 0.512695 25.3833V13.5121" stroke="#0163BE" stroke-miterlimit="10" stroke-linecap="round" stroke-linejoin="round"></path><path d="M18.6917 3.17936C18.6917 4.65216 14.6222 5.84619 9.60221 5.84619C4.58224 5.84619 0.512665 4.65216 0.512665 3.17936C0.512665 1.70655 4.58224 0.512588 9.60221 0.512588C14.6222 0.512588 18.6917 1.70655 18.6917 3.17936Z" stroke="#0163BE" stroke-miterlimit="10" stroke-linecap="round" stroke-linejoin="round"></path><path d="M22.0541 10.7898L15.6842 18.1631" stroke="#0163BE" stroke-miterlimit="10" stroke-linecap="round" stroke-linejoin="round"></path><path d="M15.5715 10.2744L20.6993 7.19578" stroke="#0163BE" stroke-miterlimit="10" stroke-linecap="round" stroke-linejoin="round"></path><path d="M22.4383 9.1811C22.4383 10.3992 21.8912 11.3867 21.2165 11.3867C20.5417 11.3867 19.9947 10.3992 19.9947 9.1811C19.9947 7.96301 20.5417 6.97556 21.2165 6.97556C21.8912 6.97556 22.4383 7.96301 22.4383 9.1811Z" stroke="#0163BE" stroke-miterlimit="10" stroke-linecap="round" stroke-linejoin="round"></path><path d="M3.64521 8.19059V18.7393" stroke="#0163BE" stroke-miterlimit="10" stroke-linecap="round" stroke-linejoin="round"></path><path d="M6.45402 16.1803V25.3345" stroke="#0163BE" stroke-miterlimit="10" stroke-linecap="round" stroke-linejoin="round"></path><path d="M6.45402 10.6874V13.5586" stroke="#0163BE" stroke-miterlimit="10" stroke-linecap="round" stroke-linejoin="round"></path><path d="M15.5942 15.7786V19.2188" stroke="#0163BE" stroke-miterlimit="10" stroke-linecap="round" stroke-linejoin="round"></path><path d="M9.60219 0.5129C15.0465 0.5129 15.7226 2.06083 15.0579 2.77662C14.3955 3.49009 12.3805 3.8999 9.57997 3.8999C7.46226 3.8999 4.891 3.57198 4.891 2.9227C4.891 2.32353 7.54566 2.06568 9.54196 2.07389" stroke="#0163BE" stroke-miterlimit="10" stroke-linecap="round" stroke-linejoin="round"></path><path d="M33.2098 22.9331C32.4869 21.8126 31.5146 21.1263 30.4453 21.1263H12.8989" stroke="#0163BE" stroke-miterlimit="10" stroke-linecap="round" stroke-linejoin="round"></path><path d="M12.8989 34.4873H30.4453C32.6776 34.4873 34.4873 31.4963 34.4873 27.8067C34.4873 27.0398 34.4091 26.3028 34.2652 25.6169" stroke="#0163BE" stroke-miterlimit="10" stroke-linecap="round" stroke-linejoin="round"></path><path d="M12.8249 21.1254C15.076 21.1254 16.9009 24.1166 16.9009 27.8063C16.9009 31.4961 15.076 34.4873 12.8249 34.4873C10.5737 34.4873 8.7488 31.4961 8.7488 27.8063C8.7488 24.1166 10.5737 21.1254 12.8249 21.1254Z" stroke="#0163BE" stroke-miterlimit="10" stroke-linecap="round" stroke-linejoin="round"></path><path d="M8.74876 27.8062C8.74876 23.8045 11.1147 23.3076 12.2087 23.7961C13.2992 24.2831 13.9256 25.7641 13.9256 27.8226C13.9256 29.3791 13.4243 31.269 12.4321 31.269C11.5163 31.269 11.1221 29.3178 11.1347 27.8505" stroke="#0163BE" stroke-miterlimit="10" stroke-linecap="round" stroke-linejoin="round"></path><path d="M18.6475 24.0435H26.8441" stroke="#0163BE" stroke-miterlimit="10" stroke-linecap="round" stroke-linejoin="round"></path><path d="M25.5463 26.8442H31.5571" stroke="#0163BE" stroke-miterlimit="10" stroke-linecap="round" stroke-linejoin="round"></path><path d="M20.9699 31.5571H27.8686" stroke="#0163BE" stroke-miterlimit="10" stroke-linecap="round" stroke-linejoin="round"></path></g></svg>