<svg xmlns="http://www.w3.org/2000/svg" width="36" height="36" viewBox="0 0 36 36" fill="none"><path d="M35.4375 22.5C35.2883 22.5 35.1452 22.5593 35.0398 22.6648C34.9343 22.7702 34.875 22.9133 34.875 23.0625C34.875 23.2117 34.8157 23.3548 34.7102 23.4602C34.6048 23.5657 34.4617 23.625 34.3125 23.625H26.4375C26.2883 23.625 26.1452 23.5657 26.0398 23.4602C25.9343 23.3548 25.875 23.2117 25.875 23.0625V19.6875C25.875 19.5383 25.9343 19.3952 26.0398 19.2898C26.1452 19.1843 26.2883 19.125 26.4375 19.125C26.5867 19.125 26.7298 19.0657 26.8352 18.9602C26.9407 18.8548 27 18.7117 27 18.5625C27 18.4133 26.9407 18.2702 26.8352 18.1648C26.7298 18.0593 26.5867 18 26.4375 18C26.021 18.0015 25.62 18.1579 25.3125 18.4387C25.005 18.1579 24.604 18.0015 24.1875 18H6.75C6.60082 18 6.45774 17.9407 6.35225 17.8352C6.24676 17.7298 6.1875 17.5867 6.1875 17.4375V14.0625C6.1875 13.9133 6.24676 13.7702 6.35225 13.6648C6.45774 13.5593 6.60082 13.5 6.75 13.5H16.3125C16.4617 13.5 16.6048 13.4407 16.7102 13.3352C16.8157 13.2298 16.875 13.0867 16.875 12.9375C16.875 12.7883 16.8157 12.6452 16.7102 12.5398C16.6048 12.4343 16.4617 12.375 16.3125 12.375H11.8125C11.6633 12.375 11.5202 12.3157 11.4148 12.2102C11.3093 12.1048 11.25 11.9617 11.25 11.8125V8.4375C11.25 8.28832 11.3093 8.14524 11.4148 8.03975C11.5202 7.93426 11.6633 7.875 11.8125 7.875H12.9375C13.0867 7.875 13.2298 7.81574 13.3352 7.71025C13.4407 7.60476 13.5 7.46168 13.5 7.3125C13.5 7.16332 13.4407 7.02024 13.3352 6.91475C13.2298 6.80926 13.0867 6.75 12.9375 6.75H11.8125C11.396 6.75146 10.995 6.90786 10.6875 7.18875C10.38 6.90786 9.97897 6.75146 9.5625 6.75H1.6875C1.23995 6.75 0.810725 6.92779 0.494257 7.24426C0.17779 7.56072 0 7.98995 0 8.4375L0 11.8125C0.00146456 12.229 0.157864 12.63 0.43875 12.9375C0.157864 13.245 0.00146456 13.646 0 14.0625L0 17.4375C0.00146456 17.854 0.157864 18.255 0.43875 18.5625C0.157864 18.87 0.00146456 19.271 0 19.6875L0 23.0625C0.00146456 23.479 0.157864 23.88 0.43875 24.1875C0.157864 24.495 0.00146456 24.896 0 25.3125L0 28.6875C0.00146456 29.104 0.157864 29.505 0.43875 29.8125C0.157864 30.12 0.00146456 30.521 0 30.9375L0 34.3125C0 34.7601 0.17779 35.1893 0.494257 35.5057C0.810725 35.8222 1.23995 36 1.6875 36H9.5625C9.97897 35.9985 10.38 35.8421 10.6875 35.5613C10.995 35.8421 11.396 35.9985 11.8125 36H24.1875C24.604 35.9985 25.005 35.8421 25.3125 35.5613C25.62 35.8421 26.021 35.9985 26.4375 36H34.3125C34.7601 36 35.1893 35.8222 35.5057 35.5057C35.8222 35.1893 36 34.7601 36 34.3125V30.9375C35.9985 30.521 35.8421 30.12 35.5613 29.8125C35.8421 29.505 35.9985 29.104 36 28.6875V25.3125C35.9985 24.896 35.8421 24.495 35.5613 24.1875C35.8421 23.88 35.9985 23.479 36 23.0625C36 22.9133 35.9407 22.7702 35.8352 22.6648C35.7298 22.5593 35.5867 22.5 35.4375 22.5ZM34.3125 24.75C34.4617 24.75 34.6048 24.8093 34.7102 24.9148C34.8157 25.0202 34.875 25.1633 34.875 25.3125V28.6875C34.875 28.8367 34.8157 28.9798 34.7102 29.0852C34.6048 29.1907 34.4617 29.25 34.3125 29.25H31.5C31.3508 29.25 31.2077 29.1907 31.1023 29.0852C30.9968 28.9798 30.9375 28.8367 30.9375 28.6875V25.3125C30.9375 25.1633 30.9968 25.0202 31.1023 24.9148C31.2077 24.8093 31.3508 24.75 31.5 24.75H34.3125ZM29.25 24.75C29.3992 24.75 29.5423 24.8093 29.6477 24.9148C29.7532 25.0202 29.8125 25.1633 29.8125 25.3125V28.6875C29.8125 28.8367 29.7532 28.9798 29.6477 29.0852C29.5423 29.1907 29.3992 29.25 29.25 29.25H21.375C21.2258 29.25 21.0827 29.1907 20.9773 29.0852C20.8718 28.9798 20.8125 28.8367 20.8125 28.6875V25.3125C20.8125 25.1633 20.8718 25.0202 20.9773 24.9148C21.0827 24.8093 21.2258 24.75 21.375 24.75H29.25ZM24.1875 19.125C24.3367 19.125 24.4798 19.1843 24.5852 19.2898C24.6907 19.3952 24.75 19.5383 24.75 19.6875V23.0625C24.75 23.2117 24.6907 23.3548 24.5852 23.4602C24.4798 23.5657 24.3367 23.625 24.1875 23.625H16.3125C16.1633 23.625 16.0202 23.6843 15.9148 23.7898C15.8093 23.8952 15.75 24.0383 15.75 24.1875C15.75 24.3367 15.8093 24.4798 15.9148 24.5852C16.0202 24.6907 16.1633 24.75 16.3125 24.75H19.125C19.2742 24.75 19.4173 24.8093 19.5227 24.9148C19.6282 25.0202 19.6875 25.1633 19.6875 25.3125V28.6875C19.6875 28.8367 19.6282 28.9798 19.5227 29.0852C19.4173 29.1907 19.2742 29.25 19.125 29.25H6.75C6.60082 29.25 6.45774 29.1907 6.35225 29.0852C6.24676 28.9798 6.1875 28.8367 6.1875 28.6875V25.3125C6.1875 25.1633 6.24676 25.0202 6.35225 24.9148C6.45774 24.8093 6.60082 24.75 6.75 24.75H14.0625C14.2117 24.75 14.3548 24.6907 14.4602 24.5852C14.5657 24.4798 14.625 24.3367 14.625 24.1875C14.625 24.0383 14.5657 23.8952 14.4602 23.7898C14.3548 23.6843 14.2117 23.625 14.0625 23.625H11.8125C11.6633 23.625 11.5202 23.5657 11.4148 23.4602C11.3093 23.3548 11.25 23.2117 11.25 23.0625V19.6875C11.25 19.5383 11.3093 19.3952 11.4148 19.2898C11.5202 19.1843 11.6633 19.125 11.8125 19.125H24.1875ZM1.125 28.6875V25.3125C1.125 25.1633 1.18426 25.0202 1.28975 24.9148C1.39524 24.8093 1.53832 24.75 1.6875 24.75H4.5C4.64918 24.75 4.79226 24.8093 4.89775 24.9148C5.00324 25.0202 5.0625 25.1633 5.0625 25.3125V28.6875C5.0625 28.8367 5.00324 28.9798 4.89775 29.0852C4.79226 29.1907 4.64918 29.25 4.5 29.25H1.6875C1.53832 29.25 1.39524 29.1907 1.28975 29.0852C1.18426 28.9798 1.125 28.8367 1.125 28.6875ZM9.5625 19.125C9.71168 19.125 9.85476 19.1843 9.96025 19.2898C10.0657 19.3952 10.125 19.5383 10.125 19.6875V23.0625C10.125 23.2117 10.0657 23.3548 9.96025 23.4602C9.85476 23.5657 9.71168 23.625 9.5625 23.625H1.6875C1.53832 23.625 1.39524 23.5657 1.28975 23.4602C1.18426 23.3548 1.125 23.2117 1.125 23.0625V19.6875C1.125 19.5383 1.18426 19.3952 1.28975 19.2898C1.39524 19.1843 1.53832 19.125 1.6875 19.125H9.5625ZM1.125 17.4375V14.0625C1.125 13.9133 1.18426 13.7702 1.28975 13.6648C1.39524 13.5593 1.53832 13.5 1.6875 13.5H4.5C4.64918 13.5 4.79226 13.5593 4.89775 13.6648C5.00324 13.7702 5.0625 13.9133 5.0625 14.0625V17.4375C5.0625 17.5867 5.00324 17.7298 4.89775 17.8352C4.79226 17.9407 4.64918 18 4.5 18H1.6875C1.53832 18 1.39524 17.9407 1.28975 17.8352C1.18426 17.7298 1.125 17.5867 1.125 17.4375ZM1.125 8.4375C1.125 8.28832 1.18426 8.14524 1.28975 8.03975C1.39524 7.93426 1.53832 7.875 1.6875 7.875H9.5625C9.71168 7.875 9.85476 7.93426 9.96025 8.03975C10.0657 8.14524 10.125 8.28832 10.125 8.4375V11.8125C10.125 11.9617 10.0657 12.1048 9.96025 12.2102C9.85476 12.3157 9.71168 12.375 9.5625 12.375H1.6875C1.53832 12.375 1.39524 12.3157 1.28975 12.2102C1.18426 12.1048 1.125 11.9617 1.125 11.8125V8.4375ZM9.5625 34.875H1.6875C1.53832 34.875 1.39524 34.8157 1.28975 34.7102C1.18426 34.6048 1.125 34.4617 1.125 34.3125V30.9375C1.125 30.7883 1.18426 30.6452 1.28975 30.5398C1.39524 30.4343 1.53832 30.375 1.6875 30.375H9.5625C9.71168 30.375 9.85476 30.4343 9.96025 30.5398C10.0657 30.6452 10.125 30.7883 10.125 30.9375V34.3125C10.125 34.4617 10.0657 34.6048 9.96025 34.7102C9.85476 34.8157 9.71168 34.875 9.5625 34.875ZM24.1875 34.875H11.8125C11.6633 34.875 11.5202 34.8157 11.4148 34.7102C11.3093 34.6048 11.25 34.4617 11.25 34.3125V30.9375C11.25 30.7883 11.3093 30.6452 11.4148 30.5398C11.5202 30.4343 11.6633 30.375 11.8125 30.375H24.1875C24.3367 30.375 24.4798 30.4343 24.5852 30.5398C24.6907 30.6452 24.75 30.7883 24.75 30.9375V34.3125C24.75 34.4617 24.6907 34.6048 24.5852 34.7102C24.4798 34.8157 24.3367 34.875 24.1875 34.875ZM34.875 34.3125C34.875 34.4617 34.8157 34.6048 34.7102 34.7102C34.6048 34.8157 34.4617 34.875 34.3125 34.875H26.4375C26.2883 34.875 26.1452 34.8157 26.0398 34.7102C25.9343 34.6048 25.875 34.4617 25.875 34.3125V30.9375C25.875 30.7883 25.9343 30.6452 26.0398 30.5398C26.1452 30.4343 26.2883 30.375 26.4375 30.375H34.3125C34.4617 30.375 34.6048 30.4343 34.7102 30.5398C34.8157 30.6452 34.875 30.7883 34.875 30.9375V34.3125Z" fill="#0163BE"></path><path d="M19.0125 16.1064C19.2068 16.5232 19.4997 16.8864 19.8658 17.1647C20.232 17.4429 20.6604 17.6278 21.114 17.7034C21.2801 17.7324 21.4483 17.7471 21.6169 17.7472C21.9906 17.7468 22.3605 17.6722 22.7051 17.5279C23.0498 17.3835 23.3625 17.1722 23.625 16.9063L25.8024 14.7289L27.4506 16.3764L27.0338 16.7932C26.9283 16.8987 26.8691 17.0418 26.8691 17.1909C26.8691 17.3401 26.9283 17.4831 27.0338 17.5886L31.1062 21.6605C31.6439 22.1982 32.3731 22.5003 33.1335 22.5003C33.8939 22.5003 34.6231 22.1982 35.1607 21.6605C35.6984 21.1229 36.0005 20.3937 36.0005 19.6333C36.0005 18.8729 35.6984 18.1437 35.1607 17.606L31.0888 13.5341C30.9833 13.4287 30.8403 13.3694 30.6911 13.3694C30.542 13.3694 30.3989 13.4287 30.2934 13.5341L29.8766 13.9509L28.2291 12.3028L30.4065 10.1248C30.7298 9.79971 30.9704 9.40188 31.1083 8.96464C31.2462 8.52741 31.2772 8.06349 31.1989 7.61177C31.1206 7.16005 30.9351 6.73369 30.6581 6.3684C30.381 6.00312 30.0205 5.70955 29.6066 5.51229L24.9908 3.32473C24.9238 3.29114 24.8508 3.27127 24.776 3.26629C24.7012 3.26131 24.6262 3.27131 24.5554 3.29572C24.4845 3.32013 24.4193 3.35844 24.3634 3.40842C24.3076 3.45839 24.2623 3.51902 24.2302 3.58673C24.1982 3.65445 24.1799 3.7279 24.1766 3.80275C24.1733 3.87761 24.185 3.95238 24.211 4.02265C24.237 4.09293 24.2768 4.15731 24.328 4.21201C24.3792 4.2667 24.4408 4.31062 24.5092 4.34117L29.1251 6.52761C29.3767 6.64751 29.5959 6.82598 29.7644 7.04805C29.9328 7.27013 30.0455 7.52935 30.0931 7.80398C30.1407 8.07861 30.1218 8.36064 30.0379 8.62645C29.9541 8.89226 29.8077 9.13408 29.6111 9.33167L27.4337 11.5091L26.2029 10.2784C25.8763 9.96674 25.4422 9.79289 24.9908 9.79289C24.5393 9.79289 24.1052 9.96674 23.7786 10.2784C23.6193 10.4376 23.493 10.6266 23.4068 10.8346C23.3206 11.0427 23.2763 11.2656 23.2763 11.4908C23.2763 11.716 23.3206 11.939 23.4068 12.147C23.493 12.3551 23.6193 12.5441 23.7786 12.7033L25.0093 13.934L22.8319 16.1109C22.6343 16.3075 22.3925 16.4539 22.1267 16.5377C21.8608 16.6216 21.5788 16.6405 21.3042 16.5929C21.0296 16.5453 20.7703 16.4326 20.5483 16.2642C20.3262 16.0957 20.1477 15.8765 20.0278 15.6249L14.7937 4.57292C14.6405 4.24833 14.5912 3.88437 14.6525 3.53071C14.7138 3.17705 14.8828 2.85093 15.1363 2.59686L16.0982 1.63498C16.352 1.38144 16.678 1.21256 17.0316 1.15144C17.3851 1.09031 17.7489 1.13995 18.0731 1.29354L22.2592 3.27636C22.3262 3.30995 22.3992 3.32982 22.474 3.3348C22.5488 3.33978 22.6238 3.32977 22.6946 3.30537C22.7655 3.28096 22.8307 3.24264 22.8866 3.19267C22.9424 3.1427 22.9877 3.08207 23.0198 3.01435C23.0518 2.94664 23.0701 2.87319 23.0734 2.79833C23.0767 2.72347 23.065 2.64871 23.039 2.57843C23.013 2.50815 22.9732 2.44378 22.922 2.38908C22.8708 2.33438 22.8092 2.29047 22.7408 2.25992L18.5546 0.275981C18.0205 0.0233235 17.4214 -0.0582381 16.8391 0.0424422C16.2569 0.143122 15.72 0.421133 15.3017 0.838481L14.3398 1.79979C13.9225 2.21807 13.6445 2.75501 13.5438 3.33724C13.4431 3.91948 13.5247 4.5186 13.7773 5.05273L19.0125 16.1064ZM34.3687 18.4031C34.5458 18.5611 34.6888 18.7536 34.7888 18.9688C34.8889 19.184 34.944 19.4174 34.9507 19.6546C34.9575 19.8918 34.9157 20.1279 34.828 20.3485C34.7403 20.569 34.6085 20.7693 34.4407 20.9371C34.2729 21.1049 34.0726 21.2367 33.8521 21.3244C33.6315 21.4121 33.3954 21.4539 33.1582 21.4471C32.921 21.4404 32.6876 21.3853 32.4724 21.2852C32.2572 21.1852 32.0647 21.0422 31.9067 20.8652L28.2324 17.1909L30.6945 14.7289L34.3687 18.4031ZM24.4013 11.4905C24.4011 11.374 24.4356 11.2599 24.5003 11.163C24.565 11.066 24.657 10.9904 24.7647 10.9457C24.8724 10.9011 24.9909 10.8894 25.1053 10.9122C25.2196 10.935 25.3246 10.9912 25.407 11.0737L29.0813 14.748L28.2482 15.581L24.5739 11.9068C24.519 11.8523 24.4755 11.7874 24.4459 11.716C24.4162 11.6445 24.4011 11.5679 24.4013 11.4905Z" fill="#0163BE"></path></svg>