<svg xmlns="http://www.w3.org/2000/svg" width="37" height="37" viewBox="0 0 37 37" fill="none"><mask id="mask0_1_1077" style="mask-type:luminance" maskUnits="userSpaceOnUse" x="0" y="0" width="37" height="37"><path d="M0 3.8147e-06H37V37H0V3.8147e-06Z" fill="white"></path></mask><g mask="url(#mask0_1_1077)"><path d="M20.0834 13.5498L20.6482 12.9861L22.1264 11.5113C22.8892 10.7502 22.8892 9.50358 22.1264 8.74248C21.3636 7.98131 20.1143 7.98131 19.3514 8.74248L17.3084 10.781" stroke="#0163BE" stroke-miterlimit="10" stroke-linecap="round" stroke-linejoin="round"></path><path d="M29.5875 17.5671C28.9195 16.9006 27.8248 16.9006 27.1568 17.5671L24.5612 20.1589C23.8932 20.8254 23.8932 21.9157 24.5612 22.5822C25.2291 23.2487 26.3219 23.2487 26.9899 22.5822L29.5875 19.9903C30.2555 19.3238 30.2555 18.2336 29.5875 17.5671Z" stroke="#0163BE" stroke-miterlimit="10" stroke-linecap="round" stroke-linejoin="round"></path><path d="M24.6417 14.5393C24.3819 14.7985 24.9158 14.2657 24.9241 14.2575C25.6641 13.4943 25.656 12.2663 24.9014 11.5113C24.1386 10.7502 22.8892 10.7502 22.1264 11.5113L21.1038 12.5316" stroke="#0163BE" stroke-miterlimit="10" stroke-linecap="round" stroke-linejoin="round"></path><path d="M24.3386 30.7568C24.2994 29.8249 24.4767 28.8828 24.8746 28.021L15.9065 19.0707M26.2209 23.0244L28.0516 24.851C30.2411 23.8471 32.9314 24.2421 34.7292 26.0358C36.1642 27.4676 36.7064 29.467 36.3539 31.3266C35.9847 33.2787 34.954 31.8018 34.7436 31.592L32.2263 29.0803C31.3461 28.2019 29.9297 28.1649 29.0041 28.9713C28.1959 29.8949 28.233 31.3081 29.1133 32.1865L31.6306 34.6982C31.8409 34.908 33.3212 35.9365 31.3647 36.3047C29.5009 36.6565 27.497 36.1155 26.0622 34.6837C25.6147 34.2353 25.2539 33.7334 24.9798 33.1986M14.3726 11.2045L12.1254 8.9602C13.1315 6.77561 12.7356 4.09116 10.9378 2.29746C9.503 0.86573 7.49915 0.324677 5.63534 0.676466C3.67882 1.04466 5.15911 2.07322 5.36941 2.283L7.88671 4.79467C8.76697 5.67306 8.80412 7.08628 7.99597 8.00984C7.07025 8.81625 5.65392 8.77918 4.77365 7.90086L2.25635 5.3892C2.04605 5.17934 1.01526 3.70237 0.646126 5.65456C0.293687 7.51417 0.835823 9.51361 2.2708 10.9453C4.06855 12.739 6.75893 13.134 8.94843 12.1302L11.3276 14.504" stroke="#0163BE" stroke-miterlimit="10" stroke-linecap="round" stroke-linejoin="round"></path><path d="M10.4225 28.4654L13.5314 31.5674C14.0118 32.0467 14.0118 32.8304 13.5314 33.3098L10.7668 36.0683C10.2864 36.5476 9.50095 36.5476 9.0206 36.0683L1.38631 28.451C0.905965 27.9716 0.905965 27.1879 1.38631 26.7086L4.15098 23.9501C4.63133 23.4708 5.41679 23.4708 5.89721 23.9501L8.63094 26.6778" stroke="#0163BE" stroke-miterlimit="10" stroke-linecap="round" stroke-linejoin="round"></path><path d="M13.5315 31.5674L17.2135 27.8935C18.5928 26.5173 18.8608 26.8135 20.4895 27.046C21.2193 27.1509 22.2604 26.7621 23.0975 26.2478" stroke="#0163BE" stroke-miterlimit="10" stroke-linecap="round" stroke-linejoin="round"></path><path d="M27.1568 14.7984C26.394 14.0373 25.1447 14.0373 24.3819 14.7984L22.347 16.8287C21.5821 17.5919 21.5821 18.8364 22.347 19.5975C23.1098 20.3607 24.3591 20.3607 25.122 19.5975L27.1568 17.5672C27.9217 16.8061 27.9217 15.5595 27.1568 14.7984Z" stroke="#0163BE" stroke-miterlimit="10" stroke-linecap="round" stroke-linejoin="round"></path><path d="M22.5985 16.5798C22.6542 16.0388 21.7595 15.2221 20.8399 14.3046L16.7971 10.2707C16.3889 9.86346 15.7167 9.86346 15.3066 10.2728L11.9687 13.6032C11.21 14.3602 10.8698 15.4731 10.9297 16.4728C11.0224 18.0032 10.309 19.5502 8.19383 21.6587L5.89722 23.9502M15.8962 14.9094C15.9312 14.9464 17.2981 16.3083 17.3331 16.3432C18.4154 17.3882 20.5987 18.2891 22.0068 17.2854" stroke="#0163BE" stroke-miterlimit="10" stroke-linecap="round" stroke-linejoin="round"></path><path d="M15.8962 14.9094C17.1021 16.1127 16.7682 18.3961 15.1519 20.0088" stroke="#0163BE" stroke-miterlimit="10" stroke-linecap="round" stroke-linejoin="round"></path></g></svg>