<svg xmlns="http://www.w3.org/2000/svg" width="36" height="30" viewBox="0 0 36 30" fill="none"><path d="M32.8184 9.70654H35.4727" stroke="#0163BE" stroke-width="0.9" stroke-miterlimit="10" stroke-linecap="round" stroke-linejoin="round"></path><path d="M6.45961 28.5966H9.93094V23.0693H0.527344V28.5966H3.99867" stroke="#0163BE" stroke-width="0.9" stroke-miterlimit="10" stroke-linecap="round" stroke-linejoin="round"></path><path d="M0.527344 23.0693L3.18009 20.4165" stroke="#0163BE" stroke-width="0.9" stroke-miterlimit="10" stroke-linecap="round" stroke-linejoin="round"></path><path d="M9.93094 28.5964L12.6176 25.9097" stroke="#0163BE" stroke-width="0.9" stroke-miterlimit="10" stroke-linecap="round" stroke-linejoin="round"></path><path d="M12.7062 20.2939L9.93094 23.0693" stroke="#0163BE" stroke-width="0.9" stroke-miterlimit="10" stroke-linecap="round" stroke-linejoin="round"></path><path d="M22.1098 23.0693H12.7062V28.5963H22.1098V23.0693Z" stroke="#0163BE" stroke-width="0.9" stroke-miterlimit="10" stroke-linecap="round" stroke-linejoin="round"></path><path d="M12.7062 23.069L15.4379 20.3374" stroke="#0163BE" stroke-width="0.9" stroke-miterlimit="10" stroke-linecap="round" stroke-linejoin="round"></path><path d="M22.1098 23.0694L35.4727 9.70654V15.2338L27.6497 23.0575" stroke="#0163BE" stroke-width="0.9" stroke-miterlimit="10" stroke-linecap="round" stroke-linejoin="round"></path><path d="M25.9095 24.7974L22.1098 28.5963" stroke="#0163BE" stroke-width="0.9" stroke-miterlimit="10" stroke-linecap="round" stroke-linejoin="round"></path><path d="M9.93094 14.7666H0.527344V20.2939H9.93094V14.7666Z" stroke="#0163BE" stroke-width="0.9" stroke-miterlimit="10" stroke-linecap="round" stroke-linejoin="round"></path><path d="M5.60391 9.69014L13.8902 1.40381H23.2938" stroke="#0163BE" stroke-width="0.9" stroke-miterlimit="10" stroke-linecap="round" stroke-linejoin="round"></path><path d="M3.86367 11.4302L0.527344 14.7665" stroke="#0163BE" stroke-width="0.9" stroke-miterlimit="10" stroke-linecap="round" stroke-linejoin="round"></path><path d="M9.93094 20.2941L12.6176 17.6074" stroke="#0163BE" stroke-width="0.9" stroke-miterlimit="10" stroke-linecap="round" stroke-linejoin="round"></path><path d="M9.93094 14.7667L23.2938 1.40381V3.93154" stroke="#0163BE" stroke-width="0.9" stroke-miterlimit="10" stroke-linecap="round" stroke-linejoin="round"></path><path d="M22.1098 14.7671H12.7062V20.2941H22.1098V14.7671Z" stroke="#0163BE" stroke-width="0.9" stroke-miterlimit="10" stroke-linecap="round" stroke-linejoin="round"></path><path d="M20.3063 7.16732L26.0691 1.40381H35.4727" stroke="#0163BE" stroke-width="0.9" stroke-miterlimit="10" stroke-linecap="round" stroke-linejoin="round"></path><path d="M18.566 8.90771L12.7062 14.7669" stroke="#0163BE" stroke-width="0.9" stroke-miterlimit="10" stroke-linecap="round" stroke-linejoin="round"></path><path d="M22.1098 20.2941L35.4727 6.93128V1.4043L22.1098 14.7671" stroke="#0163BE" stroke-width="0.9" stroke-miterlimit="10" stroke-linecap="round" stroke-linejoin="round"></path><path d="M0.653484 20.1679L6.00103 14.8203" stroke="#0163BE" stroke-width="0.9" stroke-miterlimit="10" stroke-linecap="round" stroke-linejoin="round"></path><path d="M0.725204 28.3984L6.00103 23.1226" stroke="#0163BE" stroke-width="0.9" stroke-miterlimit="10" stroke-linecap="round" stroke-linejoin="round"></path><path d="M12.8682 20.1321L18.1795 14.8208" stroke="#0163BE" stroke-width="0.9" stroke-miterlimit="10" stroke-linecap="round" stroke-linejoin="round"></path><path d="M12.9041 28.3984L18.1882 23.1143" stroke="#0163BE" stroke-width="0.9" stroke-miterlimit="10" stroke-linecap="round" stroke-linejoin="round"></path></svg>