<svg xmlns="http://www.w3.org/2000/svg" width="34" height="34" viewBox="0 0 34 34" fill="none"><path d="M27.7558 19.9588C27.634 19.9588 27.5171 19.9104 27.431 19.8242C27.3448 19.7381 27.2964 19.6212 27.2964 19.4993V18.1348C27.2964 18.0129 27.3448 17.896 27.431 17.8099C27.5171 17.7237 27.634 17.6753 27.7558 17.6753C27.8777 17.6753 27.9946 17.7237 28.0807 17.8099C28.1669 17.896 28.2153 18.0129 28.2153 18.1348V19.4993C28.2153 19.6212 28.1669 19.7381 28.0807 19.8242C27.9946 19.9104 27.8777 19.9588 27.7558 19.9588Z" fill="#0163BE"></path><path d="M13.0854 33.081C12.9636 33.081 12.8467 33.0326 12.7606 32.9464C12.6744 32.8602 12.626 32.7434 12.626 32.6215V1.37827C12.6257 1.31386 12.6389 1.25011 12.6648 1.19114C12.6907 1.13218 12.7287 1.07932 12.7764 1.03599C12.824 0.992666 12.8803 0.959845 12.9414 0.939658C13.0026 0.91947 13.0673 0.912366 13.1314 0.918808L27.8019 2.40286C27.9157 2.41429 28.021 2.4677 28.0975 2.55266C28.174 2.63761 28.216 2.74802 28.2154 2.86232V10.3653C28.2154 10.4871 28.167 10.604 28.0809 10.6902C27.9947 10.7763 27.8778 10.8248 27.756 10.8248C27.6341 10.8248 27.5173 10.7763 27.4311 10.6902C27.3449 10.604 27.2965 10.4871 27.2965 10.3653V3.27767L13.5449 1.88643V32.0954L27.2965 30.2323V22.7156C27.2965 22.5937 27.3449 22.4768 27.4311 22.3907C27.5173 22.3045 27.6341 22.2561 27.756 22.2561C27.8778 22.2561 27.9947 22.3045 28.0809 22.3907C28.167 22.4768 28.2154 22.5937 28.2154 22.7156V30.632C28.2155 30.7432 28.1752 30.8505 28.1021 30.9343C28.0291 31.018 27.9281 31.0724 27.818 31.0874L13.1475 33.0768C13.1269 33.0796 13.1062 33.081 13.0854 33.081Z" fill="#0163BE"></path><path d="M27.7558 15.378C27.634 15.378 27.5171 15.3296 27.431 15.2434C27.3448 15.1573 27.2964 15.0404 27.2964 14.9186V13.5815C27.2964 13.4597 27.3448 13.3428 27.431 13.2566C27.5171 13.1705 27.634 13.1221 27.7558 13.1221C27.8777 13.1221 27.9946 13.1705 28.0807 13.2566C28.1669 13.3428 28.2153 13.4597 28.2153 13.5815V14.9186C28.2153 15.0404 28.1669 15.1573 28.0807 15.2434C27.9946 15.3296 27.8777 15.378 27.7558 15.378Z" fill="#0163BE"></path><path d="M6.27587 31.3838C6.15401 31.3838 6.03714 31.3354 5.95098 31.2492C5.86481 31.1631 5.81641 31.0462 5.81641 30.9244V2.84862C5.81641 2.72676 5.86481 2.6099 5.95098 2.52373C6.03714 2.43757 6.15401 2.38916 6.27587 2.38916H13.0851C13.2069 2.38916 13.3238 2.43757 13.4099 2.52373C13.4961 2.6099 13.5445 2.72676 13.5445 2.84862C13.5445 2.97048 13.4961 3.08734 13.4099 3.17351C13.3238 3.25967 13.2069 3.30808 13.0851 3.30808H6.73533V30.9244C6.73533 31.0462 6.68692 31.1631 6.60075 31.2492C6.51459 31.3354 6.39772 31.3838 6.27587 31.3838Z" fill="#0163BE"></path><path d="M8.87084 31.3837C8.74898 31.3837 8.63212 31.3353 8.54595 31.2491C8.45978 31.163 8.41138 31.0461 8.41138 30.9242V5.53221C8.41138 5.41036 8.45978 5.29349 8.54595 5.20733C8.63212 5.12116 8.74898 5.07275 8.87084 5.07275H13.0818C13.2036 5.07275 13.3205 5.12116 13.4067 5.20733C13.4928 5.29349 13.5412 5.41036 13.5412 5.53221C13.5412 5.65407 13.4928 5.77093 13.4067 5.8571C13.3205 5.94327 13.2036 5.99167 13.0818 5.99167H9.3303V30.9242C9.3303 31.0461 9.28189 31.163 9.19572 31.2491C9.10956 31.3353 8.99269 31.3837 8.87084 31.3837Z" fill="#0163BE"></path><path d="M13.0817 31.3838H1.40087C1.27901 31.3838 1.16214 31.3354 1.07598 31.2492C0.989813 31.163 0.941406 31.0462 0.941406 30.9243C0.941406 30.8024 0.989813 30.6856 1.07598 30.5994C1.16214 30.5133 1.27901 30.4648 1.40087 30.4648H13.0817C13.2036 30.4648 13.3204 30.5133 13.4066 30.5994C13.4928 30.6856 13.5412 30.8024 13.5412 30.9243C13.5412 31.0462 13.4928 31.163 13.4066 31.2492C13.3204 31.3354 13.2036 31.3838 13.0817 31.3838Z" fill="#0163BE"></path><path d="M32.5991 31.3838H25.5657C25.4438 31.3838 25.3269 31.3354 25.2408 31.2492C25.1546 31.163 25.1062 31.0462 25.1062 30.9243C25.1062 30.8024 25.1546 30.6856 25.2408 30.5994C25.3269 30.5133 25.4438 30.4648 25.5657 30.4648H32.5991C32.7209 30.4648 32.8378 30.5133 32.924 30.5994C33.0101 30.6856 33.0585 30.8024 33.0585 30.9243C33.0585 31.0462 33.0101 31.163 32.924 31.2492C32.8378 31.3354 32.7209 31.3838 32.5991 31.3838Z" fill="#0163BE"></path><path d="M16.274 18.6603C15.9456 18.6603 15.6246 18.5629 15.3515 18.3805C15.0784 18.198 14.8656 17.9387 14.7399 17.6353C14.6142 17.3319 14.5814 16.998 14.6454 16.6759C14.7095 16.3538 14.8676 16.0579 15.0999 15.8257C15.3321 15.5935 15.628 15.4353 15.9501 15.3713C16.2722 15.3072 16.606 15.3401 16.9095 15.4658C17.2129 15.5914 17.4722 15.8043 17.6547 16.0773C17.8371 16.3504 17.9345 16.6714 17.9345 16.9998C17.934 17.4401 17.7589 17.8622 17.4476 18.1734C17.1363 18.4847 16.7143 18.6598 16.274 18.6603ZM16.274 16.2583C16.1273 16.2583 15.984 16.3018 15.862 16.3833C15.7401 16.4647 15.645 16.5806 15.5889 16.7161C15.5328 16.8516 15.5181 17.0007 15.5467 17.1445C15.5753 17.2884 15.6459 17.4205 15.7496 17.5242C15.8534 17.6279 15.9855 17.6985 16.1293 17.7272C16.2732 17.7558 16.4223 17.7411 16.5578 17.685C16.6933 17.6288 16.8091 17.5338 16.8906 17.4118C16.9721 17.2899 17.0156 17.1465 17.0156 16.9998C17.0153 16.8032 16.9371 16.6148 16.7981 16.4757C16.6591 16.3367 16.4706 16.2585 16.274 16.2583Z" fill="#0163BE"></path></svg>