<svg xmlns="http://www.w3.org/2000/svg" width="35" height="35" viewBox="0 0 35 35" fill="none"><mask id="mask0_1_1132" style="mask-type:luminance" maskUnits="userSpaceOnUse" x="0" y="0" width="35" height="35"><path d="M0 3.8147e-06H35V35H0V3.8147e-06Z" fill="white"></path></mask><g mask="url(#mask0_1_1132)"><path d="M11.8753 11.2114V10.9476C11.8753 9.28711 12.535 7.6957 13.7081 6.52129L17.8759 2.3541C19.0503 1.17969 20.6424 0.52002 22.3028 0.52002H28.4552" stroke="#0163BE" stroke-miterlimit="10" stroke-linecap="round" stroke-linejoin="round"></path><path d="M30.506 0.520023H31.9606C33.1651 0.520023 34.1414 1.49619 34.1414 2.7V6.22666V14.1974V25.5061C34.1414 26.7105 33.1651 27.686 31.9606 27.686H20.9103" stroke="#0163BE" stroke-miterlimit="10" stroke-linecap="round" stroke-linejoin="round"></path><path d="M11.9367 11.2119C12.245 9.58537 13.674 8.35442 15.3902 8.35442H17.53C18.7336 8.35442 19.7095 7.37853 19.7095 6.17492V4.03575C19.7095 2.09414 21.2841 0.520166 23.2251 0.520166" stroke="#0163BE" stroke-miterlimit="10" stroke-linecap="round" stroke-linejoin="round"></path><path d="M6.8776 34.3771C10.5943 34.5781 14.3109 34.5029 18.0276 34.1522C19.4585 34.0175 20.5864 32.8759 20.6923 31.4431C21.1175 25.7119 21.1175 19.9806 20.6923 14.25C20.5864 12.8166 19.4585 11.6749 18.0276 11.5403C13.2992 11.0939 8.57086 11.0939 3.84244 11.5403C2.41168 11.6749 1.28375 12.8166 1.17779 14.25C0.752529 19.9806 0.752529 25.7119 1.17779 31.4431C1.28375 32.8759 2.41168 34.0175 3.84244 34.1522C4.18212 34.1843 4.52262 34.2137 4.86236 34.2411" stroke="#0163BE" stroke-miterlimit="10" stroke-linecap="round" stroke-linejoin="round"></path><path d="M6.84841 32.3506C6.73555 28.721 6.68538 25.0911 6.69802 21.4616" stroke="#0163BE" stroke-miterlimit="10" stroke-linecap="round" stroke-linejoin="round"></path><path d="M15.1721 21.4616C15.1848 25.0906 15.1346 28.721 15.0218 32.3506" stroke="#0163BE" stroke-miterlimit="10" stroke-linecap="round" stroke-linejoin="round"></path><path d="M17.7888 19.2871H4.08117C3.4548 19.2871 2.95331 18.766 2.97888 18.1403C3.03001 16.8906 3.10152 15.6435 3.19394 14.3998C3.22723 13.952 3.5799 13.5959 4.03243 13.553C6.3224 13.3372 8.64498 13.2277 10.935 13.2277C13.2249 13.2277 15.5476 13.3372 17.8375 13.553C18.2901 13.5959 18.6427 13.952 18.676 14.3998C18.7684 15.6435 18.84 16.8906 18.8911 18.1403C18.9167 18.766 18.4151 19.2871 17.7888 19.2871Z" stroke="#0163BE" stroke-miterlimit="10" stroke-linecap="round" stroke-linejoin="round"></path><path d="M18.6761 31.2932C18.6428 31.741 18.2901 32.0972 17.8376 32.14C15.5476 32.3559 13.225 32.4653 10.9351 32.4653C8.6451 32.4653 6.32245 32.3559 4.03248 32.14C3.57994 32.0972 3.22734 31.741 3.19405 31.2932C2.97947 28.4016 2.87563 25.4889 2.88267 22.5772C2.88411 21.9605 3.38546 21.4615 4.00219 21.4615H17.8679C18.4846 21.4615 18.986 21.9605 18.9875 22.5772C18.9944 25.4889 18.8907 28.4016 18.6761 31.2932Z" stroke="#0163BE" stroke-miterlimit="10" stroke-linecap="round" stroke-linejoin="round"></path><path d="M3.08677 29.6929C5.69174 29.8011 8.33151 29.856 10.9351 29.856C12.3138 29.856 13.7022 29.8405 15.0907 29.81" stroke="#0163BE" stroke-miterlimit="10" stroke-linecap="round" stroke-linejoin="round"></path><path d="M18.9811 24.0708H2.88863" stroke="#0163BE" stroke-miterlimit="10" stroke-linecap="round" stroke-linejoin="round"></path><path d="M18.914 26.9634H2.95602" stroke="#0163BE" stroke-miterlimit="10" stroke-linecap="round" stroke-linejoin="round"></path><path d="M10.935 21.4615V24.0707V26.9634V29.8556V32.4653" stroke="#0163BE" stroke-miterlimit="10" stroke-linecap="round" stroke-linejoin="round"></path><path d="M31.4765 19.5599C31.3708 19.4719 30.7652 19.0152 29.8769 19.2829C28.9769 19.554 28.7533 20.7855 29.3649 21.2652C29.7161 21.5406 30.2446 21.7672 30.9567 22.0189C32.5507 22.5823 31.9615 24.8302 30.3401 24.841C29.7073 24.8452 29.4115 24.8051 28.8557 24.4415" stroke="#0163BE" stroke-miterlimit="10" stroke-linecap="round" stroke-linejoin="round"></path><path d="M30.3401 18.441V25.6616" stroke="#0163BE" stroke-miterlimit="10" stroke-linecap="round" stroke-linejoin="round"></path><path d="M29.4806 5.50813V10.3975H23.5196V5.50813" stroke="#0163BE" stroke-miterlimit="10" stroke-linecap="round" stroke-linejoin="round"></path><path d="M30.3186 6.3457L26.5002 2.52735L22.6819 6.3457" stroke="#0163BE" stroke-miterlimit="10" stroke-linecap="round" stroke-linejoin="round"></path><path d="M27.5979 6.1645H25.4026V8.35986H27.5979V6.1645Z" stroke="#0163BE" stroke-miterlimit="10" stroke-linecap="round" stroke-linejoin="round"></path><path d="M31.3532 13.4692H20.5261" stroke="#0163BE" stroke-miterlimit="10" stroke-linecap="round" stroke-linejoin="round"></path><path d="M31.3533 15.9595H20.8057" stroke="#0163BE" stroke-miterlimit="10" stroke-linecap="round" stroke-linejoin="round"></path><path d="M25.7874 18.4487H20.9274" stroke="#0163BE" stroke-miterlimit="10" stroke-linecap="round" stroke-linejoin="round"></path></g></svg>