<svg xmlns="http://www.w3.org/2000/svg" width="34" height="24" viewBox="0 0 34 24" fill="none"><path d="M33.9883 22.9645L32.8495 17.1237C32.7963 16.8511 32.5329 16.673 32.2596 16.7264C31.9871 16.7795 31.8091 17.0436 31.8623 17.3162L32.8248 22.2528L32.047 21.729C31.1842 21.1479 30.1231 21.024 29.1754 21.3567L26.0761 1.54413C26.6043 1.20933 27.2741 1.2165 27.7955 1.56766L28.9423 2.34006L31.4444 15.173C31.4976 15.4456 31.7617 15.6238 32.0343 15.5704C32.3068 15.5172 32.4848 15.2532 32.4316 14.9805L29.8992 1.99245C29.8673 1.82911 29.7738 1.68783 29.6352 1.59422L28.3573 0.733509C27.4822 0.144169 26.3512 0.144169 25.4762 0.733509L25.3162 0.841265C24.7825 1.20068 24.0927 1.20074 23.5589 0.841332L23.3988 0.733509C22.5237 0.144169 21.3928 0.144169 20.5177 0.733576L20.3578 0.841265C19.824 1.20068 19.1342 1.20081 18.6004 0.841265L18.4404 0.733509C17.5654 0.144236 16.4344 0.144102 15.5593 0.733509L15.3993 0.841265C14.8656 1.20081 14.1758 1.20074 13.6421 0.841332L13.482 0.733509C12.607 0.144169 11.476 0.144169 10.601 0.733509L10.441 0.841265C9.9073 1.20081 9.21751 1.20081 8.6837 0.841265L8.5237 0.733509C7.64858 0.144169 6.51764 0.144169 5.64265 0.733509L4.36433 1.59449C4.22626 1.68769 4.13266 1.82904 4.10074 1.99252L0.0117012 22.9645C-0.0368461 23.213 0.0682279 23.4642 0.279382 23.6042C0.490536 23.7442 0.762709 23.7433 0.973058 23.6018L2.51484 22.5632C3.27081 22.0539 4.24792 22.0539 5.00403 22.5632L5.26312 22.7378C6.36053 23.4769 7.77873 23.4769 8.87614 22.7378L9.1351 22.5632C9.89121 22.0539 10.8683 22.0541 11.6243 22.5632L11.8834 22.7378C12.9808 23.4769 14.399 23.4769 15.4964 22.7378L15.7554 22.5632C16.5115 22.0539 17.4886 22.0541 18.2446 22.5632L18.5036 22.7378C19.6011 23.4769 21.0192 23.4769 22.1167 22.7378L22.3756 22.5632C23.1317 22.0539 24.1089 22.054 24.8648 22.5632L25.1239 22.7378C26.2213 23.4769 27.6395 23.4769 28.7369 22.7378L28.9959 22.5632C29.752 22.0539 30.7291 22.0539 31.4851 22.5632L33.027 23.6018C33.1327 23.673 33.2541 23.7086 33.3756 23.7086C33.4955 23.7086 33.6155 23.6738 33.7205 23.6042C33.9318 23.4642 34.0368 23.2131 33.9883 22.9645ZM5.82504 21.9035L5.76355 21.8621L6.20155 19.0619C6.24446 18.7875 6.05684 18.5302 5.78246 18.4873C5.50807 18.4446 5.25085 18.6321 5.20787 18.9065L4.82459 21.3567C3.87698 21.024 2.81584 21.1479 1.95292 21.729L1.17523 22.2528L5.0578 2.33999L6.20463 1.5676C6.72598 1.21637 7.39578 1.20919 7.92404 1.54413L5.54321 16.7632C5.50023 17.0377 5.68791 17.2949 5.9623 17.3378C5.98865 17.342 6.0148 17.3439 6.04062 17.3439C6.28402 17.3439 6.49806 17.1667 6.53682 16.9187L8.86756 2.01988C9.35645 2.15767 9.87471 2.14728 10.3591 1.98876L8.44418 21.8159L8.31423 21.9035C7.55812 22.4127 6.58107 22.4127 5.82504 21.9035ZM9.50477 21.2967L11.4239 1.42645C11.9036 1.22032 12.4574 1.26391 12.9051 1.55828L11.3914 21.3387C10.7794 21.1357 10.123 21.1218 9.50477 21.2967ZM12.4453 21.9035L12.3613 21.8469L13.8775 2.03349C14.3759 2.16284 14.9021 2.13977 15.3902 1.96382L15.0439 21.8297L14.9344 21.9035C14.1785 22.4127 13.2013 22.4127 12.4453 21.9035ZM16.0589 21.3157L16.4057 1.41632C16.7871 1.25968 17.2129 1.25962 17.5943 1.41632L17.9412 21.3157C17.3275 21.1278 16.6726 21.1278 16.0589 21.3157ZM22.6087 21.3386L21.5104 6.98712C21.4892 6.71019 21.2476 6.50319 20.9705 6.52405C20.6936 6.54524 20.4863 6.78697 20.5074 7.0639L21.6388 21.847L21.5548 21.9035C20.7988 22.4129 19.8216 22.4128 19.0656 21.9035L18.9561 21.8298L18.6099 1.96389C19.0979 2.13984 19.6241 2.16297 20.1225 2.03362L20.3435 4.92078C20.3637 5.18471 20.5841 5.38533 20.8445 5.38533C20.8573 5.38533 20.8703 5.38486 20.8833 5.38392C21.1603 5.36273 21.3676 5.121 21.3464 4.84407L21.095 1.55834C21.5426 1.26404 22.0964 1.22039 22.5761 1.42652L24.4953 21.2968C23.877 21.1218 23.2207 21.1357 22.6087 21.3386ZM25.6859 21.9035L25.5558 21.8158L23.6408 1.98883C24.1252 2.14735 24.6435 2.15774 25.1324 2.01995L28.2364 21.8621L28.1751 21.9034C27.419 22.4128 26.4419 22.4126 25.6859 21.9035Z" fill="#0163BE"></path></svg>