<svg xmlns="http://www.w3.org/2000/svg" id="Layer_1" width="300" height="100" data-name="Layer 1" viewBox="0 0 3533 1092"><defs><style>.cls-1{fill:#e11b22;}.cls-2{fill:#fff;}</style></defs><rect class="cls-1" x="0" y="196" width="700" height="700"></rect><svg x="-196"><path class="cls-1" d="M1129.7,273.91h154.15c170.1,0,191.36,110.87,191.36,271.09S1454,816.09,1283.85,816.09H1129.7Zm86.57,476.87h71.38c71.38,0,101-47.08,101-205.78,0-152.63-25.82-205.78-101-205.78h-71.38Z"></path><path class="cls-1" d="M1567.1,273.91h293.1v72.9H1653.66V497.16h194.4v72.9h-194.4V743.19h212.62v72.9H1567.1Z"></path><path class="cls-1" d="M1962,747.75l227-400.94H1975.62v-72.9h308.3v72.9L2056.87,743.19H2286.2v72.9H1962Z"></path><path class="cls-1" d="M2372.77,273.91h86.57V816.09h-86.57Z"></path><path class="cls-1" d="M2830.64,753.06h-1.51c-23.54,50.12-54.68,73.66-118.46,73.66-118.46,0-161-88.08-161-281.72s54.68-281.72,180-281.72c135.93,0,158.71,107.07,158.71,156.43v9.87h-82V416.67c0-40.24-16.71-88.09-75.94-88.09-61.5,0-94.16,41-94.16,214.14,0,174.65,28.86,218.7,87.33,218.7,66.06.75,90.36-47.09,90.36-165.54h-91.12V530.57H2896V816.09h-65.31Z"></path><path class="cls-1" d="M3000.74,273.91h105.55l157.18,404H3265v-404h82V816.09H3241.45L3084.27,401.48h-1.52V816.09h-82Z"></path></svg><rect class="cls-2" x="57" y="253" width="40" height="186"></rect><rect class="cls-2" x="57" y="253" width="186" height="40"></rect></svg>