<svg xmlns="http://www.w3.org/2000/svg" width="18" height="19" viewBox="0 0 18 19" fill="none"><path d="M17.9999 13.271C17.9999 16.547 16.0469 18.5 12.7709 18.5H11.6999C11.2049 18.5 10.7999 18.095 10.7999 17.6V12.407C10.7999 12.164 10.9979 11.957 11.2409 11.957L12.8249 11.93C12.9509 11.921 13.0589 11.831 13.0859 11.705L13.4009 9.98601C13.4279 9.82401 13.3019 9.671 13.1309 9.671L11.2139 9.698C10.9619 9.698 10.764 9.50001 10.755 9.25701L10.7189 7.052C10.7189 6.908 10.8359 6.78201 10.9889 6.78201L13.1489 6.746C13.3019 6.746 13.4189 6.62901 13.4189 6.47601L13.3829 4.31599C13.3829 4.16299 13.2659 4.046 13.1129 4.046L10.6829 4.08201C9.18895 4.10901 8.00097 5.333 8.02797 6.827L8.07296 9.302C8.08196 9.554 7.88397 9.75201 7.63197 9.76101L6.55197 9.779C6.39897 9.779 6.28198 9.89599 6.28198 10.049L6.30898 11.759C6.30898 11.912 6.42597 12.029 6.57896 12.029L7.65897 12.011C7.91097 12.011 8.10895 12.209 8.11795 12.452L8.19895 17.582C8.20795 18.086 7.80295 18.5 7.29895 18.5H5.22897C1.95299 18.5 0 16.547 0 13.262V5.729C0 2.453 1.95299 0.5 5.22897 0.5H12.7709C16.0469 0.5 17.9999 2.453 17.9999 5.729V13.271V13.271Z" fill="#4267B2"></path></svg>