<svg xmlns="http://www.w3.org/2000/svg" width="160" height="97" viewBox="0 0 160 97" fill="none"><g clip-path="url(#clip0_108_869)"><path d="M10.8208 65.4177L24.4404 71.3593C31.7299 74.5393 40.1433 70.4716 42.1048 62.819L43.5955 57.0033C45.4199 49.8855 54.3899 47.5001 59.5705 52.7551V52.7551C63.5419 56.7835 70.159 56.4799 73.7273 52.1056L75.2459 50.2438C79.3674 45.1912 87.1208 45.1496 91.3113 50.1576V50.1576C96.0087 55.7715 104.926 54.9115 108.43 48.5067L116.716 33.3602C118.754 29.635 121.835 26.5757 125.587 24.5509L152.747 9.8941" stroke="#0163BE" stroke-width="0.5" stroke-dasharray="5 5"></path><path d="M157.329 7.85093C153.336 8.07862 147.988 7.90926 144.396 6.79209L149.119 11.6045L149.736 18.2937C151.336 14.8029 154.56 10.7144 157.329 7.85093Z" fill="#0163BE"></path><path d="M2.11395 62.7522C5.14162 65.3449 8.86447 69.1585 10.6618 72.441L10.6434 65.7238L14.8896 60.4924C11.2934 61.8958 6.1105 62.6067 2.11395 62.7522Z" fill="#0163BE"></path></g><defs><clipPath id="clip0_108_869"><rect width="160" height="97" fill="white"></rect></clipPath></defs></svg>