<svg xmlns="http://www.w3.org/2000/svg" width="683" height="445" viewBox="0 0 683 445" fill="none"><g opacity="0.3"><g clip-path="url(#clip0_921_16746)"><path d="M2.36035 344.192V339.614L2.54142 339.51L323.459 163.221L323.621 163.331L426.079 233.449C426.125 232.958 426.196 232.059 426.312 230.403V230.087H426.603C432.423 229.705 436.827 230.921 439.621 233.721C443.378 237.491 443.378 243.078 443.378 246.085V297.282L435.747 297.134V296.778C435.747 296.39 436.394 258.126 435.624 246.984C435.01 238.506 426.668 238.881 426.319 238.894H425.963V238.687L323.116 171.175L2.36035 344.192ZM3.00703 340.047V343.028L323.11 170.366L323.271 170.47L425.989 237.866V234.238L323.42 164.042L3.00703 340.047ZM436.426 296.409L442.705 296.532V246.092C442.705 243.195 442.705 237.808 439.155 234.251C436.568 231.665 432.436 230.475 426.933 230.792C426.791 232.796 426.726 233.721 426.636 234.148V238.17C428.343 238.17 435.689 238.778 436.29 246.92C437.079 257.506 436.517 292.478 436.452 296.409H436.426Z" fill="black"></path><path d="M425.691 298.556V239.818L425.957 239.76C426.995 239.561 428.064 239.592 429.088 239.851C430.113 240.111 431.068 240.592 431.887 241.26C433.917 243.019 434.945 246.059 434.945 250.314C434.945 262.316 433.904 296.945 433.891 297.288V297.598L425.691 298.556ZM426.338 240.413V297.754L433.206 296.945C433.309 293.453 434.253 261.682 434.253 250.301C434.253 246.291 433.309 243.44 431.447 241.823C430.738 241.249 429.919 240.827 429.04 240.585C428.161 240.342 427.241 240.284 426.338 240.413Z" fill="black"></path><path d="M426.002 240.466H423.868L423.79 240.414L322.437 173.425L320.374 174.537L320.077 173.897L322.476 172.61L322.631 172.714L424.062 239.754H426.002V240.466Z" fill="black"></path><path d="M8.52961 390.008H0V345.187L2.58669 344.184L320.562 173.631V304.388L306.982 308.107L8.52961 390.008ZM0.672537 389.296H8.43261L104.987 362.783L319.877 303.826V174.795L2.83242 344.87L0.659606 345.717L0.672537 389.296Z" fill="black"></path><path d="M323.472 170.786L322.799 170.754L323.103 163.615L323.776 163.647L323.472 170.786Z" fill="black"></path><path d="M331.982 462.617C331.6 462.617 331.212 462.617 330.805 462.578C324.261 462.171 317.697 462.171 311.153 462.578L311.107 461.867C317.68 461.452 324.272 461.452 330.844 461.867C334.472 462.08 337.194 461.298 338.927 459.532C341.514 456.945 341.456 452.774 341.436 450.026V449.379C341.436 448.784 341.436 446.146 341.436 442.001C341.391 416.671 341.262 339.574 341.436 323.893C341.514 317.064 340.479 312.822 338.268 310.959C336.056 309.097 332.758 309.827 329.641 310.616L328.108 310.991C327.378 311.16 322.146 312.498 311.153 315.337L309.213 315.842L306.969 316.417L284.193 322.321L282.376 322.793L280.83 323.188L278.845 323.705L258.203 329.059L256.483 329.499L255.636 329.719L254.478 330.023L237.568 334.395L236.662 334.634L234.031 335.313L217.534 339.6L216.098 339.975L215.6 340.105L214.165 340.48L180.829 349.145L179.335 349.533L167.022 352.76L151.502 356.802L149.995 357.196L143.981 358.755L139.694 359.873L138.698 360.132L138.407 360.203L137.224 360.507C134.529 361.219 131.843 361.919 129.166 362.609L126.036 363.424L125.299 363.618L119.259 365.189L116.672 365.836L115.502 366.14L114.131 366.495L105.155 368.83L104.302 369.05L101.282 369.839L95.274 371.404L94.2652 371.662L85.561 373.926L84.5457 374.191L84.3259 374.249L78.7257 375.71L77.704 375.976C77.303 376.073 76.9085 376.183 76.5141 376.286L71.4636 377.579L70.9139 377.722L67.3184 378.659L64.5959 379.364L63.6324 379.616L62.9857 379.778L57.767 381.136L57.1204 381.304L56.8164 381.382L55.7171 381.666L55.148 381.815L52.2574 382.572L51.3391 382.811L45.6484 384.292L45.1505 384.421L40.9406 385.514L40.3392 385.669L39.6926 385.844L39.0459 386.005L36.8407 386.581L36.4204 386.691L35.7155 386.872L34.933 387.079L32.023 387.836L31.0336 388.094C30.277 388.288 29.5463 388.476 28.8285 388.67L27.9943 388.883L27.2635 389.071L27.0242 389.135L24.7868 389.717L24.5475 389.782L23.9655 389.931L23.5839 390.028L23.0213 390.183L22.6786 390.267L21.2301 390.642L20.9455 390.72C20.7709 390.765 20.6028 390.804 20.4347 390.855L19.497 391.095L16.5481 391.948L16.0631 392.071L15.3001 392.272L13.761 392.673L12.9979 392.873L12.4612 393.009L10.5212 393.513L9.87449 393.675C9.52529 393.766 9.22782 393.837 8.98855 393.908L8.34188 394.069V395.628L310.997 318.874L311.153 319.566L7.72754 396.475V393.449L7.98621 393.384L8.86568 393.151L9.75809 392.925L10.4048 392.757L12.3448 392.259L12.8815 392.123L13.6446 391.916L15.1837 391.522L15.9467 391.321L16.4317 391.192L19.4323 390.416L20.37 390.17L20.8873 390.034L21.1654 389.963L22.6204 389.588L22.9567 389.498L23.4611 389.362L23.8491 389.258L24.4246 389.109L24.6704 389.051L26.9078 388.463L27.1471 388.405L27.8714 388.217L28.7056 387.997L30.9107 387.422L31.9002 387.169L34.8102 386.406L35.5991 386.199L36.304 386.018L36.7179 385.908L38.9295 385.339L39.5762 385.171L40.2228 385.003L40.8178 384.841L45.0276 383.749L45.5255 383.619L51.2163 382.138L52.141 381.899L55.0252 381.149L55.6007 381L56.6936 380.716L56.9975 380.638L57.6442 380.47L62.8628 379.112L63.5095 378.95L64.473 378.698L67.202 377.987L70.7846 377.055L71.3407 376.907L76.3912 375.613L77.5875 375.303L78.6028 375.038L84.2095 373.576L84.4293 373.525L85.4381 373.26L94.1424 370.996L95.1576 370.738L101.165 369.166L104.185 368.384L105.032 368.157C107.994 367.394 110.988 366.616 114.015 365.823L115.379 365.467L116.55 365.163L119.136 364.517L125.183 362.945L125.92 362.758L129.05 361.943L137.107 359.841L138.284 359.537L138.582 359.46L139.578 359.201L143.859 358.089L149.853 356.53C150.377 356.394 150.881 356.259 151.386 356.136L166.906 352.094L179.232 348.861L180.725 348.466L214.055 339.807L215.49 339.426L215.995 339.296L217.424 338.921L233.921 334.64L236.559 333.955L237.464 333.722L254.323 329.325L255.481 329.027L256.328 328.807L258.041 328.361L278.683 323.007L280.675 322.489L282.221 322.088L284.038 321.616C292.71 319.366 300.392 317.374 306.813 315.719L309.051 315.137L310.991 314.639C321.984 311.8 327.229 310.455 327.966 310.287C328.464 310.17 328.968 310.041 329.486 309.912C332.609 309.123 336.147 308.224 338.688 310.397C341.068 312.434 342.186 316.863 342.109 323.918C341.921 339.6 342.051 416.69 342.109 442.02C342.109 446.165 342.109 448.804 342.109 449.399V450.045C342.109 452.742 342.161 457.256 339.386 460.075C337.744 461.789 335.228 462.617 331.982 462.617Z" fill="black"></path><path d="M311.218 319.191H310.992V462.215H311.218V319.191Z" fill="black"></path><path d="M311.496 471.049H311.153L306.898 470.842L137.121 462.112L7.72801 455.465V449.502H0.860352V395.686H8.01902L309.071 319.327L309.226 320.026L8.06428 396.404H1.52643V448.784H8.39408V454.753L139.927 461.511L306.93 470.092L310.81 470.293L310.694 461.886L310.985 461.841L318.991 461.142L319.043 461.854L311.379 462.5L311.496 471.049Z" fill="black"></path><path d="M333.961 471.081C333.515 471.081 333.12 471.081 332.784 471.081H332.137H311.153V470.37H332.797C335.202 470.435 340.848 470.57 344.773 466.49C347.683 463.451 349.164 458.639 349.164 452.185V314.994C349.164 312.194 348.22 306.587 344.702 303.477C342.303 301.336 339.095 300.631 335.177 301.375C323.33 303.632 320.342 304.453 320.303 304.46L320.135 303.768C320.135 303.768 323.161 302.94 335.054 300.67C339.18 299.888 342.568 300.67 345.129 302.927C349.694 307.008 349.824 314.186 349.824 314.994V452.153C349.824 458.807 348.278 463.793 345.232 466.968C341.669 470.68 336.826 471.081 333.961 471.081Z" fill="black"></path><path d="M533.718 379.124L533.311 378.982C525.654 376.363 485.929 363.371 415.248 340.376L414.013 339.975L413.366 339.755C412.609 339.509 411.866 339.263 411.122 339.031L405.949 337.336L404.785 336.961L404.041 336.716L401.765 335.991L393.675 333.359L393.028 333.159C392.595 333.017 392.155 332.881 391.735 332.732L365.629 324.248L364.38 323.847L362.143 323.116L362.337 322.431L364.574 323.161L365.823 323.569L391.929 332.053L393.222 332.48L393.836 332.674L401.926 335.306L404.164 336.037L404.907 336.276L406.078 336.657L411.251 338.345C411.988 338.584 412.739 338.824 413.489 339.076L414.135 339.289L415.371 339.69C484.836 362.291 524.399 375.257 533.02 378.154C533.02 374.701 530.556 370.394 525.712 368.454C522.886 367.323 468.158 347.373 415.164 328.179L405.173 324.558L403.924 324.112L401.765 323.284L393.668 320.355L391.728 319.663L387.725 318.227L380.612 315.64L377.902 314.664L376.46 314.147L374.74 313.5C371.798 312.439 368.985 311.418 366.333 310.467L364.762 309.905L364.426 309.782L362.195 308.98L362.395 308.301L362.292 308.637L362.408 308.301L364.639 309.103L364.975 309.226L366.547 309.788L374.954 312.827L376.667 313.474L378.116 313.991L380.819 314.968L387.932 317.555L391.955 319.01L393.856 319.695C396.507 320.652 399.206 321.631 401.952 322.631L404.196 323.439L405.444 323.892L415.435 327.507C462.972 344.741 522.899 366.547 526.016 367.795C531.384 369.942 533.97 374.908 533.776 378.685L533.718 379.124Z" fill="black"></path><path d="M335.254 471.049L335.209 470.338C337.214 470.189 536.169 455.917 551.236 456.369C555.485 456.027 558.272 454.817 559.494 452.774C560.128 451.648 560.306 450.322 559.992 449.069L354.098 451.59L353.452 319.54L353.885 319.682L362.363 322.431L362.169 323.116L354.124 320.529L354.771 450.886L560.471 448.37L560.555 448.603C560.795 449.356 560.876 450.151 560.793 450.937C560.709 451.723 560.463 452.483 560.07 453.168C558.738 455.419 555.769 456.744 551.256 457.1C536.156 456.615 337.259 470.907 335.254 471.049Z" fill="black"></path><path d="M362.156 308.994C358.108 307.532 354.512 306.239 351.467 305.152L349.527 304.467L348.02 303.93L347.283 303.671C344.12 302.546 341.935 301.777 340.978 301.46L341.178 300.774C342.142 301.098 344.327 301.861 347.496 302.992L348.233 303.251L349.74 303.788L351.68 304.473C354.726 305.56 358.321 306.853 362.376 308.315L362.156 308.994Z" fill="black"></path><path d="M532.457 344.185L442.919 297.217L443.21 296.571L531.804 343.028V337.854L445.738 291.391V291.164L446.385 266.287L521.334 312.796L522.11 305.443L445.945 255.882V242.399C445.945 239.476 444.833 229.866 430.632 227.92V230.707H429.985V227.112L430.361 227.157C445.467 229.058 446.644 239.301 446.644 242.399V255.5L522.822 305.068L521.884 313.966L521.438 313.695L447.032 267.509L446.385 290.958L532.457 337.434V344.185Z" fill="black"></path><path d="M579.244 338.094L446.1 244.074L446.469 243.473L578.571 336.762V334.175C573.598 330.541 450.983 240.854 441.987 232.796L442.421 232.253C451.558 240.414 577.821 332.765 579.095 333.696L579.244 333.806V338.094Z" fill="black"></path><path d="M572.803 451.06H572.137V362.705L578.571 366.365V337.427H579.244V367.562L572.803 363.895V451.06Z" fill="black"></path><path d="M532.457 373.53H531.791V343.964H520.035L519.97 343.932L425.866 298.484L426.144 297.831L520.177 343.247H532.457V373.53Z" fill="black"></path><path d="M524.736 367.543H524.064V343.836L433.387 297.592L433.678 296.945L524.736 343.383V367.543Z" fill="black"></path><path d="M526.896 368.397H526.229V343.836L435.96 297.082L436.251 296.441L526.896 343.383V368.397Z" fill="black"></path><path d="M331.827 457.999C323.834 457.999 311.269 457.547 311.133 457.54H310.803V448.81H327.811C328.657 448.775 329.456 448.409 330.035 447.791C330.614 447.173 330.928 446.352 330.908 445.506V313.882L331.057 313.772C331.174 313.688 334.019 311.677 336.431 313.048C338.481 314.205 339.516 317.4 339.516 322.541V447.109C339.516 447.543 339.516 447.976 339.516 448.403C339.516 451.565 339.567 454.294 337.918 456.079C336.741 457.372 334.743 457.999 331.827 457.999ZM311.489 456.835C313.513 456.906 324.558 457.281 331.827 457.281C334.556 457.281 336.399 456.725 337.466 455.574C338.921 454.003 338.895 451.41 338.869 448.409C338.869 447.982 338.869 447.549 338.869 447.116V322.541C338.869 317.691 337.951 314.703 336.14 313.675C334.329 312.647 332.176 313.901 331.613 314.27V445.506C331.632 446.017 331.55 446.528 331.371 447.007C331.191 447.487 330.919 447.927 330.569 448.3C330.219 448.674 329.799 448.975 329.332 449.186C328.865 449.397 328.362 449.513 327.85 449.528H311.489V456.835Z" fill="black"></path><path d="M311.153 319.541L310.998 318.842L331.18 313.721L331.335 314.419L311.153 319.541Z" fill="black"></path><path d="M15.2358 431.001V425.479L168.277 413.936V420.816L149.905 422.045L15.2358 431.001ZM15.8825 426.145V430.245L127.815 422.801L167.579 420.157V414.712L163.983 414.983L15.8825 426.145Z" fill="black"></path><path d="M181.153 422.317L167.909 420.842L167.973 420.131L180.48 421.521V416.956L167.883 414.679L167.999 413.975L181.153 416.354V422.317Z" fill="black"></path><path d="M33.0709 431.563L30.9951 431.492L16.9364 431.026V430.173L127.841 422.801L166.945 420.201L166.99 420.913L149.905 422.051L22.7629 430.503L33.0579 430.845L166.945 422.432L166.99 423.144L164.003 423.338L33.0709 431.563Z" fill="black"></path><path d="M17.2593 431.032L15.5651 430.981L15.5845 430.263L17.2852 430.321L17.2593 431.032Z" fill="black"></path><path d="M166.984 423.144L166.945 422.433L180.797 421.56L180.835 422.277L166.984 423.144Z" fill="black"></path><path d="M532.457 408.949L532.062 408.878L421.481 387.874V372.011L532.457 398.279V408.949ZM422.154 387.272L531.791 408.114V398.867L422.154 372.903V387.272Z" fill="black"></path><path d="M500.052 432.255L499.703 432.236L354.286 425.025L354.318 424.314L499.386 431.505V419.147L354.157 402.36L354.228 401.648L500.052 418.507V432.255Z" fill="black"></path><path d="M573.682 348.698L553.299 335.914V327.985L573.682 341.346V348.698ZM553.972 335.506L573.01 347.45V341.747L553.972 329.266V335.506Z" fill="black"></path><path d="M568.942 405.166L552.853 402.295V393.766L568.942 398.751V405.166ZM553.519 401.7L568.27 404.326V399.288L553.519 394.723V401.7Z" fill="black"></path><path d="M264.631 331.025H264.185V467.958H264.631V331.025Z" fill="black"></path><path d="M258.171 467.958H257.725L258.721 332.409H259.173L258.171 467.958Z" fill="black"></path><path d="M259.258 320.898H258.811L259.355 246.938L264.631 244.312V319.423H264.185V245.062L259.801 247.242L259.258 320.898Z" fill="black"></path><path d="M269.132 329.887H268.686V467.964H269.132V329.887Z" fill="black"></path><path d="M269.139 318.189H268.692V246.577L264.327 244.915L264.483 244.462L269.139 246.241V318.189Z" fill="black"></path><path d="M330.514 301.815L330.068 301.808L330.611 229.769L335.888 227.144V300.819H335.442V227.887L331.057 230.073L330.514 301.815Z" fill="black"></path><path d="M340.395 301.013H339.949V229.401L335.591 227.739L335.739 227.293L340.395 229.065V301.013Z" fill="black"></path><path d="M394.308 320.136H393.862V255.714L390.014 257.628L389.529 318.422L389.083 318.415L389.568 257.324L394.308 254.964V320.136Z" fill="black"></path><path d="M398.318 321.629H397.865V257.033L394.011 255.559L394.16 255.112L398.318 256.697V321.629Z" fill="black"></path><path d="M192.204 349.396H191.757V464.912H192.204V349.396Z" fill="black"></path><path d="M187.22 350.533L186.282 464.887L186.728 464.89L187.666 350.537L187.22 350.533Z" fill="black"></path><path d="M187.71 340.532L187.257 340.525L187.71 279.525L192.204 277.287V339.29H191.758V278.037L188.156 279.835L187.71 340.532Z" fill="black"></path><path d="M195.98 348.433H195.534V464.905H195.98V348.433Z" fill="black"></path><path d="M195.98 338.254H195.534V279.271L191.906 277.887L192.055 277.435L195.98 278.935V338.254Z" fill="black"></path><path d="M137.256 354.37L136.81 354.364L137.223 298.388L141.246 296.39V353.271H140.8V297.14L137.67 298.692L137.256 354.37Z" fill="black"></path><path d="M141.246 362.324H140.8V416.354H141.246V362.324Z" fill="black"></path><path d="M141.246 424.418H140.8V462.074H141.246V424.418Z" fill="black"></path><path d="M136.757 363.325L136.32 416.667L136.766 416.671L137.204 363.328L136.757 363.325Z" fill="black"></path><path d="M136.467 462.073L136.021 462.067V461.705L136.293 424.702H136.745L136.467 462.073Z" fill="black"></path><path d="M144.583 361.477H144.137V416.107H144.583V361.477Z" fill="black"></path><path d="M144.583 424.21H144.137V462.073H144.583V424.21Z" fill="black"></path><path d="M144.583 352.359H144.13V298.2L140.949 296.984L141.097 296.538L144.583 297.864V352.359Z" fill="black"></path><path d="M101.308 372.451H100.862V419.367H101.308V372.451Z" fill="black"></path><path d="M101.308 426.928H100.862V459.856H101.308V426.928Z" fill="black"></path><path d="M97.2917 459.862H96.8455V459.7L97.0847 427.166L97.5309 427.172L97.2917 459.862Z" fill="black"></path><path d="M97.4966 373.29L97.1165 419.622L97.5627 419.626L97.9428 373.293L97.4966 373.29Z" fill="black"></path><path d="M97.9902 365.144L97.5439 365.138L97.8544 322.231L101.308 320.511V364.232H100.861V321.254L98.3006 322.535L97.9902 365.144Z" fill="black"></path><path d="M104.114 371.739H103.668V419.153H104.114V371.739Z" fill="black"></path><path d="M104.114 426.752H103.668V459.861H104.114V426.752Z" fill="black"></path><path d="M104.114 363.456H103.668V322.121L101.01 321.105L101.159 320.659L104.114 321.784V363.456Z" fill="black"></path><path d="M49.1664 430.205H48.7202V457.637H49.1664V430.205Z" fill="black"></path><path d="M49.1665 385.676H48.7203V423.299H49.1665V385.676Z" fill="black"></path><path d="M45.6263 430.377L45.4028 457.614L45.849 457.618L46.0725 430.381L45.6263 430.377Z" fill="black"></path><path d="M46.114 423.532L45.6678 423.526L45.9459 386.381H46.3921L46.114 423.532Z" fill="black"></path><path d="M46.4438 379.286L45.9976 379.28L46.2498 344.683L49.1663 343.234V378.536H48.72V343.984L46.696 344.987L46.4438 379.286Z" fill="black"></path><path d="M51.4621 430.057H51.0159V457.637H51.4621V430.057Z" fill="black"></path><path d="M51.4621 385.094H51.0159V423.124H51.4621V385.094Z" fill="black"></path><path d="M51.4623 377.902H51.0161V344.657L48.8691 343.835L49.0179 343.383L51.4623 344.32V377.902Z" fill="black"></path><path d="M520.222 343.609H519.996V365.493H520.222V343.609Z" fill="black"></path><path d="M588.685 373.059L572.312 363.617L572.628 362.983L588.013 371.862V341.482L578.714 334.278L579.108 333.702L588.685 341.119V373.059Z" fill="black"></path><path d="M588.685 450.582H588.012V393.552L572.357 387.68L572.583 387.008L588.685 393.041V450.582Z" fill="black"></path><path d="M588.246 398.674L572.37 393.177L572.577 392.498L588.453 397.995L588.246 398.674Z" fill="black"></path><path d="M309.265 470.597H306.801V320.246H307.021V470.358H309.039V319.677H309.265V470.597Z" fill="black"></path><path d="M307.021 307.764H306.801V192.262L309.265 190.387V307.15H309.039V190.852L307.021 192.385V307.764Z" fill="black"></path><path d="M310.959 306.626L310.907 191.531L309.109 190.73L309.193 190.51L311.133 191.37V191.454L311.179 306.626H310.959Z" fill="black"></path><path d="M349.772 304.13H349.546V204.504L347.528 206.037V303.335H347.309V205.914L349.772 204.045V304.13Z" fill="black"></path><path d="M351.46 304.809L351.415 205.183L349.617 204.381L349.701 204.161L351.641 205.021V205.105L351.686 304.809H351.46Z" fill="black"></path><path d="M331.012 229.885H330.786V196.692L333.249 194.816V228.773H333.023V195.282L331.012 196.815V229.885Z" fill="black"></path><path d="M334.905 227.835L334.892 195.954L333.094 195.159L333.178 194.939L335.118 195.799L335.131 227.835H334.905Z" fill="black"></path><path d="M364.62 309.458H364.394V215.497L362.376 217.029V308.65H362.156V216.907L364.62 215.031V309.458Z" fill="black"></path><path d="M366.301 310.138L366.263 216.176L364.465 215.374L364.549 215.154L366.489 216.014V216.092L366.528 310.138H366.301Z" fill="black"></path><path d="M378.898 314.606H378.678V224.447L376.661 225.986V313.798H376.441V225.864L378.898 223.988V314.606Z" fill="black"></path><path d="M380.586 315.297L380.547 225.125L378.75 224.33L378.834 224.11L380.774 224.97V225.048L380.813 315.297H380.586Z" fill="black"></path><path d="M389.73 318.518H389.51V234.172L391.968 232.297V256.444H391.748V232.762L389.73 234.295V318.518Z" fill="black"></path><path d="M393.649 320.013L393.617 233.443L391.812 232.641L391.903 232.421L393.837 233.281V233.359L393.875 320.013H393.649Z" fill="black"></path><path d="M406.278 324.19H406.051V243.071L404.111 244.545V323.407H403.892V244.423L406.278 242.605V324.19Z" fill="black"></path><path d="M407.895 324.849L407.863 243.718L406.123 242.948L406.207 242.729L408.082 243.563V243.64L408.121 324.849H407.895Z" fill="black"></path><path d="M417.692 328.626H417.466V248.853L415.468 250.372V327.818H415.248V250.25L417.692 248.394V328.626Z" fill="black"></path><path d="M419.354 329.311L419.321 249.525L417.537 248.73L417.621 248.51L419.541 249.363V249.447L419.58 329.311H419.354Z" fill="black"></path><path d="M428.892 299.591H428.666V332.7H428.892V299.591Z" fill="black"></path><path d="M431.117 300.657H430.891V333.508H431.117V300.657Z" fill="black"></path><path d="M432.979 301.557H432.753V334.194H432.979V301.557Z" fill="black"></path><path d="M442.318 306.058H442.091V337.57H442.318V306.058Z" fill="black"></path><path d="M444.542 307.131H444.316V338.378H444.542V307.131Z" fill="black"></path><path d="M446.405 308.023H446.178V339.057H446.405V308.023Z" fill="black"></path><path d="M455.186 312.259H454.96V342.239H455.186V312.259Z" fill="black"></path><path d="M457.404 313.332H457.177V343.053H457.404V313.332Z" fill="black"></path><path d="M459.273 314.225H459.047V343.726H459.273V314.225Z" fill="black"></path><path d="M468.049 318.461H467.822V346.915H468.049V318.461Z" fill="black"></path><path d="M470.266 319.534H470.04V347.716H470.266V319.534Z" fill="black"></path><path d="M472.135 320.427H471.909V348.395H472.135V320.427Z" fill="black"></path><path d="M480.911 324.662H480.685V351.583H480.911V324.662Z" fill="black"></path><path d="M483.129 325.729H482.902V352.385H483.129V325.729Z" fill="black"></path><path d="M485.004 326.628H484.778V353.064H485.004V326.628Z" fill="black"></path><path d="M493.773 330.863H493.547V356.245H493.773V330.863Z" fill="black"></path><path d="M495.991 331.931H495.765V357.054H495.991V331.931Z" fill="black"></path><path d="M497.866 332.829H497.64V357.732H497.866V332.829Z" fill="black"></path><path d="M513.432 340.338H513.206V363.379H513.432V340.338Z" fill="black"></path><path d="M515.65 341.405H515.424V364.18H515.65V341.405Z" fill="black"></path><path d="M517.519 342.304H517.293V364.866H517.519V342.304Z" fill="black"></path><path d="M504.372 335.972H504.146V360.093H504.372V335.972Z" fill="black"></path><path d="M506.596 337.039H506.37V360.895H506.596V337.039Z" fill="black"></path><path d="M508.459 337.938H508.233V361.581H508.459V337.938Z" fill="black"></path><path d="M280.086 315.247V205.823L282.427 204.045V314.626L280.086 315.247ZM280.306 205.959V314.936L282.208 314.419V204.485L280.306 205.959Z" fill="black"></path><path d="M282.427 469.07H280.087V326.925L282.427 326.33V469.07ZM280.306 468.831H282.208V326.634L280.306 327.113V468.831Z" fill="black"></path><path d="M284.283 326.02H284.057V469.154H284.283V326.02Z" fill="black"></path><path d="M284.018 314.011L283.973 205.144L282.272 204.381L282.357 204.161L284.2 204.982V205.06L284.245 314.011H284.018Z" fill="black"></path><path d="M254.323 322.315V219.132L256.548 217.438V321.707L254.323 322.315ZM254.537 219.287V322.004L256.315 321.519V217.903L254.537 219.287Z" fill="black"></path><path d="M256.535 467.88H254.323V333.463L256.548 332.9L256.535 467.88ZM254.537 467.648H256.315V333.204L254.537 333.651V467.648Z" fill="black"></path><path d="M258.029 321.144L257.984 218.491L256.38 217.779L256.47 217.56L258.203 218.336V218.413L258.249 321.144H258.029Z" fill="black"></path><path d="M258.288 332.609H258.061V467.958H258.288V332.609Z" fill="black"></path><path d="M233.836 327.927V229.691L235.97 228.067V327.345L233.836 327.927ZM234.063 229.807V327.623L235.744 327.163V228.533L234.063 229.807Z" fill="black"></path><path d="M235.971 466.755H233.837V338.655L235.971 338.112V466.755ZM234.063 466.515H235.744V338.416L234.063 338.843V466.515Z" fill="black"></path><path d="M237.639 337.854H237.413V466.827H237.639V337.854Z" fill="black"></path><path d="M237.374 326.809L237.335 229.09L235.815 228.411L235.9 228.191L237.561 228.935V229.013L237.6 326.809H237.374Z" fill="black"></path><path d="M213.971 333.378V239.882L216.014 238.33V332.822L213.971 333.378ZM214.191 239.979V333.1L215.788 332.667V238.796L214.191 239.979Z" fill="black"></path><path d="M216.014 465.74H213.971V343.693L216.014 343.176V465.74ZM214.191 465.5H215.788V343.48L214.191 343.881V465.5Z" fill="black"></path><path d="M217.599 342.931H217.373V465.798H217.599V342.931Z" fill="black"></path><path d="M217.346 332.306L217.307 239.321L215.859 238.674L215.943 238.454L217.527 239.159V239.243L217.566 332.306H217.346Z" fill="black"></path><path d="M195.754 338.384V249.228L197.694 247.74V337.841L195.754 338.384ZM195.981 249.35V338.074L197.487 337.66V248.199L195.981 249.35Z" fill="black"></path><path d="M197.714 464.867H195.774V348.317L197.714 347.819V464.867ZM195.981 464.628H197.487V348.123L195.981 348.505V464.628Z" fill="black"></path><path d="M199.227 347.593H199V464.912H199.227V347.593Z" fill="black"></path><path d="M198.975 337.343L198.936 248.697L197.558 248.083L197.642 247.863L199.162 248.536V248.613L199.201 337.343H198.975Z" fill="black"></path><path d="M179.147 342.936V257.75L181.029 256.314V342.419L179.147 342.936ZM179.367 257.873V342.626L180.809 342.231V256.793L179.367 257.873Z" fill="black"></path><path d="M181.029 463.962H179.148V421.747H179.367V463.723H180.81V352.353L179.367 352.722V416.374H179.148V352.534L181.029 352.049V463.962Z" fill="black"></path><path d="M182.485 351.842H182.258V464.007H182.485V351.842Z" fill="black"></path><path d="M182.226 341.941L182.194 257.246L180.875 256.657L180.965 256.438L182.414 257.084V257.162L182.452 341.941H182.226Z" fill="black"></path><path d="M163.874 347.127V265.588L165.691 264.204V346.629L163.874 347.127ZM164.1 265.711V346.817L165.464 346.448V264.67L164.1 265.711Z" fill="black"></path><path d="M163.874 414.756V356.381L165.691 355.915V414.588L163.874 414.756ZM164.1 356.594V414.497L165.464 414.394V356.245L164.1 356.594Z" fill="black"></path><path d="M165.691 463.218H163.874V422.865L165.691 422.749V463.218ZM164.1 462.979H165.464V422.988L164.1 423.072V462.979Z" fill="black"></path><path d="M167.068 355.747H166.841V414.394H167.068V355.747Z" fill="black"></path><path d="M167.087 422.787H166.86V463.249H167.087V422.787Z" fill="black"></path><path d="M166.822 346.164L166.79 265.11L165.535 264.547L165.619 264.327L167.009 264.948V265.032L167.048 346.164H166.822Z" fill="black"></path><path d="M149.77 350.995V272.819L151.522 271.525V350.549L149.77 350.995ZM149.996 272.942V350.685L151.289 350.335V271.952L149.996 272.942Z" fill="black"></path><path d="M149.77 415.812V359.978L151.522 359.538V415.682L149.77 415.812ZM149.996 360.198V415.592L151.289 415.495V359.881L149.996 360.198Z" fill="black"></path><path d="M151.502 462.435H149.75V423.751L151.502 423.635V462.435ZM149.976 462.196H151.27V423.894L149.976 423.971V462.196Z" fill="black"></path><path d="M152.847 359.356H152.621V415.468H152.847V359.356Z" fill="black"></path><path d="M152.873 423.687H152.647V462.448H152.873V423.687Z" fill="black"></path><path d="M152.608 350.062L152.57 272.364L151.367 271.834L151.457 271.614L152.796 272.203V272.287L152.828 350.062H152.608Z" fill="black"></path><path d="M137.25 340.415H137.024V279.751L138.718 278.464V297.968H138.498V278.923L137.25 279.874V340.415Z" fill="black"></path><path d="M139.726 297.347L139.72 279.318L138.562 278.8L138.653 278.58L139.946 279.156L139.953 297.347H139.726Z" fill="black"></path><path d="M125.099 357.771V285.622L126.735 284.374V357.312L125.099 357.771ZM125.319 285.745V357.461L126.509 357.131V284.84L125.319 285.745Z" fill="black"></path><path d="M125.099 417.673V366.237L126.735 365.823V417.557L125.099 417.673ZM125.318 366.425V417.421L126.508 417.331V366.127L125.318 366.425Z" fill="black"></path><path d="M126.735 461.194H125.099V425.297L126.735 425.2V461.194ZM125.319 460.954H126.509V425.452L125.319 425.523V460.954Z" fill="black"></path><path d="M127.963 365.667H127.737V417.343H127.963V365.667Z" fill="black"></path><path d="M127.983 425.245H127.757V461.213H127.983V425.245Z" fill="black"></path><path d="M127.718 356.892L127.692 285.215L126.58 284.717L126.664 284.497L127.912 285.053V285.131L127.944 356.892H127.718Z" fill="black"></path><path d="M113.957 360.824V291.197L115.547 289.987V360.391L113.957 360.824ZM114.176 291.319V360.513L115.321 360.203V290.421L114.176 291.319Z" fill="black"></path><path d="M113.957 418.513V369.062L115.547 368.661V418.396L113.957 418.513ZM114.176 369.256V418.254L115.321 418.17V368.958L114.176 369.256Z" fill="black"></path><path d="M115.547 461.201H113.957V426.002L115.547 425.899V461.201ZM114.176 460.961H115.321V426.151L114.176 426.228V460.961Z" fill="black"></path><path d="M116.757 425.95H116.53V461.213H116.757V425.95Z" fill="black"></path><path d="M116.731 368.513H116.504V418.19H116.731V368.513Z" fill="black"></path><path d="M116.492 359.97L116.466 290.809L115.392 290.33L115.476 290.11L116.686 290.647V290.731L116.712 359.97H116.492Z" fill="black"></path><path d="M103.914 363.572L103.888 363.436H103.856V296.383L102.769 297.211V321.48H102.543V297.088L104.076 295.924V363.533L103.914 363.572Z" fill="black"></path><path d="M104.075 419.147H103.855V371.72H103.888L103.868 371.623L104.075 371.571V419.147Z" fill="black"></path><path d="M104.075 459.849H103.894V459.733H103.855V426.746H104.075V459.849Z" fill="black"></path><path d="M105.214 371.436H104.987V419.063H105.214V371.436Z" fill="black"></path><path d="M105.233 426.675H105.006V459.856H105.233V426.675Z" fill="black"></path><path d="M104.974 363.133L104.948 296.72L103.927 296.261L104.011 296.041L105.168 296.558V296.642L105.194 363.133H104.974Z" fill="black"></path><path d="M92.7393 366.643V301.918L94.2266 300.786V366.236L92.7393 366.643ZM92.9656 302.041V366.333L94.0067 366.048V301.252L92.9656 302.041Z" fill="black"></path><path d="M92.7393 420.118V374.443L94.2266 374.062V419.975L92.7393 420.118ZM92.9656 374.637V419.859L94.0067 419.781V374.365L92.9656 374.637Z" fill="black"></path><path d="M94.2266 459.57H92.7393V427.334L94.2266 427.243V459.57ZM92.9333 459.331H93.9744V427.515L92.9333 427.573V459.331Z" fill="black"></path><path d="M95.3321 373.938H95.1058V419.807H95.3321V373.938Z" fill="black"></path><path d="M95.3521 427.295H95.1258V459.57H95.3521V427.295Z" fill="black"></path><path d="M95.0935 365.842L95.0676 301.569L94.0718 301.129L94.1623 300.909L95.2875 301.414V301.491L95.3134 365.842H95.0935Z" fill="black"></path><path d="M84.1515 368.997V306.684L85.6065 305.578V368.603L84.1515 368.997ZM84.3778 306.807V368.667L85.3802 368.389V306.044L84.3778 306.807Z" fill="black"></path><path d="M84.1514 420.758V376.623L85.6064 376.254V420.654L84.1514 420.758ZM84.3777 376.784V420.48L85.38 420.402V376.558L84.3777 376.784Z" fill="black"></path><path d="M85.6064 459.099H84.1514V427.877L85.6064 427.78V459.099ZM84.3777 458.859H85.38V428.032L84.3777 428.104V458.859Z" fill="black"></path><path d="M86.6668 376.137H86.4404V420.46H86.6668V376.137Z" fill="black"></path><path d="M86.6864 427.838H86.46V459.098H86.6864V427.838Z" fill="black"></path><path d="M86.4278 368.222L86.4019 306.349L85.4513 305.922L85.5354 305.702L86.6218 306.194V306.271L86.6541 368.222H86.4278Z" fill="black"></path><path d="M76.3332 371.144V310.642L77.7494 309.568V370.756L76.3332 371.144ZM76.5531 310.764V370.834L77.5231 370.569V310.034L76.5531 310.764Z" fill="black"></path><path d="M76.3332 421.353V378.608L77.7494 378.252V421.243L76.3332 421.353ZM76.5531 378.795V421.094L77.5231 421.023V378.549L76.5531 378.795Z" fill="black"></path><path d="M77.7819 458.665H76.3657V428.369L77.7819 428.278V458.665ZM76.5856 458.426H77.5556V428.531L76.5856 428.589V458.426Z" fill="black"></path><path d="M78.545 370.388L78.5191 310.318L77.5944 309.911L77.6784 309.691L78.7454 310.157V310.241L78.7713 370.388H78.545Z" fill="black"></path><path d="M78.7778 378.135H78.5515V421.055H78.7778V378.135Z" fill="black"></path><path d="M78.8032 428.337H78.5768V458.666H78.8032V428.337Z" fill="black"></path><path d="M69.1289 373.117V314.192L70.5128 313.145V372.742L69.1289 373.117ZM69.3746 314.347V372.845L70.3059 372.593V313.604L69.3746 314.347Z" fill="black"></path><path d="M69.129 421.896V380.431L70.5129 380.088V421.792L69.129 421.896ZM69.3554 380.625V421.637L70.2866 421.572V380.386L69.3554 380.625Z" fill="black"></path><path d="M70.5128 458.336H69.1289V428.809L70.5128 428.725V458.336ZM69.3552 458.096H70.2865V428.996L69.3552 429.054V458.096Z" fill="black"></path><path d="M71.5222 379.984H71.2959V421.604H71.5222V379.984Z" fill="black"></path><path d="M71.5412 428.796H71.3149V458.323H71.5412V428.796Z" fill="black"></path><path d="M71.2827 372.374L71.2568 313.883L70.3579 313.482L70.442 313.262L71.4831 313.721V313.805L71.509 372.374H71.2827Z" fill="black"></path><path d="M62.3261 374.992V318.008L63.6777 316.979V374.617L62.3261 374.992ZM62.546 318.131V374.682L63.4513 374.436V317.439L62.546 318.131Z" fill="black"></path><path d="M62.3261 422.406V382.157L63.6777 381.814V422.341L62.3261 422.406ZM62.546 382.312V422.147L63.4513 422.083V382.118L62.546 382.312Z" fill="black"></path><path d="M63.6777 458.005H62.3262V429.241L63.6777 429.157V458.005ZM62.546 457.772H63.4514V429.409L62.546 429.468V457.772Z" fill="black"></path><path d="M64.6543 381.724H64.428V422.122H64.6543V381.724Z" fill="black"></path><path d="M64.6672 429.222H64.4409V457.999H64.6672V429.222Z" fill="black"></path><path d="M64.4152 374.262L64.3894 317.71L63.5228 317.316L63.6069 317.103L64.6157 317.549V317.626L64.6351 374.262H64.4152Z" fill="black"></path><path d="M55.5752 376.842V321.422L56.8685 320.42V376.48L55.5752 376.842ZM55.7951 321.545V376.512L56.6681 376.273V320.886L55.7951 321.545Z" fill="black"></path><path d="M55.5752 422.917V383.871L56.8685 383.541V422.82L55.5752 422.917ZM55.7951 384.058V422.658L56.6681 422.593V383.838L55.7951 384.058Z" fill="black"></path><path d="M56.8943 457.656H55.601V429.668L56.8943 429.591V457.656ZM55.795 457.417H56.668V429.843L55.795 429.895V457.417Z" fill="black"></path><path d="M57.8447 383.444H57.6184V422.633H57.8447V383.444Z" fill="black"></path><path d="M57.8645 429.656H57.6382V457.644H57.8645V429.656Z" fill="black"></path><path d="M57.6055 376.13L57.5861 321.137L56.739 320.762L56.823 320.542L57.806 320.982V321.059L57.8318 376.13H57.6055Z" fill="black"></path><path d="M51.268 378.019L51.2357 377.89H51.1904V323.692L50.3433 324.339V344.101H50.1169V324.216L51.4168 323.227V377.987L51.268 378.019Z" fill="black"></path><path d="M51.4168 423.118H51.1904V385.08H51.2357L51.2163 384.977L51.4168 384.932V423.118Z" fill="black"></path><path d="M51.4169 457.411H51.2423V457.288H51.1906V430.057H51.4169V457.411Z" fill="black"></path><path d="M52.3416 384.842H52.1152V423.047H52.3416V384.842Z" fill="black"></path><path d="M52.3611 429.998H52.1348V457.398H52.3611V429.998Z" fill="black"></path><path d="M52.1023 377.637L52.0829 323.937L51.2616 323.568L51.3457 323.349L52.3027 323.782V323.86L52.3286 377.637H52.1023Z" fill="black"></path><path d="M43.5664 380.134V327.281L44.8274 326.324V379.791L43.5664 380.134ZM43.7863 327.43V379.81L44.6075 379.591V326.809L43.7863 327.43Z" fill="black"></path><path d="M43.5664 423.823V386.917L44.8274 386.6V423.726L43.5664 423.823ZM43.7863 387.105V423.564L44.6075 423.506V386.898L43.7863 387.105Z" fill="black"></path><path d="M44.8017 457.023H43.5406V430.425L44.8017 430.341V457.023ZM43.7605 456.79H44.5818V430.593L43.7605 430.645V456.79Z" fill="black"></path><path d="M45.7329 386.516H45.5066V423.545H45.7329V386.516Z" fill="black"></path><path d="M45.7522 430.412H45.5259V457.01H45.7522V430.412Z" fill="black"></path><path d="M45.4996 379.449L45.4802 327.042L44.6719 326.687L44.7624 326.467L45.7001 326.887V326.965L45.7259 379.449H45.4996Z" fill="black"></path><path d="M38.9041 381.407V330.32L40.1521 329.376V381.11L38.9041 381.407ZM39.1304 330.424V381.104L39.9258 380.89V329.803L39.1304 330.424Z" fill="black"></path><path d="M38.9043 424.172V388.101L40.1524 387.784V424.075L38.9043 424.172ZM39.1306 388.289V423.914L39.926 423.856V388.069L39.1306 388.289Z" fill="black"></path><path d="M40.1524 456.829H38.9043V430.748L40.1524 430.671V456.829ZM39.1306 456.59H39.926V430.891L39.1306 430.936V456.59Z" fill="black"></path><path d="M41.0314 387.719H40.8051V423.9H41.0314V387.719Z" fill="black"></path><path d="M41.0506 430.709H40.8242V456.815H41.0506V430.709Z" fill="black"></path><path d="M40.7985 380.741L40.7726 330.042L39.9966 329.699L40.0807 329.479L40.9989 329.887V329.964L41.0183 380.741H40.7985Z" fill="black"></path><path d="M34.5709 382.603V331.924L35.8061 330.986V382.248L34.5709 382.603ZM34.7973 332.047V382.293L35.5797 382.08V331.452L34.7973 332.047Z" fill="black"></path><path d="M34.5709 424.502V389.194L35.8061 388.89V424.405L34.5709 424.502ZM34.7973 389.388V424.243L35.5797 424.185V389.187L34.7973 389.388Z" fill="black"></path><path d="M35.8061 456.835H34.5709V430.968L35.8061 430.891V456.835ZM34.7973 456.596H35.5797V431.162L34.7973 431.214V456.596Z" fill="black"></path><path d="M36.6921 430.981H36.4658V456.81H36.6921V430.981Z" fill="black"></path><path d="M36.6792 388.818H36.4529V424.23H36.6792V388.818Z" fill="black"></path><path d="M36.4397 381.938L36.4203 331.672L35.6508 331.329L35.7348 331.109L36.6402 331.51V331.594L36.666 381.938H36.4397Z" fill="black"></path><path d="M30.8916 383.606V333.812L32.1009 332.894V383.282L30.8916 383.606ZM31.1179 333.935V383.302L31.881 383.095V333.353L31.1179 333.935Z" fill="black"></path><path d="M30.8915 424.78V390.131L32.1008 389.827V424.689L30.8915 424.78ZM31.1179 390.318V424.521L31.8809 424.463V390.131L31.1179 390.318Z" fill="black"></path><path d="M32.1008 456.396H30.8915V431.014L32.1008 431.052V456.396ZM31.1179 456.156H31.868V431.285H31.1049L31.1179 456.156Z" fill="black"></path><path d="M32.9612 389.762H32.7349V424.507H32.9612V389.762Z" fill="black"></path><path d="M32.9739 431.201H32.7476V456.376H32.9739V431.201Z" fill="black"></path><path d="M32.7218 382.952L32.7024 333.566L31.9458 333.23L32.0299 333.01L32.9223 333.404V333.488L32.9481 382.952H32.7218Z" fill="black"></path><path d="M26.8887 384.711V336.107L28.0785 335.195V384.381L26.8887 384.711ZM27.115 336.211V384.381L27.8522 384.181V335.687L27.115 336.211Z" fill="black"></path><path d="M26.8887 425.077V391.146L28.0785 390.849V424.986L26.8887 425.077ZM27.115 391.334V424.825L27.8522 424.767V391.14L27.115 391.334Z" fill="black"></path><path d="M28.0785 456.304H26.8887V430.877L28.0785 430.916V456.304ZM27.115 456.065H27.8522V431.149H27.115V456.065Z" fill="black"></path><path d="M28.932 431.059H28.7056V456.279H28.932V431.059Z" fill="black"></path><path d="M28.9191 390.784H28.6927V424.819H28.9191V390.784Z" fill="black"></path><path d="M28.6804 384.058L28.661 335.868L27.9238 335.538L28.0079 335.318L28.8874 335.713V335.79L28.9068 384.058H28.6804Z" fill="black"></path><path d="M22.8789 385.811V337.712L24.0558 336.819V385.481L22.8789 385.811ZM23.0988 337.835V385.481L23.8295 385.281V337.278L23.0988 337.835Z" fill="black"></path><path d="M22.879 425.382V392.162L24.056 391.871V425.298L22.879 425.382ZM23.0989 392.35V425.129L23.8296 425.071V392.169L23.0989 392.35Z" fill="black"></path><path d="M24.0558 456.007H22.8789V430.748H24.0558V456.007ZM23.0988 455.768H23.8295V431.013H23.0988V455.768Z" fill="black"></path><path d="M24.8836 391.806H24.6572V425.116H24.8836V391.806Z" fill="black"></path><path d="M24.8966 430.93H24.6703V455.982H24.8966V430.93Z" fill="black"></path><path d="M24.6448 385.172L24.6254 337.486L23.9011 337.163L23.9852 336.936L24.8517 337.324V337.402L24.8647 385.172H24.6448Z" fill="black"></path><path d="M19.3552 386.775V339.723L20.5127 338.85V386.458L19.3552 386.775ZM19.5815 339.846V386.471L20.2864 386.277V339.309L19.5815 339.846Z" fill="black"></path><path d="M19.3552 425.647V393.061L20.5127 392.763V425.576L19.3552 425.647ZM19.5815 393.242V425.382L20.2864 425.33V393.061L19.5815 393.242Z" fill="black"></path><path d="M20.5127 455.826H19.3552V430.606L20.5127 430.651V455.826ZM19.5815 455.587H20.2864V430.897H19.5815V455.587Z" fill="black"></path><path d="M21.3208 392.711H21.0944V425.387H21.3208V392.711Z" fill="black"></path><path d="M21.3403 430.807H21.114V455.801H21.3403V430.807Z" fill="black"></path><path d="M21.0815 386.148L21.0685 339.503L20.3572 339.193L20.4412 338.973L21.2884 339.348V339.426L21.3078 386.148H21.0815Z" fill="black"></path><path d="M15.4362 387.848V341.74L16.5808 340.861V387.524L15.4362 387.848ZM15.6561 341.863V387.544L16.3545 387.35V341.333L15.6561 341.863Z" fill="black"></path><path d="M16.5808 455.923H15.4362V394.05L16.5808 393.759V425.86L15.682 425.924V430.496L16.5808 430.438V455.923ZM15.6561 455.684H16.348V430.69L15.6496 430.736L15.6561 455.684ZM15.6561 394.25V425.691L16.3545 425.64V394.063L15.6561 394.25Z" fill="black"></path><path d="M17.3889 430.678H17.1626V455.891H17.3889V430.678Z" fill="black"></path><path d="M17.3761 393.714H17.1497V425.685H17.3761V393.714Z" fill="black"></path><path d="M17.1367 387.228L17.1173 341.521L16.4254 341.217L16.5094 340.997L17.3436 341.366V341.443L17.363 387.228H17.1367Z" fill="black"></path><path d="M11.8986 388.819V343.772L13.0238 342.918V388.515L11.8986 388.819ZM12.1249 343.894V388.515L12.7716 388.327V343.384L12.1249 343.894Z" fill="black"></path><path d="M13.0236 455.406H11.8984V394.949L13.0236 394.664V455.406ZM12.1248 455.167H12.7714V394.968L12.1248 395.136V455.167Z" fill="black"></path><path d="M13.8064 394.619H13.5801V455.368H13.8064V394.619Z" fill="black"></path><path d="M13.567 388.21L13.5476 343.564L12.8686 343.26L12.9527 343.04L13.7675 343.402V343.486L13.7869 388.21H13.567Z" fill="black"></path><path d="M8.8335 389.666V345.343L9.94577 344.502V389.362L8.8335 389.666ZM9.05984 345.465V389.362L9.70651 389.181V344.968L9.05984 345.465Z" fill="black"></path><path d="M9.94602 455.263H8.83374V395.724L9.94602 395.446V455.263ZM9.06008 455.024H9.70675V395.75L9.06008 395.912V455.024Z" fill="black"></path><path d="M10.7151 395.408H10.4888V455.232H10.7151V395.408Z" fill="black"></path><path d="M10.4765 389.057L10.4571 345.135L9.79102 344.844L9.87508 344.624L10.6834 344.98V345.057L10.7028 389.057H10.4765Z" fill="black"></path><path d="M6.73202 389.756H5.61328V346.759L6.73202 345.912V389.756ZM5.83962 389.517H6.48629V346.371L5.83962 346.882V389.517Z" fill="black"></path><path d="M6.73202 449.288H5.61328V395.925H6.73202V449.288ZM5.83962 449.049H6.48629V396.164H5.83962V449.049Z" fill="black"></path><path d="M7.50124 396.048H7.2749V449.172H7.50124V396.048Z" fill="black"></path><path d="M7.26213 389.633L7.24273 346.552L6.57666 346.254L6.66073 346.034L7.46907 346.39V346.467L7.482 389.633H7.26213Z" fill="black"></path><path d="M3.66007 389.756H2.55426V348.369L3.66007 347.528V389.756ZM2.76766 389.517H3.41434V347.975L2.76766 348.479V389.517Z" fill="black"></path><path d="M3.66001 449.288H2.5542V395.925H3.66001V449.288ZM2.7676 449.049H3.41427V396.164H2.7676V449.049Z" fill="black"></path><path d="M4.42946 396.048H4.20312V449.172H4.42946V396.048Z" fill="black"></path><path d="M4.19036 389.633L4.17096 348.156L3.50488 347.852L3.58895 347.632L4.39729 347.994V348.072L4.41022 389.633H4.19036Z" fill="black"></path><path d="M588.258 344.153L515.747 293.182L515.928 292.878L515.96 292.904L588.446 343.855L588.258 344.153Z" fill="black"></path><path d="M588.258 346.74L446.204 249.642L446.385 249.345L588.439 346.443L588.258 346.74Z" fill="black"></path><path d="M588.265 349.339L522.595 305.721L522.77 305.417L588.439 349.041L588.265 349.339Z" fill="black"></path><path d="M553.946 329.804L522.065 309.246L522.24 308.936L554.121 329.5L553.946 329.804Z" fill="black"></path><path d="M588.265 351.939L573.23 342.238L573.405 341.935L588.44 351.635L588.265 351.939Z" fill="black"></path><path d="M553.545 332.811L521.541 312.783L521.709 312.473L553.713 332.5L553.545 332.811Z" fill="black"></path><path d="M588.264 354.538L573.106 345.052L573.275 344.741L588.433 354.228L588.264 354.538Z" fill="black"></path><path d="M553.144 335.837L446.521 271.143L446.689 270.833L553.313 335.526L553.144 335.837Z" fill="black"></path><path d="M588.265 357.151L572.932 347.845L573.094 347.528L573.139 347.561L588.433 356.84L588.265 357.151Z" fill="black"></path><path d="M588.272 359.763L446.385 276.361L446.547 276.051L588.433 359.452L588.272 359.763Z" fill="black"></path><path d="M588.271 362.383L446.249 281.587L446.404 281.271L588.427 362.066L588.271 362.383Z" fill="black"></path><path d="M588.271 365.007L446.113 286.805L446.268 286.488L588.426 364.69L588.271 365.007Z" fill="black"></path><path d="M588.278 367.633L532.205 337.841L532.354 337.518L588.427 367.316L588.278 367.633Z" fill="black"></path><path d="M588.278 370.272L532.05 341.443L532.199 341.12L588.42 369.949L588.278 370.272Z" fill="black"></path><path d="M572.402 365.059L532.205 345.193L532.347 344.87L572.538 364.736L572.402 365.059Z" fill="black"></path><path d="M572.402 367.996L532.211 348.881L532.347 348.551L572.538 367.673L572.402 367.996Z" fill="black"></path><path d="M572.402 370.937L532.211 352.552L532.341 352.223L572.538 370.608L572.402 370.937Z" fill="black"></path><path d="M572.409 373.887L532.211 356.239L532.341 355.909L572.531 373.557L572.409 373.887Z" fill="black"></path><path d="M572.408 376.829L532.218 359.918L532.341 359.582L572.531 376.499L572.408 376.829Z" fill="black"></path><path d="M572.408 379.778L532.218 363.598L532.334 363.262L572.531 379.441L572.408 379.778Z" fill="black"></path><path d="M572.415 382.733L532.218 367.284L532.334 366.941L572.525 382.397L572.415 382.733Z" fill="black"></path><path d="M572.415 385.689L532.225 370.957L532.328 370.621L572.525 385.352L572.415 385.689Z" fill="black"></path><path d="M588.194 394.147L532.425 374.708L532.528 374.372L588.297 393.811L588.194 394.147Z" fill="black"></path><path d="M588.194 396.831L354.383 319.502L354.486 319.159L354.596 319.198L533.821 378.478L533.99 378.53L588.291 396.488L588.194 396.831Z" fill="black"></path><path d="M588.2 399.521L354.383 326.344L354.48 326.001L588.291 399.178L588.2 399.521Z" fill="black"></path><path d="M588.2 402.21L354.389 333.172L354.48 332.829L588.291 401.861L588.2 402.21Z" fill="black"></path><path d="M553.144 395.175L354.39 339.988L354.474 339.639L553.228 394.826L553.144 395.175Z" fill="black"></path><path d="M588.2 404.907L568.567 399.456L568.651 399.106L588.284 404.558L588.2 404.907Z" fill="black"></path><path d="M553.151 398.487L354.389 346.785L354.474 346.442L553.228 398.137L553.151 398.487Z" fill="black"></path><path d="M588.206 407.604L568.567 402.495L568.645 402.152L588.284 407.255L588.206 407.604Z" fill="black"></path><path d="M588.207 410.307L354.396 353.574L354.467 353.225L588.285 409.957L588.207 410.307Z" fill="black"></path><path d="M421.786 375.529L354.396 360.351L354.467 360.002L421.85 375.179L421.786 375.529Z" fill="black"></path><path d="M588.207 413.017L532.088 400.375L532.16 400.025L588.278 412.668L588.207 413.017Z" fill="black"></path><path d="M421.786 381.124L354.402 367.11L354.467 366.761L421.85 380.774L421.786 381.124Z" fill="black"></path><path d="M588.213 415.734L532.095 404.068L532.153 403.712L588.278 415.384L588.213 415.734Z" fill="black"></path><path d="M421.792 386.71L354.402 373.861L354.461 373.505L421.85 386.354L421.792 386.71Z" fill="black"></path><path d="M588.213 418.449L532.095 407.747L532.153 407.397L588.271 418.093L588.213 418.449Z" fill="black"></path><path d="M588.22 421.165L354.402 380.592L354.461 380.243L588.271 420.815L588.22 421.165Z" fill="black"></path><path d="M588.219 423.894L354.409 387.318L354.46 386.962L588.265 423.544L588.219 423.894Z" fill="black"></path><path d="M588.219 426.623L354.409 394.03L354.454 393.675L588.265 426.267L588.219 426.623Z" fill="black"></path><path d="M588.226 429.358L354.415 400.723L354.454 400.374L588.265 429.002L588.226 429.358Z" fill="black"></path><path d="M588.226 432.093L499.703 422.749L499.736 422.393L588.259 431.738L588.226 432.093Z" fill="black"></path><path d="M588.233 434.843L499.703 426.986L499.735 426.63L588.258 434.487L588.233 434.843Z" fill="black"></path><path d="M588.232 437.583L499.709 431.207L499.729 430.852L588.252 437.228L588.232 437.583Z" fill="black"></path><path d="M588.232 440.339L354.421 427.399L354.441 427.043L588.252 439.976L588.232 440.339Z" fill="black"></path><path d="M588.239 443.088L354.428 434.034L354.441 433.679L588.252 442.732L588.239 443.088Z" fill="black"></path><path d="M588.239 445.849L354.428 440.656L354.435 440.301L588.246 445.487L588.239 445.849Z" fill="black"></path><path d="M459.493 245.496H458.846V119.207C458.846 110.122 461.058 107.263 464.621 105.627C470.441 102.918 639.145 16.257 643.361 13.7997C645.948 12.3123 647.435 11.8597 648.205 12.3511C648.806 12.7327 648.8 13.541 648.793 14.1877V244.022L659.929 241.648C659.929 232.31 660.136 15.688 659.929 6.78329C659.858 3.93793 659.282 2.14665 658.073 1.30598C655.971 -0.187836 652.091 1.40945 647.985 3.11019L647.72 3.22013C643.652 4.90147 577.433 39.8671 524.205 67.965C491.652 85.1665 463.489 100.027 460.611 101.443C453.226 105.045 452.05 107.703 452.05 114.377V239.98H451.403V114.396C451.403 107.47 452.696 104.528 460.359 100.816C463.256 99.4062 491.399 84.5521 523.966 67.3442C577.181 39.2462 643.413 4.26774 647.513 2.57992L647.778 2.46999C652.052 0.704574 656.081 -0.963841 658.474 0.736908C659.851 1.71338 660.556 3.69867 660.634 6.79623C660.841 15.8496 660.634 239.708 660.634 241.965V242.263L648.166 244.92V14.1748C648.166 13.6574 648.166 13.1271 647.894 12.9525C647.623 12.7779 646.53 12.7973 643.723 14.4205C639.5 16.8584 470.732 103.545 464.931 106.248C461.607 107.8 459.551 110.503 459.551 119.181L459.493 245.496Z" fill="black"></path><path d="M456.551 243.788L454.313 242.003V113.73C454.313 108.795 457.236 104.883 462.991 102.089C465.85 100.712 498.998 83.3359 537.359 63.2891L537.495 63.2115C587.211 37.1894 643.549 7.69468 646.097 6.64061C648.884 5.48306 651.089 4.97219 652.803 6.22674C655.538 8.21849 655.978 14.239 655.978 27.8579V243.083H655.532V27.8709C655.532 14.4265 655.118 8.47069 652.551 6.63414C650.992 5.496 648.91 5.98747 646.258 7.09974C643.743 8.14089 587.411 37.6356 537.695 63.6577L537.553 63.7288C499.173 83.8209 466.024 101.171 463.185 102.529C457.605 105.219 454.779 108.996 454.779 113.717V241.758L456.124 242.831V113.73C456.124 109.552 458.613 106.319 463.748 103.848C466.639 102.458 499.858 85.0949 538.322 64.9316L538.458 64.8605C588.084 38.8837 644.325 9.44717 646.789 8.42542C649.453 7.31961 650.914 7.13208 651.833 7.77875C653.87 9.25963 654.225 15.4289 654.225 27.8256V243.083H653.779V27.8709C653.779 16.1596 653.43 9.5571 651.581 8.20555C650.811 7.64941 649.427 7.84988 646.95 8.85222C644.474 9.85457 588.271 39.2976 538.659 65.2679L538.516 65.3391C500.059 85.4958 466.807 102.885 463.91 104.282C458.956 106.674 456.551 109.759 456.551 113.73V243.788Z" fill="black"></path><path d="M473.442 256.25H472.776V128.494L459.907 111.247L460.431 110.801L473.442 128.242V256.25Z" fill="black"></path><path d="M477.309 258.96H476.636V126.89L462.235 107.574L462.759 107.128L477.309 126.638V258.96Z" fill="black"></path><path d="M641.693 452.962H593.503V452.244H641.02V46.2633L477.114 127.091L476.83 126.438L641.693 45.1445V452.962Z" fill="black"></path><path d="M648.114 81.0407L641.033 45.7776L641.686 45.6289L648.767 80.8919L648.114 81.0407Z" fill="black"></path><path d="M674.369 453.032H674.033L641.357 452.961V452.243L673.697 452.314L673.251 83.6401L659.03 2.39862L659.69 2.26929L673.923 83.5754V83.6013L674.369 453.032Z" fill="black"></path><path d="M670.994 66.885H670.321V452.67H670.994V66.885Z" fill="black"></path><path d="M660.679 247.688H660.007V452.605H660.679V247.688Z" fill="black"></path><path d="M653.495 249.221L648.231 244.739L648.651 244.183L653.682 248.47L664.016 246.692L660 242.185L660.485 241.693L665.381 247.184L653.495 249.221Z" fill="black"></path><path d="M665.031 246.938H664.359V69.7178L670.987 98.9732L670.334 99.1414L665.031 75.7254V246.938Z" fill="black"></path><path d="M651.031 246.938H650.358V453.537H651.031V246.938Z" fill="black"></path><path d="M682.576 452.961H674.033V452.243H681.903V308.074L673.496 275.618L674.143 275.424L682.576 307.977V452.961Z" fill="black"></path><path d="M588.355 372.103H572.473V372.82H588.355V372.103Z" fill="black"></path><path d="M623.677 90.3145H623.45V141.977H623.677V90.3145Z" fill="black"></path><path d="M620.948 193.73V147.506L623.67 146.491V192.87L620.948 193.73ZM621.174 147.707V193.42L623.45 192.722V146.86L621.174 147.707Z" fill="black"></path><path d="M620.948 243.213V198.185L623.67 197.351V242.488L620.948 243.213ZM621.174 198.398V242.909L623.45 242.333V197.713L621.174 198.398Z" fill="black"></path><path d="M620.948 292.471V247.637L623.67 246.945V291.986L620.948 292.471ZM621.174 247.851V292.219L623.45 291.805V247.249L621.174 247.851Z" fill="black"></path><path d="M620.948 342.154V296.887L623.67 296.402V341.838L620.948 342.154ZM621.174 297.075V341.889L623.45 341.611V296.661L621.174 297.075Z" fill="black"></path><path d="M620.948 391.56V347.011L623.67 346.623V391.347L620.948 391.56ZM621.174 347.218V391.302L623.45 391.127V346.895L621.174 347.218Z" fill="black"></path><path d="M623.677 424.107H623.45V452.606H623.677V424.107Z" fill="black"></path><path d="M623.677 396.035H623.45V419.302H623.677V396.035Z" fill="black"></path><path d="M623.677 54.4824H623.45V85.6132H623.677V54.4824Z" fill="black"></path><path d="M607.245 152.912L607.167 152.686L621.025 147.506L621.096 147.732L607.245 152.912Z" fill="black"></path><path d="M607.245 148.211L607.167 147.985L623.521 141.867L623.599 142.094L607.245 148.211Z" fill="black"></path><path d="M573.87 259.794V254.853H573.954L604.819 247.016V251.963H604.729L573.87 259.794ZM574.096 255.034V259.49L604.593 251.775V247.313L574.096 255.034Z" fill="black"></path><path d="M607.096 299.539V294.727L623.541 291.766L623.58 291.998L607.316 294.928V299.261L621.045 296.848L621.077 297.081L607.096 299.539Z" fill="black"></path><path d="M607.219 349.21L607.193 348.977L621.045 346.998L621.077 347.231L607.219 349.21Z" fill="black"></path><path d="M607.219 343.835L607.193 343.603L623.547 341.585L623.573 341.824L621.07 342.128L607.219 343.835Z" fill="black"></path><path d="M607.213 397.509L607.2 397.27L623.554 395.918L623.567 396.157L607.213 397.509Z" fill="black"></path><path d="M607.212 392.621L607.2 392.389L623.554 391.121L623.567 391.354L607.212 392.621Z" fill="black"></path><path d="M621.174 396.242H620.948V419.387H621.174V396.242Z" fill="black"></path><path d="M621.174 424.197H620.948V452.01H621.174V424.197Z" fill="black"></path><path d="M621.174 91.4141H620.948V142.915H621.174V91.4141Z" fill="black"></path><path d="M621.174 56.2725H620.948V86.7049H621.174V56.2725Z" fill="black"></path><path d="M604.593 321.319V276.052L607.316 275.489V320.866L604.593 321.319ZM604.82 276.272V321.047L607.096 320.685V275.806L604.82 276.272Z" fill="black"></path><path d="M604.593 365.997V325.529L607.316 325.121V365.726L604.593 365.997ZM604.82 325.735V365.739L607.096 365.512V325.419L604.82 325.735Z" fill="black"></path><path d="M589.494 372.464V367.246H589.591L621.174 364.142V369.192H621.071L589.494 372.464ZM589.714 367.459V372.199L620.948 368.966V364.4L589.714 367.459Z" fill="black"></path><path d="M607.322 424.728H607.096V452.606H607.322V424.728Z" fill="black"></path><path d="M607.322 62.4355H607.096V123.21H607.322V62.4355Z" fill="black"></path><path d="M604.82 424.818H604.593V370.66L607.316 370.375V424.721H607.096V370.634L604.82 370.873V424.818Z" fill="black"></path><path d="M604.82 424.818H604.593V452.011H604.82V424.818Z" fill="black"></path><path d="M604.82 64.2334H604.593V124.219H604.82V64.2334Z" fill="black"></path><path d="M589.72 71.2246H589.494V100.499H589.72V71.2246Z" fill="black"></path><path d="M586.985 204.148V160.239L589.714 159.217V203.307L586.985 204.148ZM587.211 160.407V203.831L589.494 203.12V159.553L587.211 160.407Z" fill="black"></path><path d="M589.72 327.901H589.494V367.348H589.72V327.901Z" fill="black"></path><path d="M589.72 372.327H589.494V450.575H589.72V372.327Z" fill="black"></path><path d="M589.72 105.208H589.493V154.685H589.72V105.208Z" fill="black"></path><path d="M587.211 72.4592H586.985V101.598H587.211V72.4592Z" fill="black"></path><path d="M543.457 222.196V217.243L571.593 208.616V213.57L543.457 222.196ZM543.683 217.424V221.873L571.367 213.382V208.94L543.683 217.424Z" fill="black"></path><path d="M587.211 328.283H586.984V340.26H587.211V328.283Z" fill="black"></path><path d="M587.211 106.3H586.984V155.615H587.211V106.3Z" fill="black"></path><path d="M574.096 78.9265H573.87V136.59H574.096V78.9265Z" fill="black"></path><path d="M573.999 330.373L573.967 330.133L586.985 328.18V324.087L573.999 326.131L573.967 325.891L587.211 323.815V328.387L587.114 328.4L573.999 330.373Z" fill="black"></path><path d="M574.096 330.249H573.87V330.669H574.096V330.249Z" fill="black"></path><path d="M571.594 80.1611H571.367V137.599H571.594V80.1611Z" fill="black"></path><path d="M571.594 326.408H571.367V328.846H571.594V326.408Z" fill="black"></path><path d="M558.195 86.7705H557.968V114.325H558.195V86.7705Z" fill="black"></path><path d="M555.472 304.253V264.205L558.195 263.513V303.762L555.472 304.253ZM555.698 264.392V304.001L557.968 303.593V263.817L555.698 264.392Z" fill="black"></path><path d="M558.195 308.056H557.968V319.049H558.195V308.056Z" fill="black"></path><path d="M558.195 119.026H557.968V166.473H558.195V119.026Z" fill="black"></path><path d="M555.699 87.999H555.472V115.418H555.699V87.999Z" fill="black"></path><path d="M555.699 308.494H555.472V317.231H555.699V308.494Z" fill="black"></path><path d="M555.699 120.126H555.472V167.41H555.699V120.126Z" fill="black"></path><path d="M543.683 93.9229H543.457V148.838H543.683V93.9229Z" fill="black"></path><path d="M543.683 288.785H543.457V308.444H543.683V288.785Z" fill="black"></path><path d="M541.187 95.1514H540.961V149.84H541.187V95.1514Z" fill="black"></path><path d="M540.961 240.704V201.18L543.683 200.203V239.961L540.961 240.704ZM541.181 201.335V240.4L543.457 239.754V200.533L541.181 201.335Z" fill="black"></path><path d="M541.187 289.302H540.961V306.62H541.187V289.302Z" fill="black"></path><path d="M529.178 101.081H528.952V127.052H529.178V101.081Z" fill="black"></path><path d="M529.178 291.778H528.952V297.844H529.178V291.778Z" fill="black"></path><path d="M526.676 292.296H526.449V271.55L529.172 270.858V291.778H528.952V271.162L526.676 271.738V292.296Z" fill="black"></path><path d="M529.178 131.753H528.952V177.324H529.178V131.753Z" fill="black"></path><path d="M526.676 102.311H526.449V128.145H526.676V102.311Z" fill="black"></path><path d="M526.676 292.296H526.449V296.014H526.676V292.296Z" fill="black"></path><path d="M526.676 132.853H526.449V178.262H526.676V132.853Z" fill="black"></path><path d="M514.667 108.234H514.441V160.524H514.667V108.234Z" fill="black"></path><path d="M514.667 274.681H514.441V287.239H514.667V274.681Z" fill="black"></path><path d="M512.171 109.469H511.945V161.526H512.171V109.469Z" fill="black"></path><path d="M512.171 275.314H511.945V285.415H512.171V275.314Z" fill="black"></path><path d="M500.156 115.386H499.929V139.772H500.156V115.386Z" fill="black"></path><path d="M497.659 116.62H497.433V140.87H497.659V116.62Z" fill="black"></path><path d="M497.659 274.287H497.433V274.811H497.659V274.287Z" fill="black"></path><path d="M497.434 231.613V193.737L500.156 192.722V230.772L497.434 231.613ZM497.653 193.905V231.296L499.93 230.591V193.084L497.653 193.905Z" fill="black"></path><path d="M485.651 122.544H485.425V172.202H485.651V122.544Z" fill="black"></path><path d="M483.148 123.773H482.922V173.211H483.148V123.773Z" fill="black"></path><path d="M485.573 146.244L485.489 146.025L512.009 134.397L512.1 134.617L485.573 146.244Z" fill="black"></path><path d="M477.011 150.003L476.927 149.783L482.993 147.125L483.077 147.345L477.011 150.003Z" fill="black"></path><path d="M543.612 120.798L543.528 120.578L571.439 108.337L571.523 108.563L543.612 120.798Z" fill="black"></path><path d="M607.244 92.8948L607.16 92.6749L641.408 77.6592L641.453 77.7497L648.541 91.8472L648.34 91.9636L641.305 77.9631L607.244 92.8948Z" fill="black"></path><path d="M574.025 107.464L573.941 107.244L604.665 93.7676L604.749 93.9939L574.025 107.464Z" fill="black"></path><path d="M514.596 133.525L514.512 133.306L541.026 121.672L541.116 121.892L514.596 133.525Z" fill="black"></path><path d="M485.573 150.953L485.489 150.733L497.498 145.463L497.582 145.683L485.573 150.953Z" fill="black"></path><path d="M500.085 144.589L500.001 144.363L512.009 139.099L512.1 139.319L500.085 144.589Z" fill="black"></path><path d="M477.011 154.704L476.927 154.484L482.993 151.826L483.077 152.046L477.011 154.704Z" fill="black"></path><path d="M543.612 125.5L543.528 125.28L571.439 113.045L571.523 113.265L543.612 125.5Z" fill="black"></path><path d="M607.244 97.5959L607.16 97.3761L641.408 82.3604L641.453 82.4509L648.534 95.7594L648.34 95.8758L641.311 82.6643L607.244 97.5959Z" fill="black"></path><path d="M574.025 112.165L573.941 111.945L604.665 98.4746L604.749 98.6945L574.025 112.165Z" fill="black"></path><path d="M514.596 138.226L514.512 138.006L541.026 126.379L541.116 126.599L514.596 138.226Z" fill="black"></path><path d="M485.573 177.02L485.496 176.794L497.433 171.989V167.54L483.071 173.321L482.993 173.095L497.653 167.197V172.157L497.582 172.183L485.573 177.02Z" fill="black"></path><path d="M477.011 175.765L476.934 175.539L482.993 173.095L483.071 173.321L477.011 175.765Z" fill="black"></path><path d="M500.078 166.473L500.001 166.253L526.527 155.576L526.605 155.796L500.078 166.473Z" fill="black"></path><path d="M529.101 154.794L529.023 154.568L555.543 143.885L555.621 144.111L529.101 154.794Z" fill="black"></path><path d="M558.123 143.102L558.046 142.883L587.062 131.197L587.14 131.424L558.123 143.102Z" fill="black"></path><path d="M589.642 130.414L589.565 130.188L621.019 117.526L621.103 117.752L589.642 130.414Z" fill="black"></path><path d="M648.347 120.062L641.318 109.611L623.599 116.744L623.521 116.518L641.402 109.32L641.447 109.398L648.528 119.919L648.347 120.062Z" fill="black"></path><path d="M648.347 124.762L641.318 114.312L623.599 121.445L623.521 121.225L641.402 114.027L641.447 114.098L648.528 124.626L648.347 124.762Z" fill="black"></path><path d="M589.642 135.117L589.564 134.897L604.664 128.812L604.742 129.038L589.642 135.117Z" fill="black"></path><path d="M607.245 128.028L607.167 127.808L621.019 122.228L621.103 122.454L607.245 128.028Z" fill="black"></path><path d="M558.123 147.809L558.046 147.583L571.445 142.189L571.523 142.409L558.123 147.809Z" fill="black"></path><path d="M574.019 141.407L573.941 141.181L587.062 135.904L587.14 136.124L574.019 141.407Z" fill="black"></path><path d="M543.612 153.65L543.528 153.43L555.544 148.593L555.621 148.813L543.612 153.65Z" fill="black"></path><path d="M529.101 159.495L529.023 159.269L541.032 154.432L541.109 154.658L529.101 159.495Z" fill="black"></path><path d="M497.433 189.287V145.494L500.156 144.298V188.272L497.433 189.287ZM497.653 145.649V188.976L499.93 188.123V144.654L497.653 145.649Z" fill="black"></path><path d="M514.596 165.334L514.512 165.108L526.527 160.277L526.605 160.503L514.596 165.334Z" fill="black"></path><path d="M500.078 171.181L500 170.954L512.016 166.117L512.093 166.344L500.078 171.181Z" fill="black"></path><path d="M477.011 180.467L476.934 180.241L482.993 177.803L483.071 178.023L477.011 180.467Z" fill="black"></path><path d="M648.198 143.865L641.324 135.459L623.599 142.094L623.521 141.867L641.396 135.181L648.367 143.704L648.198 143.865Z" fill="black"></path><path d="M543.457 176.774V171.814L571.593 161.293V166.259L543.457 176.774ZM543.683 171.989V176.438L571.367 166.091V161.642L543.683 171.989Z" fill="black"></path><path d="M514.441 187.6V182.646L541.181 172.642V177.602L514.441 187.6ZM514.667 182.814V187.264L540.961 177.428V172.979L514.667 182.814Z" fill="black"></path><path d="M574.019 160.64L573.941 160.414L604.671 148.916L604.742 149.142L574.019 160.64Z" fill="black"></path><path d="M477.011 196.925L476.934 196.699L482.999 194.435L483.071 194.662L477.011 196.925Z" fill="black"></path><path d="M485.425 198.483V193.529L512.165 183.519V188.479L485.425 198.483ZM485.645 193.697V198.146L511.945 188.31V183.855L485.645 193.697Z" fill="black"></path><path d="M604.593 173.819V128.843L607.316 127.743V172.842L604.593 173.819ZM604.82 129.004V173.489L607.096 172.667V128.105L604.82 129.004Z" fill="black"></path><path d="M571.367 185.777V142.217L574.096 141.124V184.794L571.367 185.777ZM571.594 142.385V185.44L573.87 184.619V141.467L571.594 142.385Z" fill="black"></path><path d="M589.642 159.496L589.564 159.269L604.671 153.624L604.742 153.85L589.642 159.496Z" fill="black"></path><path d="M574.019 165.341L573.941 165.115L587.062 160.213L587.133 160.433L574.019 165.341Z" fill="black"></path><path d="M540.961 196.712V154.465L543.683 153.365V195.735L540.961 196.712ZM541.181 154.633V196.382L543.457 195.561V153.714L541.181 154.633Z" fill="black"></path><path d="M648.198 148.566L641.324 140.166L623.599 146.794L623.521 146.574L641.396 139.888L641.441 139.946L648.367 148.411L648.198 148.566Z" fill="black"></path><path d="M477.011 201.633L476.934 201.407L482.999 199.137L483.071 199.363L477.011 201.633Z" fill="black"></path><path d="M482.922 217.592V177.828L485.644 176.736V216.609L482.922 217.592ZM483.148 177.997V217.256L485.424 216.441V177.078L483.148 177.997Z" fill="black"></path><path d="M511.945 207.149V166.15L514.667 165.051V206.173L511.945 207.149ZM512.165 166.312V206.819L514.441 206.005V165.394L512.165 166.312Z" fill="black"></path><path d="M648.36 168.795L641.324 160.608L623.593 166.984L623.521 166.758L641.389 160.33L641.441 160.388L648.522 168.633L648.36 168.795Z" fill="black"></path><path d="M477.005 219.72L476.934 219.494L482.999 217.314L483.071 217.541L477.005 219.72Z" fill="black"></path><path d="M483.07 217.541L482.999 217.314L497.504 212.096L497.575 212.322L483.07 217.541Z" fill="black"></path><path d="M485.567 221.343L485.496 221.117L497.504 216.797L497.575 217.023L485.567 221.343Z" fill="black"></path><path d="M499.929 216.175V211.222H500.007L526.676 201.632V206.585H526.598L499.929 216.175ZM500.156 211.39V215.846L526.449 206.385V201.929L500.156 211.39Z" fill="black"></path><path d="M526.449 222.708V182.879L529.172 181.864V221.874L526.449 222.708ZM526.676 183.047V222.391L528.952 221.699V182.2L526.676 183.047Z" fill="black"></path><path d="M528.952 205.739V200.779H529.03L555.672 191.163V196.117H555.595L528.952 205.739ZM529.172 200.954V205.403L555.472 195.942V191.48L529.172 200.954Z" fill="black"></path><path d="M557.968 195.294V190.341L558.046 190.308L587.211 179.839V184.792L587.133 184.825L557.968 195.294ZM558.195 190.509V194.965L586.984 184.618V180.169L558.195 190.509Z" fill="black"></path><path d="M589.494 183.952V178.998H589.565L621.174 167.63V172.583L621.097 172.616L589.494 183.952ZM589.714 179.173V183.622L620.948 172.389V167.934L589.714 179.173Z" fill="black"></path><path d="M648.36 173.502L641.324 165.308L623.593 171.685L623.521 171.458L641.389 165.03L641.441 165.088L648.522 173.34L648.36 173.502Z" fill="black"></path><path d="M477.005 224.421L476.934 224.195L482.999 222.015L483.071 222.242L477.005 224.421Z" fill="black"></path><path d="M485.425 239.98V235.033L512.165 226.827V231.781L485.425 239.98ZM485.645 235.208V239.664L511.945 231.6V227.144L485.645 235.208Z" fill="black"></path><path d="M555.472 213.81V172.028L558.195 171.007V212.976L555.472 213.81ZM555.698 172.196V213.467L557.968 212.769V171.317L555.698 172.196Z" fill="black"></path><path d="M648.367 193.665L641.331 187.483L623.593 192.921L623.528 192.689L641.383 187.218L641.428 187.257L648.509 193.478L648.367 193.665Z" fill="black"></path><path d="M514.441 231.095V226.141L541.181 217.941V222.895L514.441 231.095ZM514.667 226.322V230.778L540.961 222.714V218.258L514.667 226.322Z" fill="black"></path><path d="M477.005 237.872L476.94 237.646L483 235.783L483.064 236.01L477.005 237.872Z" fill="black"></path><path d="M607.238 202.634L607.173 202.408L621.032 198.159L621.09 198.392L607.238 202.634Z" fill="black"></path><path d="M607.238 197.934L607.173 197.708L623.528 192.689L623.592 192.922L607.238 197.934Z" fill="black"></path><path d="M648.36 199.337L641.331 192.185L623.593 197.623L623.528 197.397L641.389 191.92L648.515 199.162L648.36 199.337Z" fill="black"></path><path d="M604.593 222.843V178.268L607.316 177.292V222.08L604.593 222.843ZM604.82 178.443V222.52L607.096 221.873V177.628L604.82 178.443Z" fill="black"></path><path d="M573.87 212.872V207.918L589.571 203.12L604.819 198.432V203.379H604.735L573.87 212.872ZM574.096 208.099V212.555L604.593 203.204V198.749L574.096 208.099Z" fill="black"></path><path d="M571.367 232.175V190.225L574.096 189.242V231.405L571.367 232.175ZM571.594 190.393V231.864L573.87 231.218V189.578L571.594 190.393Z" fill="black"></path><path d="M482.922 257.001V222.042L485.644 221.059V256.238L482.922 257.001ZM483.148 222.216V256.697L485.424 256.05V221.388L483.148 222.216Z" fill="black"></path><path d="M477.005 242.573L476.94 242.347L483 240.484L483.064 240.717L477.005 242.573Z" fill="black"></path><path d="M648.366 219.157L641.331 212.529L623.586 217.515L623.534 217.282L641.389 212.264L648.515 218.983L648.366 219.157Z" fill="black"></path><path d="M476.999 258.669L476.94 258.436L483.006 256.735L483.064 256.962L476.999 258.669Z" fill="black"></path><path d="M483.064 256.962L483.006 256.736L497.517 252.662L497.569 252.888L483.064 256.962Z" fill="black"></path><path d="M483.064 261.669L483.006 261.436L497.517 257.362L497.569 257.595L483.064 261.669Z" fill="black"></path><path d="M497.434 274.435V236.062L500.156 235.228V273.743L497.434 274.435ZM497.653 236.243V274.131L499.93 273.556V235.544L497.653 236.243Z" fill="black"></path><path d="M557.968 240.627V235.68H558.052L587.211 227.493V232.447H587.127L557.968 240.627ZM558.195 235.861V240.323L586.984 232.22V227.765L558.195 235.861Z" fill="black"></path><path d="M586.985 251.769V208.604L589.714 207.763V251.09L586.985 251.769ZM587.211 208.779V251.459L589.494 250.877V208.067L587.211 208.779Z" fill="black"></path><path d="M589.494 231.787V226.833H589.578L621.174 217.961V222.914H621.09L589.494 231.787ZM589.714 227.021V231.476L620.948 222.708V218.252L589.714 227.021Z" fill="black"></path><path d="M648.36 224.951L641.324 217.236L623.586 222.216L623.534 221.983L641.395 216.965L648.522 224.783L648.36 224.951Z" fill="black"></path><path d="M511.945 248.853V211.605L514.667 210.622V248.09L511.945 248.853ZM512.165 211.773V248.549L514.441 247.903V210.958L512.165 211.773Z" fill="black"></path><path d="M499.929 256.93V251.983H500.014L526.676 244.507V249.454H526.592L499.929 256.93ZM500.156 252.164V256.626L526.449 249.241V244.779L500.156 252.164Z" fill="black"></path><path d="M648.366 244.552L641.331 238.02L623.586 242.508L623.534 242.275L641.389 237.762L648.515 244.371L648.366 244.552Z" fill="black"></path><path d="M511.945 275.464V253.315L514.667 252.552V274.778L511.945 275.464ZM512.165 253.477V275.147L514.441 274.565V252.837L512.165 253.477Z" fill="black"></path><path d="M500.065 273.769L500.013 273.536L512.029 270.497L512.08 270.73L500.065 273.769Z" fill="black"></path><path d="M526.449 267.095V227.163L529.172 226.329V266.423L526.449 267.095ZM526.676 227.344V266.791L528.952 266.216V226.646L526.676 227.344Z" fill="black"></path><path d="M528.952 248.781V243.86H529.036L555.673 236.326V241.273H555.589L528.952 248.781ZM529.172 244.015V248.477L555.472 241.092V236.637L529.172 244.015Z" fill="black"></path><path d="M586.985 298.582V256.231L589.714 255.539V298.09L586.985 298.582ZM587.211 256.419V298.304L589.494 297.89V255.856L587.211 256.419Z" fill="black"></path><path d="M557.968 285.933V281.141H558.059L587.211 275.075V279.925L557.968 285.933ZM558.195 281.341V285.648L586.984 279.712V275.347L558.195 281.341Z" fill="black"></path><path d="M607.096 251.387V246.44L607.18 246.421L623.534 242.275L623.586 242.508L607.316 246.628V251.09L621.032 247.617L621.083 247.85L607.096 251.387Z" fill="black"></path><path d="M604.593 271.666V227.298L607.316 226.535V271.117L604.593 271.666ZM604.82 227.466V271.375L607.096 270.903V226.846L604.82 227.466Z" fill="black"></path><path d="M514.441 274.829V269.888H514.531L541.181 263.144V268.091H541.097L514.441 274.829ZM514.667 270.076V274.531L540.961 267.877V263.422L514.667 270.076Z" fill="black"></path><path d="M502.394 277.882L502.342 277.649L512.029 275.198L512.081 275.431L502.394 277.882Z" fill="black"></path><path d="M650.623 251.33L641.331 242.723L623.586 247.217L623.534 246.984L641.389 242.464L650.766 251.149L650.623 251.33Z" fill="black"></path><path d="M650.643 275.78L650.611 275.734L641.318 264.042L623.58 267.729L623.541 267.496L641.402 263.777L641.441 263.829L650.74 275.534L660.33 274.687L660.35 274.926L650.643 275.78Z" fill="black"></path><path d="M517.332 289.845L517.293 289.613L526.54 287.686L526.586 287.918L517.332 289.845Z" fill="black"></path><path d="M555.472 259.749V218.265L558.195 217.431V259.064L555.472 259.749ZM555.673 218.446V259.445L557.942 258.87V217.748L555.673 218.446Z" fill="black"></path><path d="M540.961 284.924V245.154L543.683 244.391V284.342L540.961 284.924ZM541.181 245.348V284.633L543.457 284.161V244.714L541.181 245.348Z" fill="black"></path><path d="M589.494 279.428V274.578H589.584L621.174 268.001V272.916L589.494 279.428ZM589.714 274.772V279.137L620.948 272.67V268.247L589.714 274.772Z" fill="black"></path><path d="M528.952 291.921V287.187H529.042L555.672 281.613V286.411L528.952 291.921ZM529.172 287.394V291.656L555.472 286.23V281.923L529.172 287.394Z" fill="black"></path><path d="M522.156 293.324L522.117 293.091L526.54 292.18L526.586 292.412L522.156 293.324Z" fill="black"></path><path d="M650.649 279.414L641.318 268.744L623.58 272.404L623.541 272.171L641.396 268.485L650.74 279.162L660.33 278.334L660.35 278.573L650.649 279.414Z" fill="black"></path><path d="M660.337 300.477L650.643 300.386L650.611 300.341L641.318 288.811L623.58 291.999L623.541 291.766L641.402 288.552L641.441 288.604L650.746 300.147L660.337 300.237V300.477Z" fill="black"></path><path d="M541.181 306.82L541.142 306.587L555.563 303.994L555.602 304.227L541.181 306.82Z" fill="black"></path><path d="M571.367 278.599V236.63L574.096 235.86V278.03L571.367 278.599ZM571.594 236.811V278.308L573.87 277.836V236.171L571.594 236.811Z" fill="black"></path><path d="M543.457 267.49V262.543H543.547L571.593 255.43V260.377H571.509L543.457 267.49ZM543.683 262.731V267.186L571.367 260.183V255.727L543.683 262.731Z" fill="black"></path><path d="M571.367 326.544V282.933L574.096 282.37V326.111L571.367 326.544ZM571.594 283.127V326.266L573.87 325.911V282.661L571.594 283.127Z" fill="black"></path><path d="M555.601 304.227L555.569 303.994L571.464 301.136L571.503 301.369L555.601 304.227Z" fill="black"></path><path d="M555.601 308.611L555.569 308.378L571.464 305.578L571.503 305.811L555.601 308.611Z" fill="black"></path><path d="M545.998 310.306L545.959 310.067L555.569 308.379L555.601 308.612L545.998 310.306Z" fill="black"></path><path d="M573.87 305.398V300.696H573.96L604.819 295.135V299.94H604.722L573.87 305.398ZM574.096 300.871V305.087L604.593 299.713V295.387L574.096 300.871Z" fill="black"></path><path d="M660.337 304.583H650.643L650.611 304.538L641.318 293.512L623.58 296.635L623.541 296.403L641.402 293.26L641.441 293.305L650.74 304.344H660.337V304.583Z" fill="black"></path><path d="M660.337 326.291H650.643L641.318 315.543L623.573 318.337L623.541 318.104L641.402 315.291L641.441 315.337L650.74 326.052H660.337V326.291Z" fill="black"></path><path d="M569.091 326.9L569.058 326.667L571.464 326.285L571.496 326.524L569.091 326.9Z" fill="black"></path><path d="M650.649 330.579L641.318 320.251L623.573 322.916L623.541 322.683L641.402 319.999L641.441 320.038L650.74 330.339L660.337 330.132L660.343 330.372L650.649 330.579Z" fill="black"></path><path d="M589.493 328.044V323.452H589.584L621.174 318.492V323.297L589.493 328.044ZM589.713 323.659V327.765L620.948 323.071V318.751L589.713 323.659Z" fill="black"></path><path d="M589.714 327.902H589.494V302.643L587.211 303.05V323.951H586.985V302.843L589.714 302.358V327.902Z" fill="black"></path><path d="M573.909 330.386L573.876 330.146L573.967 330.133L574 330.373L573.909 330.386Z" fill="black"></path><path d="M660.336 349.759H650.649L650.617 349.727L641.318 339.639L623.573 341.824L623.547 341.585L641.402 339.393L641.434 339.432L650.74 349.52H660.336V349.759Z" fill="black"></path><path d="M588.86 346.092L588.834 345.853L589.591 345.762L604.69 343.906L604.716 344.139L588.86 346.092Z" fill="black"></path><path d="M660.336 353.704H650.649L650.617 353.672L641.318 344.34L623.573 346.875L623.547 346.636L641.395 344.088L641.434 344.127L650.74 353.465H660.336V353.704Z" fill="black"></path><path d="M588.368 351.906L588.336 351.667L589.59 351.492L604.69 349.332L604.723 349.565L588.368 351.906Z" fill="black"></path><path d="M660.336 371.643H650.649L650.617 371.61L641.318 362.382L623.567 364.128L623.547 363.896L641.395 362.137L650.74 371.404H660.336V371.643Z" fill="black"></path><path d="M588.362 367.595L588.343 367.355L589.591 367.232L589.617 367.472L588.362 367.595Z" fill="black"></path><path d="M660.336 376.013H650.649L650.617 375.981L641.318 367.089L623.573 368.926L623.547 368.693L641.395 366.837L641.434 366.876L650.733 375.774H660.336V376.013Z" fill="black"></path><path d="M588.362 372.581L588.343 372.341L589.591 372.212L589.617 372.451L588.362 372.581Z" fill="black"></path><path d="M650.649 399.398L650.617 399.365L641.318 389.982L623.567 391.353L623.554 391.12L641.402 389.736L641.434 389.769L650.733 399.158L660.337 398.829L660.343 399.068L650.649 399.398Z" fill="black"></path><path d="M588.362 394.082L588.343 393.849L589.597 393.752L604.697 392.575L604.717 392.814L588.362 394.082Z" fill="black"></path><path d="M660.337 404.009H650.649L650.617 403.977L641.318 394.684L623.567 396.158L623.554 395.919L641.402 394.438L641.434 394.477L650.74 403.77H660.337V404.009Z" fill="black"></path><path d="M588.362 399.068L588.343 398.836L589.597 398.726L604.697 397.478L604.717 397.717L588.362 399.068Z" fill="black"></path><path d="M607.212 424.844L607.2 424.605L623.554 423.984L623.56 424.223L621.064 424.314L607.212 424.844Z" fill="black"></path><path d="M607.206 419.961L607.2 419.722L623.554 419.179L623.561 419.418L607.206 419.961Z" fill="black"></path><path d="M660.337 421.106H650.695L641.939 418.817L623.56 419.419L623.554 419.179L641.958 418.578L641.978 418.584L650.721 420.874H660.337V421.106Z" fill="black"></path><path d="M588.356 420.577L588.349 420.338L589.597 420.292L604.703 419.801L604.71 420.04L588.356 420.577Z" fill="black"></path><path d="M660.336 426.926L650.656 426.557L641.932 423.524L623.56 424.223L623.554 423.984L641.964 423.285L650.714 426.325L660.343 426.687L660.336 426.926Z" fill="black"></path><path d="M588.356 425.562L588.349 425.323L604.703 424.702L604.71 424.941L588.356 425.562Z" fill="black"></path><path d="M477.037 127.032L462.752 107.644L462.836 107.573L477.121 126.96L477.037 127.032Z" fill="black"></path><path d="M480.051 125.551L466.063 105.931L466.154 105.854L480.135 125.48L480.051 125.551Z" fill="black"></path><path d="M483.09 124.057L469.387 104.198L469.478 104.127L483.174 123.986L483.09 124.057Z" fill="black"></path><path d="M486.155 122.545L472.717 102.466L472.808 102.395L486.246 122.474L486.155 122.545Z" fill="black"></path><path d="M489.253 121.018L476.067 100.719L476.158 100.654L489.344 120.953L489.253 121.018Z" fill="black"></path><path d="M492.37 119.485L479.423 98.9729L479.514 98.9082L492.46 119.414L492.37 119.485Z" fill="black"></path><path d="M495.512 117.94L482.799 97.2209L482.896 97.1562L495.603 117.876L495.512 117.94Z" fill="black"></path><path d="M498.675 116.382L486.181 95.469L486.272 95.4043L498.772 116.318L498.675 116.382Z" fill="black"></path><path d="M501.857 114.817L489.57 93.7031L489.66 93.6384L501.947 114.752L501.857 114.817Z" fill="black"></path><path d="M505.057 113.239L492.971 91.9377L493.068 91.873L505.148 113.174L505.057 113.239Z" fill="black"></path><path d="M508.271 111.655L496.373 90.1656L496.47 90.1074L508.368 111.596L508.271 111.655Z" fill="black"></path><path d="M511.498 110.064L499.787 88.3938L499.884 88.3291L511.595 110.006L511.498 110.064Z" fill="black"></path><path d="M514.751 108.467L503.215 86.609L503.312 86.5508L514.848 108.408L514.751 108.467Z" fill="black"></path><path d="M518.01 106.862L506.642 84.8297L506.739 84.7715L518.107 106.804L518.01 106.862Z" fill="black"></path><path d="M521.283 105.246L510.076 83.039L510.173 82.9873L521.38 105.194L521.283 105.246Z" fill="black"></path><path d="M524.574 103.63L513.516 81.2613L513.613 81.2031L524.671 103.578L524.574 103.63Z" fill="black"></path><path d="M527.866 102.006L516.963 79.4629L517.066 79.4111L527.969 101.954L527.866 102.006Z" fill="black"></path><path d="M531.183 100.376L520.416 77.6717L520.513 77.6135L531.28 100.325L531.183 100.376Z" fill="black"></path><path d="M534.5 98.7474L523.869 75.8681L523.973 75.8164L534.597 98.6892L534.5 98.7474Z" fill="black"></path><path d="M537.831 97.1048L527.329 74.0703L527.433 74.0186L537.928 97.053L537.831 97.1048Z" fill="black"></path><path d="M541.168 95.4619L530.802 72.2722L530.898 72.2205L541.271 95.4101L541.168 95.4619Z" fill="black"></path><path d="M544.518 93.8126L534.268 70.4678L534.372 70.416L544.615 93.7609L544.518 93.8126Z" fill="black"></path><path d="M547.874 92.1567L537.74 68.6566L537.844 68.6113L547.977 92.1114L547.874 92.1567Z" fill="black"></path><path d="M551.243 90.5016L541.22 66.8528L541.323 66.801L551.34 90.4563L551.243 90.5016Z" fill="black"></path><path d="M554.612 88.8463L544.712 65.0423L544.809 64.9971L554.716 88.7946L554.612 88.8463Z" fill="black"></path><path d="M557.994 87.1787L548.191 63.2324L548.294 63.1807L558.091 87.1334L557.994 87.1787Z" fill="black"></path><path d="M561.383 85.5169L551.683 61.4154L551.786 61.3701L561.48 85.4651L561.383 85.5169Z" fill="black"></path><path d="M564.771 83.8408L555.174 59.597L555.278 59.5518L564.875 83.7955L564.771 83.8408Z" fill="black"></path><path d="M568.173 82.166L558.667 57.7865L558.77 57.7412L568.277 82.1208L568.173 82.166Z" fill="black"></path><path d="M571.581 80.4913L562.165 55.963L562.269 55.9177L571.684 80.446L571.581 80.4913Z" fill="black"></path><path d="M574.988 78.8164L565.67 54.1459L565.773 54.1006L575.092 78.7711L574.988 78.8164Z" fill="black"></path><path d="M578.403 77.1354L569.175 52.3226L569.278 52.2773L578.506 77.0902L578.403 77.1354Z" fill="black"></path><path d="M581.824 75.4474L572.68 50.4988L572.784 50.46L581.928 75.4086L581.824 75.4474Z" fill="black"></path><path d="M585.251 73.7599L576.185 48.682L576.289 48.6367L585.355 73.7211L585.251 73.7599Z" fill="black"></path><path d="M588.685 72.0715L579.696 46.8578L579.8 46.8125L588.788 72.0327L588.685 72.0715Z" fill="black"></path><path d="M592.119 70.3841L583.214 45.0281L583.318 44.9893L592.229 70.3453L592.119 70.3841Z" fill="black"></path><path d="M595.566 68.69L586.726 43.2047L586.829 43.1594L595.669 68.6513L595.566 68.69Z" fill="black"></path><path d="M599.006 66.9959L590.244 41.3747L590.347 41.3359L599.11 66.9571L599.006 66.9959Z" fill="black"></path><path d="M602.459 65.2948L593.768 39.5443L593.871 39.499L602.562 65.256L602.459 65.2948Z" fill="black"></path><path d="M605.913 63.5999L597.286 37.7136L597.39 37.6748L606.016 63.5611L605.913 63.5999Z" fill="black"></path><path d="M609.366 61.8927L600.811 35.8835L600.92 35.8447L609.469 61.8539L609.366 61.8927Z" fill="black"></path><path d="M612.825 60.1926L604.335 34.0541L604.438 34.0088L612.929 60.1537L612.825 60.1926Z" fill="black"></path><path d="M616.292 58.4908L607.866 32.2165L607.969 32.1777L616.395 58.452L616.292 58.4908Z" fill="black"></path><path d="M619.758 56.7842L611.39 30.3806L611.493 30.3418L619.861 56.7454L619.758 56.7842Z" fill="black"></path><path d="M623.23 55.0706L614.921 28.5505L615.031 28.5117L623.334 55.0382L623.23 55.0706Z" fill="black"></path><path d="M626.697 53.3639L618.452 26.7146L618.555 26.6758L626.807 53.3316L626.697 53.3639Z" fill="black"></path><path d="M630.176 51.6499L621.982 24.8777L622.086 24.8389L630.286 51.6176L630.176 51.6499Z" fill="black"></path><path d="M633.655 49.9426L625.52 23.041L625.623 23.0022L633.758 49.9038L633.655 49.9426Z" fill="black"></path><path d="M637.14 48.2293L629.05 21.2048L629.154 21.166L637.243 48.1904L637.14 48.2293Z" fill="black"></path><path d="M648.231 72.2137L640.619 46.515L632.594 19.3677L632.698 19.3289L640.729 46.4762L648.341 72.2008H648.276L648.231 72.2137Z" fill="black"></path><path d="M648.263 58.9895L636.125 17.5249L636.235 17.4861L648.373 58.9701H648.309L648.263 58.9895Z" fill="black"></path><path d="M648.296 45.4879L639.669 15.6892L639.772 15.6504L648.405 45.4555L648.296 45.4879Z" fill="black"></path><path d="M648.334 31.7318L643.206 13.8448L643.316 13.8125L648.438 31.693L648.334 31.7318Z" fill="black"></path><path d="M648.367 17.7122L646.75 12.0021L646.86 11.9697L648.477 17.6992H648.412L648.367 17.7122Z" fill="black"></path></g></g><defs><clipPath id="clip0_921_16746"><path d="M0 0H682.576V430C682.576 438.284 675.86 445 667.576 445H0V0Z" fill="white"></path></clipPath></defs></svg>