<svg xmlns="http://www.w3.org/2000/svg" width="19" height="19" viewBox="0 0 19 19" fill="none"><path d="M4.24128 18.5H0.150391V6.22727H4.24128V18.5ZM2.19665 4.59091C1.06511 4.59091 0.150391 3.67373 0.150391 2.54464C0.150391 1.41555 1.06675 0.5 2.19665 0.5C3.3241 0.5 4.24128 1.41718 4.24128 2.54464C4.24128 3.67373 3.3241 4.59091 2.19665 4.59091ZM18.9685 18.5H15.0355V12.5273C15.0355 11.1028 15.0085 9.27091 12.9909 9.27091C10.943 9.27091 10.628 10.8222 10.628 12.4242V18.5H6.69581V6.21827H10.4709V7.89636H10.5241C11.0493 6.93091 12.3331 5.91309 14.2476 5.91309C18.2321 5.91309 18.9685 8.45682 18.9685 11.7639V18.5Z" fill="#0072B1"></path></svg>